<?xml version="1.0" encoding="utf-8"?>
<!-- Generator: Adobe Illustrator 16.0.0, SVG Export Plug-In . SVG Version: 6.00 Build 0)  -->
<!DOCTYPE svg PUBLIC "-//W3C//DTD SVG 1.1//EN" "http://www.w3.org/Graphics/SVG/1.1/DTD/svg11.dtd">
<svg version="1.1" id="Layer_1" xmlns="http://www.w3.org/2000/svg" xmlns:xlink="http://www.w3.org/1999/xlink" x="0px" y="0px"
	 width="754px" height="297px" viewBox="0 0 754 297" enable-background="new 0 0 754 297" xml:space="preserve">
<text transform="matrix(1 0 0 1 0.9033 -117.5801)" fill="#193059" font-family="'AvantGardeITCbyBT-Book'" font-size="243.347" letter-spacing="12">C</text>
<rect x="94.697" y="-233.515" fill="none" width="596.979" height="46.411"/>
<linearGradient id="SVGID_1_" gradientUnits="userSpaceOnUse" x1="202.6523" y1="-237.7173" x2="636.4326" y2="-237.7173">
	<stop  offset="0" style="stop-color:#FFFFFF;stop-opacity:0"/>
	<stop  offset="0.1336" style="stop-color:#CACFDA;stop-opacity:0.1433"/>
	<stop  offset="0.2827" style="stop-color:#96A0B6;stop-opacity:0.3031"/>
	<stop  offset="0.4294" style="stop-color:#6B7998;stop-opacity:0.4605"/>
	<stop  offset="0.5705" style="stop-color:#495B81;stop-opacity:0.6118"/>
	<stop  offset="0.7044" style="stop-color:#314671;stop-opacity:0.7554"/>
	<stop  offset="0.8283" style="stop-color:#233966;stop-opacity:0.8883"/>
	<stop  offset="0.9325" style="stop-color:#1E3463"/>
</linearGradient>
<polygon fill="url(#SVGID_1_)" points="636.433,-219.954 202.652,-219.954 202.652,-255.48 620.181,-255.48 "/>
<line fill="#D36838" x1="178.312" y1="-100.42" x2="732.615" y2="-100.42"/>
<rect x="178.312" y="-101.319" fill="#B6D433" width="554.304" height="1.793"/>
<text transform="matrix(1 0 0 1 184.998 -70.5371)"><tspan x="0" y="0" fill="#193059" font-family="'Optima-Regular'" font-size="29.1829">Practical Strategies for Atrial Fibrillation and </tspan><tspan x="0" y="35.02" fill="#193059" font-family="'Optima-Regular'" font-size="29.1829">DVT Management in Real World Practice </tspan><tspan x="0" y="70.039" fill="#193059" font-family="'Optima-Regular'" font-size="29.1829"> </tspan></text>
<text transform="matrix(1 0 0 1 593.2305 -230.2202)" fill="#B6D433" font-family="'AvantGardeITCbyBT-Medium'" font-size="23.2649">IV</text>
<text transform="matrix(1 0 0 1 188.3203 -113.5293)" fill="#193059" font-family="'AvantGardeITCbyBT-Medium'" font-size="98.1552" letter-spacing="4">onundrums</text>
<polygon fill="#193059" points="623.616,-236.195 603.349,-284.695 582.663,-236.195 578.667,-226.627 563.265,-191.088 
	552.279,-191.088 597.361,-296.694 609.195,-296.694 654.57,-191.088 643.03,-191.088 627.763,-226.627 "/>
<g>
	<polygon fill="#B6D433" points="192.655,-296.694 203.213,-296.694 203.213,-200.655 246.87,-200.655 246.87,-191.103 
		192.655,-191.103 	"/>
	<rect x="267.453" y="-296.694" fill="#B6D433" width="10.551" height="105.591"/>
	<polygon fill="#B6D433" points="305.384,-296.694 319.652,-296.694 378.576,-209.081 378.855,-209.081 378.855,-296.694 
		389.427,-296.694 389.427,-191.103 378.855,-191.103 316.23,-283.996 315.952,-283.996 315.952,-191.103 305.384,-191.103 	"/>
	<rect x="414.985" y="-296.694" fill="#B6D433" width="10.558" height="105.591"/>
	<path fill="#B6D433" d="M546.362-218.785c-11.254,20.686-31.677,29.533-48.647,29.533c-29.522,0-55.201-23.249-55.201-54.506
		c0-31.238,24.973-54.641,55.064-54.641c27.113,0,44.227,18.975,48.354,28.828h-11.831c-11.557-17.266-30.246-19.273-36.664-19.273
		c-24.677,0-44.378,21.69-44.378,45.231c0,24.69,21.683,44.8,44.519,44.8c5.277,0,22.545-0.713,36.949-19.973H546.362z"/>
	<polygon fill="#B6D433" points="667.818,-296.694 678.373,-296.694 678.373,-200.655 722.047,-200.655 722.047,-191.103 
		667.818,-191.103 	"/>
</g>
<rect x="269.024" y="-256.089" fill="#B6D433" width="348.026" height="0.609"/>
<rect x="269.024" y="-219.721" fill="#B6D433" width="362.45" height="0.616"/>
<text transform="matrix(1 0 0 1 510.0625 -229.2065)" fill="#B6D433" font-family="'AvantGardeITCbyBT-Medium'" font-size="23.2649">2019</text>
<text transform="matrix(1 0 0 1 0.9033 202.4199)" fill="#193059" font-family="'AvantGardeITCbyBT-Book'" font-size="243.347" letter-spacing="12">C</text>
<rect x="94.697" y="86.484" fill="none" width="596.979" height="46.411"/>
<linearGradient id="SVGID_2_" gradientUnits="userSpaceOnUse" x1="202.6523" y1="82.2832" x2="636.4326" y2="82.2832">
	<stop  offset="0" style="stop-color:#FFFFFF;stop-opacity:0"/>
	<stop  offset="0.1336" style="stop-color:#CACFDA;stop-opacity:0.1433"/>
	<stop  offset="0.2827" style="stop-color:#96A0B6;stop-opacity:0.3031"/>
	<stop  offset="0.4294" style="stop-color:#6B7998;stop-opacity:0.4605"/>
	<stop  offset="0.5705" style="stop-color:#495B81;stop-opacity:0.6118"/>
	<stop  offset="0.7044" style="stop-color:#314671;stop-opacity:0.7554"/>
	<stop  offset="0.8283" style="stop-color:#233966;stop-opacity:0.8883"/>
	<stop  offset="0.9325" style="stop-color:#1E3463"/>
</linearGradient>
<polygon fill="url(#SVGID_2_)" points="636.433,100.046 202.652,100.046 202.652,64.52 620.181,64.52 "/>
<line fill="#D36838" x1="178.312" y1="219.58" x2="732.615" y2="219.58"/>
<rect x="178.312" y="218.681" fill="#31C1D7" width="554.304" height="1.793"/>
<text transform="matrix(1 0 0 1 184.998 249.4629)"><tspan x="0" y="0" fill="#193059" font-family="'Optima-Regular'" font-size="29.1829">Practical Strategies for Atrial Fibrillation and </tspan><tspan x="0" y="35.02" fill="#193059" font-family="'Optima-Regular'" font-size="29.1829">DVT Management in Real World Practice </tspan><tspan x="0" y="70.039" fill="#193059" font-family="'Optima-Regular'" font-size="29.1829"> </tspan></text>
<g>
	<text transform="matrix(1 0 0 1 593.2305 89.7793)" fill="#31C1D7" font-family="'AvantGardeITCbyBT-Medium'" font-size="23.2649">IV</text>
</g>
<text transform="matrix(1 0 0 1 188.3203 206.4707)" fill="#193059" font-family="'AvantGardeITCbyBT-Medium'" font-size="98.1552" letter-spacing="4">onundrums</text>
<polygon fill="#193059" points="623.616,83.805 603.349,35.305 582.663,83.805 578.667,93.373 563.265,128.912 552.279,128.912 
	597.361,23.307 609.195,23.307 654.57,128.912 643.03,128.912 627.763,93.373 "/>
<g>
	<polygon fill="#31C1D7" points="192.655,23.307 203.213,23.307 203.213,119.345 246.87,119.345 246.87,128.897 192.655,128.897 	
		"/>
	<rect x="267.453" y="23.307" fill="#31C1D7" width="10.551" height="105.591"/>
	<polygon fill="#31C1D7" points="305.384,23.307 319.652,23.307 378.576,110.919 378.855,110.919 378.855,23.307 389.427,23.307 
		389.427,128.897 378.855,128.897 316.23,36.004 315.952,36.004 315.952,128.897 305.384,128.897 	"/>
	<rect x="414.985" y="23.307" fill="#31C1D7" width="10.558" height="105.591"/>
	<path fill="#31C1D7" d="M546.362,101.215c-11.254,20.686-31.677,29.533-48.647,29.533c-29.522,0-55.201-23.248-55.201-54.506
		c0-31.238,24.973-54.641,55.064-54.641c27.113,0,44.227,18.975,48.354,28.828h-11.831c-11.557-17.266-30.246-19.273-36.664-19.273
		c-24.677,0-44.378,21.689-44.378,45.23c0,24.69,21.683,44.801,44.519,44.801c5.277,0,22.545-0.713,36.949-19.973H546.362z"/>
	<polygon fill="#31C1D7" points="667.818,23.307 678.373,23.307 678.373,119.345 722.047,119.345 722.047,128.897 667.818,128.897 	
		"/>
</g>
<rect x="269.024" y="63.91" fill="#31C1D7" width="348.026" height="0.609"/>
<rect x="269.024" y="100.279" fill="#31C1D7" width="362.45" height="0.615"/>
<g>
	<text transform="matrix(1 0 0 1 510.0625 90.793)" fill="#31C1D7" font-family="'AvantGardeITCbyBT-Medium'" font-size="23.2649">2019</text>
</g>
<g>
	
		<text transform="matrix(1 0 0 1 931.9033 533.4199)" fill="#515251" font-family="'AvantGardeITCbyBT-Book'" font-size="243.347" letter-spacing="12">C</text>
</g>
<rect x="1025.697" y="417.484" fill="none" width="596.979" height="46.411"/>
<linearGradient id="SVGID_3_" gradientUnits="userSpaceOnUse" x1="1133.6523" y1="413.2832" x2="1567.4326" y2="413.2832">
	<stop  offset="0" style="stop-color:#FFFFFF;stop-opacity:0"/>
	<stop  offset="0.0547" style="stop-color:#ECECEC;stop-opacity:0.0586"/>
	<stop  offset="0.2186" style="stop-color:#B8B8B9;stop-opacity:0.2345"/>
	<stop  offset="0.3798" style="stop-color:#8E8D8E;stop-opacity:0.4073"/>
	<stop  offset="0.5348" style="stop-color:#6C6B6D;stop-opacity:0.5735"/>
	<stop  offset="0.682" style="stop-color:#545355;stop-opacity:0.7313"/>
	<stop  offset="0.8181" style="stop-color:#464547;stop-opacity:0.8773"/>
	<stop  offset="0.9325" style="stop-color:#414042"/>
</linearGradient>
<polygon fill="url(#SVGID_3_)" points="1567.433,431.046 1133.652,431.046 1133.652,395.52 1551.181,395.52 "/>
<line fill="#D36838" x1="1109.312" y1="550.58" x2="1663.615" y2="550.58"/>
<rect x="1109.312" y="549.681" fill="#3A2258" width="554.304" height="1.793"/>
<text transform="matrix(1 0 0 1 1115.998 580.4629)"><tspan x="0" y="0" fill="#515251" font-family="'Optima-Regular'" font-size="29.1829">Practical Strategies for Atrial Fibrillation and </tspan><tspan x="0" y="35.02" fill="#515251" font-family="'Optima-Regular'" font-size="29.1829">DVT Management in Real World Practice </tspan><tspan x="0" y="70.039" fill="#515251" font-family="'Optima-Regular'" font-size="29.1829"> </tspan></text>
<g>
	
		<text transform="matrix(1 0 0 1 1524.2305 420.7793)" fill="#31C1D7" font-family="'AvantGardeITCbyBT-Medium'" font-size="23.2649">IV</text>
</g>
<g>
	
		<text transform="matrix(1 0 0 1 1119.3203 537.4707)" fill="#515251" font-family="'AvantGardeITCbyBT-Medium'" font-size="98.1552" letter-spacing="4">onundrums</text>
</g>
<polygon fill="#515251" points="1554.616,414.805 1534.349,366.305 1513.663,414.805 1509.667,424.373 1494.265,459.912 
	1483.279,459.912 1528.361,354.307 1540.195,354.307 1585.57,459.912 1574.03,459.912 1558.763,424.373 "/>
<g>
	<g>
		<g>
			<polygon fill="#31C1D7" points="1123.655,354.307 1134.213,354.307 1134.213,450.345 1177.87,450.345 1177.87,459.897 
				1123.655,459.897 			"/>
		</g>
		<g>
			<rect x="1198.453" y="354.307" fill="#31C1D7" width="10.551" height="105.591"/>
		</g>
		<g>
			<polygon fill="#31C1D7" points="1236.384,354.307 1250.652,354.307 1309.576,441.919 1309.855,441.919 1309.855,354.307 
				1320.427,354.307 1320.427,459.897 1309.855,459.897 1247.23,367.004 1246.952,367.004 1246.952,459.897 1236.384,459.897 			"/>
		</g>
		<g>
			<rect x="1345.985" y="354.307" fill="#31C1D7" width="10.558" height="105.591"/>
		</g>
		<g>
			<path fill="#31C1D7" d="M1477.362,432.215c-11.254,20.686-31.677,29.533-48.647,29.533c-29.522,0-55.201-23.248-55.201-54.506
				c0-31.238,24.973-54.641,55.064-54.641c27.113,0,44.227,18.975,48.354,28.828h-11.831
				c-11.557-17.266-30.246-19.273-36.664-19.273c-24.677,0-44.378,21.689-44.378,45.23c0,24.69,21.683,44.801,44.519,44.801
				c5.277,0,22.545-0.713,36.949-19.973H1477.362z"/>
		</g>
		<polygon fill="#31C1D7" points="1598.818,354.307 1609.373,354.307 1609.373,450.345 1653.047,450.345 1653.047,459.897 
			1598.818,459.897 		"/>
	</g>
</g>
<rect x="1200.024" y="394.91" fill="#31C1D7" width="348.026" height="0.609"/>
<rect x="1200.024" y="431.279" fill="#31C1D7" width="362.45" height="0.615"/>
<g>
	
		<text transform="matrix(1 0 0 1 1441.0625 421.793)" fill="#31C1D7" font-family="'AvantGardeITCbyBT-Medium'" font-size="23.2649">2019</text>
</g>
<g>
	
		<text transform="matrix(1 0 0 1 0.9033 840.4199)" fill="#31C1D7" font-family="'AvantGardeITCbyBT-Book'" font-size="243.347" letter-spacing="12">C</text>
</g>
<rect x="94.697" y="724.484" fill="none" width="596.979" height="46.411"/>
<linearGradient id="SVGID_4_" gradientUnits="userSpaceOnUse" x1="202.6523" y1="720.2832" x2="636.4326" y2="720.2832">
	<stop  offset="0" style="stop-color:#FFFFFF;stop-opacity:0"/>
	<stop  offset="0.0921" style="stop-color:#DDF5F8;stop-opacity:0.0987"/>
	<stop  offset="0.249" style="stop-color:#A9E5EE;stop-opacity:0.267"/>
	<stop  offset="0.4033" style="stop-color:#7ED8E6;stop-opacity:0.4325"/>
	<stop  offset="0.5517" style="stop-color:#5CCEDF;stop-opacity:0.5916"/>
	<stop  offset="0.6926" style="stop-color:#44C7DB;stop-opacity:0.7427"/>
	<stop  offset="0.8229" style="stop-color:#36C2D8;stop-opacity:0.8825"/>
	<stop  offset="0.9325" style="stop-color:#31C1D7"/>
</linearGradient>
<polygon fill="url(#SVGID_4_)" points="636.433,738.046 202.652,738.046 202.652,702.52 620.181,702.52 "/>
<line fill="#D36838" x1="178.312" y1="857.58" x2="732.615" y2="857.58"/>
<rect x="178.312" y="856.681" fill="#3A2258" width="554.304" height="1.793"/>
<g>
	<text transform="matrix(1 0 0 1 184.998 887.4629)"><tspan x="0" y="0" fill="#252625" font-family="'Optima-Regular'" font-size="29.1829">Practical Strategies for Atrial Fibrillation and </tspan><tspan x="0" y="35.02" fill="#252625" font-family="'Optima-Regular'" font-size="29.1829">DVT Management in Real World Practice </tspan><tspan x="0" y="70.039" fill="#252625" font-family="'Optima-Regular'" font-size="29.1829"> </tspan></text>
</g>
<g>
	
		<text transform="matrix(1 0 0 1 593.2305 727.7793)" fill="#252625" font-family="'AvantGardeITCbyBT-Medium'" font-size="23.2649">IV</text>
</g>
<g>
	
		<text transform="matrix(1 0 0 1 188.3203 844.4707)" fill="#31C1D7" font-family="'AvantGardeITCbyBT-Medium'" font-size="98.1552" letter-spacing="4">onundrums</text>
</g>
<polygon fill="#31C1D7" points="623.616,721.805 603.349,673.305 582.663,721.805 578.667,731.373 563.265,766.912 552.279,766.912 
	597.361,661.307 609.195,661.307 654.57,766.912 643.03,766.912 627.763,731.373 "/>
<g>
	<g>
		<g>
			<polygon fill="#252625" points="192.655,661.307 203.213,661.307 203.213,757.345 246.87,757.345 246.87,766.897 
				192.655,766.897 			"/>
		</g>
		<g>
			<rect x="267.453" y="661.307" fill="#252625" width="10.551" height="105.591"/>
		</g>
		<g>
			<polygon fill="#252625" points="305.384,661.307 319.652,661.307 378.576,748.919 378.855,748.919 378.855,661.307 
				389.427,661.307 389.427,766.897 378.855,766.897 316.23,674.004 315.952,674.004 315.952,766.897 305.384,766.897 			"/>
		</g>
		<g>
			<rect x="414.985" y="661.307" fill="#252625" width="10.558" height="105.591"/>
		</g>
		<g>
			<path fill="#252625" d="M546.362,739.215c-11.254,20.686-31.677,29.533-48.647,29.533c-29.522,0-55.201-23.248-55.201-54.506
				c0-31.238,24.973-54.641,55.064-54.641c27.113,0,44.227,18.975,48.354,28.828h-11.831
				c-11.557-17.266-30.246-19.273-36.664-19.273c-24.677,0-44.378,21.689-44.378,45.23c0,24.69,21.683,44.801,44.519,44.801
				c5.277,0,22.545-0.713,36.949-19.973H546.362z"/>
		</g>
		<polygon fill="#252625" points="667.818,661.307 678.373,661.307 678.373,757.345 722.047,757.345 722.047,766.897 
			667.818,766.897 		"/>
	</g>
</g>
<rect x="269.024" y="701.91" fill="#252625" width="348.026" height="0.609"/>
<rect x="269.024" y="738.279" fill="#252625" width="362.45" height="0.615"/>
<g>
	<text transform="matrix(1 0 0 1 510.0625 728.793)" fill="#252625" font-family="'AvantGardeITCbyBT-Medium'" font-size="23.2649">2019</text>
</g>
<rect x="-331" y="-330" fill="#193059" width="86" height="132"/>
<circle fill="#281C5C" cx="-250" cy="380" r="23"/>
<circle fill="#281C5C" cx="-230" cy="476" r="23"/>
</svg>
