<?xml version="1.0" encoding="utf-8"?>
<!-- Generator: Adobe Illustrator 15.0.2, SVG Export Plug-In . SVG Version: 6.00 Build 0)  -->
<!DOCTYPE svg PUBLIC "-//W3C//DTD SVG 1.1//EN" "http://www.w3.org/Graphics/SVG/1.1/DTD/svg11.dtd">
<svg version="1.1" id="Layer_1" xmlns="http://www.w3.org/2000/svg" xmlns:xlink="http://www.w3.org/1999/xlink" x="0px" y="0px"
	 width="304.314px" height="73.139px" viewBox="0 0 304.314 73.139" enable-background="new 0 0 304.314 73.139"
	 xml:space="preserve">
<rect x="-21.843" y="-210.098" fill="#92499C" width="444" height="196.667"/>
<path fill="#FFFFFF" d="M15.514,12.942l0.345,0.258l0.43,0.345l0.518,0.431l0.56,0.387l0.43,0.345l0.311,0.232
	c2.978-1.15,6.442-1.812,10.145-1.812c3.704,0,7.171,0.664,10.15,1.814l0.02-0.021l0.302-0.214l0.475-0.345l0.473-0.387l0.516-0.388
	l0.474-0.301l0.172-0.129l0.171-0.087l0.087-0.086l-0.302-0.042l-0.43-0.085l-0.518-0.086l-0.517-0.13l-0.431-0.086l-0.343-0.085
	h-0.131l1.207-3.489l-3.402,0.948l-0.127-2.712l-4.436,4.348l1.635-8.44L29.811,4.76l-1.55-4.693l-1.549,4.435l-3.575-1.464
	l1.766,8.484L20.51,7.343v2.714l-3.618-1.25l0.861,3.704l-2.367,0.301L15.514,12.942L15.514,12.942z"/>
<path fill="#FFFFFF" d="M23.557,27.842l1.298,1.179c0,0,0.737-1.179,3.007-1.651c2.271-0.471,7.458-0.147,12.381,6.928
	c1.317,2.085,2.447,5.236,2.684,8.019c0.387,4.577-0.737,8.609-0.737,8.609s-1.563,6.927-3.92,7.546
	c0.117,0.296,0.706,1.653,0.706,1.653s2.676-0.548,4.276-6.576c1.493-5.627,1.764-7.107,1.327-12.352
	c-0.439-5.246-4.127-10.556-7.458-12.855C33.786,26.043,28.54,23.42,23.557,27.842L23.557,27.842z"/>
<path fill="#FFFFFF" d="M25.15,35.158c0,0,0.661,2.987,0.98,3.511c2.052-1.619,4.788-2.166,6.497-2.349
	c1.71-0.181,1.528-0.273,1.687-0.683c0.16-0.41,0-0.775-0.638-1.345c-0.638-0.569-2.006-1.505-3.236-1.595
	c-1.231-0.092-2.395,0.159-3.443,0.89C25.948,34.315,25.15,35.158,25.15,35.158L25.15,35.158z M24.691,39.893
	c0,0-1.249-3.657-1.412-5.253c1.991-2.221,4.396-4.027,7.497-3.633c0,0,0.579,0.041,1.32,0.323c2.016,0.774,5.438,2.777,3.401,5.646
	c0,0,2.427,0.811,3.703,4.489c0.456,1.318,0.497,2.865,0.602,5.067c0,1.364-0.602,4.905-0.602,4.905l-1.806-0.323
	c0,0,0.717-2.731,0.648-5.438s-0.625-5.762-3.032-7.011c-0.969-0.587-2.108-0.618-3.169-0.486c-2.456,0.306-4.708,1.874-4.998,2.245
	c0,0,0.885,2.206,2.637,5.021c1.753,2.814,4.374,6.236,7.266,8.793l-1.225,1.249c0,0-7.128-6.548-10.136-13.976
	c-2.984,1.227-4.604,4.883-4.488,5.184c0.057,0.149,1.079,2.607,3.193,4.649s5.322,3.67,7.474,4.283
	c-0.255,0.832-0.578,1.664-0.578,1.664s-7.428-1.713-11.523-9.487c-2.268-5.135-1.389-9.972-1.389-9.972l1.713,0.323
	c0,0-0.486,3.726,0.324,6.063C21.778,41.118,24.367,39.985,24.691,39.893L24.691,39.893z"/>
<path fill="#FFFFFF" d="M12.36,39.254c-0.336,3.649,1.108,8.06,1.108,8.06c2.366,6.141,7.489,10.243,13.599,13.12
	c6.111,2.875,8.418,1.167,8.418,1.167s-0.15-0.329-0.809-1.558c-0.011,0.007-0.025,0.014-0.037,0.021
	c-0.399,0.203-1.119,0.411-1.91,0.31c-1.78-0.226-3.678-0.946-5.182-1.559c-7.425-3.018-11.174-9.433-11.174-9.433
	c-4.074-7.162-1.648-13.184-1.414-13.817c0.232-0.634,1.52-4.586,5.71-4.685v-1.758c0,0-2.082-0.083-4.016,1.433
	c-1.933,1.514-2.676,3.008-2.676,3.008S12.746,35.066,12.36,39.254L12.36,39.254z"/>
<g>
	<defs>
		<rect id="SVGID_1_" x="0" y="0.067" width="141.324" height="72.839"/>
	</defs>
	<clipPath id="SVGID_2_">
		<use xlink:href="#SVGID_1_"  overflow="visible"/>
	</clipPath>
	<path clip-path="url(#SVGID_2_)" fill="#FFFFFF" d="M55.354,47.539c0,0,0.459-0.963,1.119-0.562
		c0.716,0.436,0.492,1.053-0.003,1.574l-1.417,1.528l-1.065-1.955c0,0-0.51-0.93,0.372-1.418c0,0,0.829-0.292,0.977,0.828"/>
	<path clip-path="url(#SVGID_2_)" fill="#FFFFFF" d="M1.619,47.544c0,0,0.102-1.141,1.134-0.753c0,0,0.82,0.266,0.081,1.595
		l-0.941,1.697H1.877l-1.65-1.873c0,0-0.536-0.727,0.204-1.194C0.431,47.016,1.062,46.533,1.619,47.544L1.619,47.544z"/>
</g>
<path fill="#FFFFFF" d="M0.654,53.169c-0.066-0.174-0.097-0.343-0.094-0.51c0.002-0.166,0.042-0.324,0.117-0.473
	c0.074-0.149,0.186-0.284,0.335-0.408c0.149-0.123,0.335-0.226,0.557-0.312c0.221-0.083,0.424-0.129,0.61-0.136
	c0.186-0.006,0.36,0.021,0.522,0.082c0.158,0.06,0.296,0.15,0.413,0.271c0.117,0.119,0.209,0.27,0.277,0.447
	c0.034,0.089,0.058,0.174,0.075,0.255c0.017,0.083,0.027,0.162,0.033,0.234c0.003,0.063,0.003,0.131,0,0.201
	c-0.004,0.069-0.011,0.139-0.021,0.209l-0.424,0.162l-0.011-0.029c0.017-0.041,0.036-0.094,0.058-0.158
	c0.021-0.063,0.038-0.137,0.051-0.222c0.011-0.081,0.014-0.166,0.007-0.254c-0.006-0.088-0.03-0.185-0.069-0.287
	c-0.043-0.112-0.107-0.211-0.19-0.293c-0.084-0.082-0.186-0.145-0.305-0.187c-0.118-0.04-0.253-0.055-0.404-0.044
	c-0.152,0.01-0.312,0.048-0.483,0.113c-0.181,0.069-0.329,0.15-0.442,0.243c-0.114,0.093-0.202,0.195-0.263,0.305
	C0.944,52.488,0.91,52.6,0.904,52.715c-0.006,0.116,0.011,0.229,0.054,0.34c0.038,0.103,0.086,0.19,0.145,0.268
	c0.058,0.077,0.118,0.142,0.182,0.194c0.061,0.051,0.12,0.093,0.176,0.125c0.057,0.033,0.104,0.058,0.142,0.074l0.01,0.026
	l-0.419,0.159c-0.048-0.047-0.095-0.092-0.14-0.134c-0.044-0.042-0.092-0.096-0.144-0.159c-0.055-0.068-0.1-0.131-0.138-0.191
	S0.694,53.273,0.654,53.169L0.654,53.169z"/>
<path fill="#FFFFFF" d="M2.836,55.267l1.018-0.96L2.467,54.48L2.836,55.267L2.836,55.267z M1.146,54.281l2.962-0.34l0.197,0.419
	l-2.153,2.062l-0.168-0.358l0.607-0.569l-0.458-0.974l-0.825,0.104L1.146,54.281L1.146,54.281z"/>
<polygon fill="#FFFFFF" points="3.411,58.682 3.204,58.317 4.711,56.031 2.591,57.229 2.418,56.924 4.877,55.535 5.139,55.998 
	3.751,58.087 5.698,56.988 5.87,57.292 3.411,58.682 "/>
<path fill="#FFFFFF" d="M5.519,59.88l0.862-1.107l-1.35,0.382L5.519,59.88L5.519,59.88z M3.698,59.161l2.875-0.785l0.259,0.383
	l-1.812,2.368L4.8,60.799l0.512-0.654l-0.603-0.897l-0.799,0.228L3.698,59.161L3.698,59.161z"/>
<path fill="#FFFFFF" d="M7.61,62.126c0.169-0.134,0.292-0.279,0.365-0.431c0.075-0.152,0.101-0.311,0.079-0.475
	c-0.015-0.115-0.048-0.228-0.099-0.333c-0.051-0.105-0.128-0.225-0.235-0.357l-0.179-0.224l-1.695,1.357l0.179,0.225
	c0.105,0.131,0.207,0.236,0.306,0.318c0.1,0.082,0.21,0.141,0.331,0.176c0.15,0.047,0.304,0.05,0.459,0.01S7.439,62.264,7.61,62.126
	L7.61,62.126z M7.849,62.435c-0.201,0.161-0.415,0.266-0.642,0.313c-0.228,0.049-0.441,0.04-0.642-0.024
	c-0.16-0.056-0.297-0.131-0.413-0.227c-0.116-0.097-0.246-0.233-0.389-0.413l-0.407-0.508l2.204-1.766l0.402,0.502
	c0.166,0.208,0.281,0.383,0.344,0.525c0.063,0.145,0.102,0.278,0.114,0.404c0.02,0.218-0.017,0.428-0.109,0.63
	C8.219,62.075,8.065,62.263,7.849,62.435L7.849,62.435z"/>
<polygon fill="#FFFFFF" points="7.896,64.544 7.15,63.742 7.361,63.546 7.606,63.81 9.252,62.277 9.007,62.014 9.219,61.817 
	9.965,62.617 9.754,62.815 9.509,62.552 7.862,64.084 8.107,64.347 7.896,64.544 "/>
<path fill="#FFFFFF" d="M10.135,65.16l0.585-1.274l-1.225,0.681L10.135,65.16L10.135,65.16z M8.198,64.879l2.619-1.424l0.34,0.315
	l-1.22,2.72l-0.291-0.27l0.348-0.754L9.2,64.732l-0.725,0.404L8.198,64.879L8.198,64.879z"/>
<polygon fill="#FFFFFF" points="11.981,68.067 11.644,67.812 12.121,65.115 10.649,67.056 10.368,66.844 12.076,64.592 
	12.502,64.915 12.056,67.385 13.408,65.603 13.689,65.815 11.981,68.067 "/>
<polygon fill="#FFFFFF" points="15.796,70.291 15.463,70.118 16.107,68.89 14.952,68.285 14.309,69.513 13.976,69.339 
	15.289,66.835 15.621,67.009 15.107,67.99 16.261,68.596 16.776,67.614 17.108,67.789 15.796,70.291 "/>
<polygon fill="#FFFFFF" points="16.588,70.644 17.634,68.02 19.275,68.675 19.151,68.985 17.861,68.469 17.574,69.189 
	18.778,69.667 18.654,69.978 17.45,69.498 17.062,70.473 18.353,70.988 18.229,71.297 16.588,70.644 "/>
<path fill="#FFFFFF" d="M20.459,70.821l-0.048-1.4l-0.79,1.157L20.459,70.821L20.459,70.821z M18.602,71.437l1.704-2.445
	l0.445,0.129l0.125,2.979l-0.381-0.11l-0.025-0.832l-1.037-0.301l-0.468,0.687L18.602,71.437L18.602,71.437z"/>
<path fill="#FFFFFF" d="M23.158,70.479c0.016-0.081,0.015-0.156-0.002-0.223c-0.017-0.069-0.052-0.128-0.104-0.179
	c-0.046-0.045-0.103-0.081-0.169-0.109c-0.068-0.026-0.153-0.05-0.257-0.069l-0.366-0.07l-0.198,1.046l0.326,0.061
	c0.106,0.02,0.204,0.028,0.292,0.026c0.088-0.003,0.168-0.028,0.239-0.075c0.064-0.041,0.115-0.096,0.154-0.163
	C23.111,70.656,23.14,70.575,23.158,70.479L23.158,70.479z M23.578,72.622l-0.479-0.091l-0.67-1.271l-0.424-0.079l-0.208,1.104
	l-0.368-0.069l0.524-2.776l0.716,0.136c0.159,0.029,0.291,0.064,0.396,0.101c0.104,0.038,0.199,0.099,0.284,0.181
	c0.085,0.08,0.147,0.175,0.185,0.283c0.038,0.109,0.044,0.236,0.016,0.381c-0.038,0.204-0.122,0.364-0.251,0.48
	c-0.129,0.117-0.289,0.192-0.479,0.224L23.578,72.622L23.578,72.622z"/>
<polygon fill="#FFFFFF" points="24.642,72.728 24.892,70.25 23.948,70.155 23.981,69.823 26.243,70.051 26.21,70.383 25.265,70.286 
	25.015,72.766 24.642,72.728 "/>
<path fill="#FFFFFF" d="M29.39,70.858c-0.001-0.082-0.017-0.155-0.047-0.219c-0.03-0.063-0.075-0.113-0.137-0.154
	c-0.054-0.035-0.116-0.059-0.187-0.072c-0.071-0.015-0.159-0.02-0.264-0.019l-0.372,0.005l0.015,1.066l0.33-0.005
	c0.108-0.001,0.204-0.012,0.29-0.031c0.086-0.021,0.159-0.061,0.219-0.121c0.054-0.055,0.093-0.117,0.119-0.191
	C29.379,71.043,29.391,70.956,29.39,70.858L29.39,70.858z M30.226,72.877l-0.487,0.006l-0.909-1.111l-0.429,0.006l0.014,1.123
	l-0.375,0.005l-0.038-2.827l0.728-0.009c0.162-0.002,0.297,0.005,0.407,0.021c0.109,0.018,0.214,0.057,0.314,0.12
	c0.099,0.062,0.178,0.142,0.236,0.241c0.059,0.1,0.089,0.223,0.091,0.371c0.003,0.207-0.047,0.382-0.15,0.522
	s-0.244,0.245-0.424,0.315L30.226,72.877L30.226,72.877z"/>
<polygon fill="#FFFFFF" points="30.746,72.882 30.495,70.068 32.257,69.911 32.287,70.243 30.9,70.367 30.969,71.138 32.261,71.023 
	32.291,71.354 30.998,71.47 31.092,72.517 32.479,72.393 32.508,72.724 30.746,72.882 "/>
<path fill="#FFFFFF" d="M33.985,72.527c-0.201,0.037-0.376,0.049-0.525,0.033c-0.149-0.017-0.291-0.043-0.426-0.08l-0.085-0.464
	l0.025-0.005c0.144,0.092,0.298,0.155,0.463,0.19c0.166,0.034,0.321,0.038,0.463,0.011c0.204-0.036,0.351-0.107,0.439-0.213
	c0.088-0.104,0.12-0.226,0.094-0.366c-0.021-0.111-0.065-0.195-0.132-0.255c-0.069-0.061-0.165-0.096-0.291-0.107
	c-0.09-0.009-0.172-0.015-0.247-0.018c-0.073-0.003-0.167-0.009-0.278-0.017c-0.101-0.007-0.193-0.022-0.275-0.046
	c-0.084-0.024-0.16-0.063-0.23-0.115c-0.068-0.05-0.125-0.114-0.173-0.189c-0.047-0.078-0.08-0.171-0.102-0.279
	c-0.041-0.225,0.012-0.43,0.159-0.615c0.147-0.184,0.357-0.302,0.629-0.352c0.155-0.029,0.306-0.04,0.45-0.035
	c0.145,0.006,0.281,0.026,0.409,0.061l0.082,0.442l-0.028,0.005c-0.103-0.064-0.229-0.114-0.378-0.148
	c-0.149-0.035-0.3-0.038-0.452-0.01c-0.171,0.031-0.302,0.097-0.394,0.197c-0.09,0.1-0.124,0.215-0.099,0.346
	c0.021,0.117,0.07,0.205,0.145,0.265c0.075,0.058,0.175,0.093,0.299,0.104c0.081,0.006,0.182,0.012,0.3,0.019
	c0.118,0.005,0.216,0.012,0.296,0.021c0.202,0.023,0.358,0.086,0.468,0.188c0.11,0.102,0.181,0.24,0.213,0.412
	c0.02,0.108,0.018,0.221-0.006,0.333c-0.024,0.115-0.07,0.216-0.136,0.304c-0.075,0.097-0.166,0.179-0.269,0.243
	C34.291,72.448,34.155,72.495,33.985,72.527L33.985,72.527z"/>
<polygon fill="#FFFFFF" points="35.615,72.133 34.858,69.412 36.559,68.939 36.649,69.26 35.309,69.634 35.517,70.378 
	36.765,70.031 36.855,70.352 35.607,70.7 35.888,71.71 37.228,71.337 37.318,71.658 35.615,72.133 "/>
<path fill="#FFFFFF" d="M38.808,69.934l-0.881-1.088l0.067,1.398L38.808,69.934L38.808,69.934z M37.697,71.544l-0.115-2.979
	l0.433-0.164l1.896,2.301l-0.371,0.142l-0.519-0.646l-1.01,0.384l0.042,0.828L37.697,71.544L37.697,71.544z"/>
<path fill="#FFFFFF" d="M40.749,68.035c-0.035-0.073-0.081-0.132-0.136-0.177c-0.054-0.043-0.118-0.069-0.19-0.078
	c-0.064-0.009-0.131-0.004-0.201,0.017c-0.069,0.019-0.152,0.05-0.246,0.097l-0.333,0.167l0.474,0.952l0.296-0.148
	c0.096-0.048,0.179-0.1,0.248-0.154c0.069-0.056,0.118-0.123,0.146-0.203c0.026-0.071,0.033-0.146,0.024-0.224
	C40.82,68.206,40.793,68.124,40.749,68.035L40.749,68.035z M42.378,69.49l-0.437,0.217l-1.3-0.606l-0.386,0.193l0.5,1.003
	l-0.335,0.168l-1.258-2.529l0.653-0.324c0.145-0.072,0.27-0.124,0.376-0.157c0.105-0.033,0.217-0.042,0.333-0.028
	c0.117,0.013,0.223,0.051,0.319,0.114c0.096,0.063,0.178,0.162,0.243,0.295c0.093,0.186,0.123,0.364,0.091,0.536
	c-0.032,0.171-0.114,0.327-0.246,0.467L42.378,69.49L42.378,69.49z"/>
<path fill="#FFFFFF" d="M43.78,68.681c-0.156,0.097-0.317,0.161-0.48,0.191c-0.165,0.029-0.327,0.022-0.487-0.022
	c-0.161-0.043-0.316-0.126-0.466-0.249c-0.149-0.123-0.289-0.284-0.414-0.485c-0.126-0.201-0.211-0.392-0.253-0.573
	c-0.042-0.18-0.049-0.355-0.021-0.528c0.028-0.167,0.09-0.32,0.186-0.457c0.096-0.139,0.224-0.259,0.386-0.36
	c0.081-0.051,0.159-0.092,0.236-0.123c0.079-0.033,0.153-0.06,0.224-0.078c0.062-0.016,0.127-0.028,0.196-0.038
	c0.07-0.01,0.139-0.018,0.21-0.021l0.241,0.382l-0.025,0.017c-0.044-0.008-0.1-0.017-0.166-0.024
	c-0.066-0.009-0.143-0.011-0.228-0.007c-0.082,0.006-0.165,0.02-0.251,0.044c-0.086,0.023-0.175,0.064-0.27,0.124
	c-0.102,0.064-0.185,0.146-0.25,0.243c-0.064,0.101-0.105,0.213-0.123,0.336c-0.017,0.124-0.005,0.259,0.035,0.406
	c0.04,0.146,0.107,0.297,0.204,0.451c0.104,0.164,0.211,0.292,0.326,0.386c0.114,0.094,0.23,0.159,0.35,0.197
	c0.116,0.038,0.232,0.048,0.348,0.032c0.114-0.017,0.222-0.057,0.324-0.119c0.091-0.059,0.17-0.123,0.234-0.194
	c0.064-0.071,0.116-0.143,0.156-0.216c0.038-0.07,0.067-0.137,0.089-0.197c0.021-0.062,0.035-0.113,0.045-0.153l0.024-0.016
	l0.238,0.38c-0.036,0.058-0.071,0.113-0.103,0.163c-0.033,0.053-0.075,0.11-0.129,0.174c-0.056,0.066-0.109,0.123-0.161,0.172
	C43.949,68.565,43.877,68.619,43.78,68.681L43.78,68.681z"/>
<polygon fill="#FFFFFF" points="46.635,66.533 46.339,66.765 45.486,65.676 44.465,66.475 45.317,67.564 45.02,67.797 43.28,65.572 
	43.576,65.339 44.26,66.211 45.281,65.413 44.598,64.539 44.894,64.308 46.635,66.533 "/>
<path fill="#FFFFFF" d="M49.168,64.149c-0.125,0.134-0.264,0.238-0.415,0.31c-0.152,0.069-0.311,0.104-0.477,0.103
	c-0.167-0.001-0.338-0.042-0.515-0.122c-0.176-0.08-0.351-0.201-0.525-0.363c-0.172-0.161-0.303-0.324-0.392-0.488
	c-0.086-0.164-0.139-0.332-0.155-0.506c-0.016-0.168,0.005-0.332,0.062-0.49c0.056-0.159,0.15-0.307,0.281-0.446
	c0.065-0.069,0.131-0.13,0.197-0.181s0.132-0.096,0.197-0.133c0.055-0.031,0.114-0.062,0.179-0.088
	c0.064-0.026,0.13-0.051,0.198-0.073l0.332,0.31l-0.021,0.022c-0.044,0.003-0.1,0.009-0.167,0.018
	c-0.066,0.009-0.141,0.025-0.223,0.05c-0.079,0.026-0.155,0.062-0.232,0.107c-0.077,0.044-0.152,0.107-0.229,0.188
	c-0.082,0.088-0.141,0.188-0.179,0.3c-0.037,0.112-0.048,0.231-0.034,0.355c0.017,0.125,0.062,0.253,0.138,0.385
	s0.18,0.259,0.314,0.384c0.14,0.132,0.279,0.229,0.413,0.29s0.264,0.097,0.389,0.103c0.123,0.006,0.237-0.012,0.344-0.058
	c0.106-0.046,0.201-0.112,0.283-0.198c0.073-0.08,0.132-0.163,0.177-0.248c0.042-0.086,0.075-0.168,0.094-0.249
	c0.02-0.077,0.031-0.148,0.036-0.214c0.004-0.064,0.006-0.118,0.004-0.158l0.02-0.021l0.327,0.306
	c-0.021,0.065-0.041,0.128-0.059,0.186c-0.019,0.058-0.046,0.125-0.081,0.199c-0.038,0.078-0.074,0.147-0.112,0.209
	C49.302,63.994,49.245,64.066,49.168,64.149L49.168,64.149z"/>
<polygon fill="#FFFFFF" points="50.137,62.973 47.912,61.232 49,59.84 49.264,60.045 48.406,61.143 49.016,61.62 49.816,60.597 
	50.08,60.803 49.28,61.826 50.105,62.472 50.962,61.375 51.226,61.58 50.137,62.973 "/>
<polygon fill="#FFFFFF" points="52.74,59.312 52.51,59.665 49.788,59.384 51.828,60.713 51.637,61.007 49.269,59.467 49.561,59.019 
	52.055,59.286 50.181,58.067 50.373,57.773 52.74,59.312 "/>
<polygon fill="#FFFFFF" points="53.487,57.987 51.294,56.802 50.843,57.636 50.551,57.478 51.632,55.477 51.925,55.636 
	51.473,56.471 53.667,57.656 53.487,57.987 "/>
<path fill="#FFFFFF" d="M53.08,54.21c-0.074-0.034-0.147-0.051-0.217-0.051c-0.07,0.001-0.135,0.021-0.198,0.06
	c-0.054,0.034-0.102,0.081-0.145,0.14c-0.042,0.06-0.085,0.136-0.128,0.231l-0.153,0.34l0.971,0.438l0.135-0.303
	c0.044-0.097,0.076-0.189,0.094-0.275c0.019-0.086,0.013-0.17-0.017-0.249c-0.025-0.072-0.067-0.135-0.124-0.188
	C53.243,54.298,53.17,54.251,53.08,54.21L53.08,54.21z M55.263,54.306l-0.2,0.443l-1.392,0.354l-0.177,0.393l1.024,0.462
	L54.365,56.3l-2.577-1.161l0.3-0.664c0.066-0.147,0.131-0.269,0.191-0.36c0.061-0.093,0.141-0.171,0.24-0.234
	s0.206-0.102,0.32-0.112c0.114-0.012,0.24,0.013,0.375,0.073c0.189,0.085,0.326,0.205,0.41,0.358
	c0.083,0.153,0.119,0.325,0.104,0.519L55.263,54.306L55.263,54.306z"/>
<g>
	<defs>
		<rect id="SVGID_3_" x="0" y="0.067" width="141.324" height="72.839"/>
	</defs>
	<clipPath id="SVGID_4_">
		<use xlink:href="#SVGID_3_"  overflow="visible"/>
	</clipPath>
	<polygon clip-path="url(#SVGID_4_)" fill="#FFFFFF" points="55.448,53.818 52.802,52.825 53.424,51.169 53.737,51.285 
		53.246,52.591 53.97,52.863 54.427,51.648 54.739,51.763 54.283,52.979 55.268,53.348 55.756,52.043 56.068,52.16 55.448,53.818 	
		"/>
	<path clip-path="url(#SVGID_4_)" fill="#FFFFFF" d="M2.509,44.274c0.007,0.158-0.013,0.305-0.061,0.439s-0.121,0.254-0.222,0.354
		c-0.101,0.102-0.229,0.183-0.383,0.242c-0.155,0.061-0.333,0.095-0.538,0.104c-0.202,0.009-0.38-0.008-0.532-0.053
		c-0.153-0.046-0.287-0.113-0.403-0.208c-0.113-0.092-0.201-0.201-0.264-0.331c-0.062-0.13-0.098-0.275-0.105-0.438
		c-0.003-0.081,0-0.157,0.008-0.229c0.009-0.071,0.021-0.137,0.037-0.199c0.014-0.052,0.031-0.107,0.054-0.162
		c0.022-0.056,0.046-0.111,0.074-0.165l0.389-0.018l0.001,0.026c-0.025,0.029-0.054,0.066-0.089,0.113
		c-0.036,0.045-0.069,0.102-0.102,0.166c-0.031,0.063-0.056,0.133-0.075,0.205c-0.019,0.073-0.025,0.158-0.021,0.254
		c0.005,0.103,0.031,0.199,0.077,0.289c0.046,0.089,0.112,0.167,0.198,0.233c0.086,0.064,0.191,0.112,0.317,0.145
		s0.268,0.045,0.424,0.038c0.165-0.009,0.308-0.034,0.425-0.08c0.118-0.045,0.216-0.104,0.295-0.177
		c0.077-0.071,0.134-0.152,0.17-0.244c0.037-0.094,0.052-0.191,0.047-0.292c-0.004-0.094-0.019-0.18-0.045-0.257
		c-0.026-0.078-0.058-0.147-0.095-0.208c-0.036-0.057-0.073-0.106-0.11-0.148c-0.037-0.042-0.069-0.075-0.095-0.099l-0.001-0.024
		l0.384-0.018c0.027,0.053,0.054,0.102,0.079,0.147c0.024,0.046,0.049,0.102,0.074,0.168c0.026,0.07,0.046,0.134,0.061,0.193
		S2.504,44.178,2.509,44.274L2.509,44.274z"/>
</g>
<polygon fill="#FFFFFF" points="2.438,43.202 0.019,43.129 0.065,41.614 0.351,41.622 0.314,42.817 0.977,42.836 1.011,41.722 
	1.297,41.731 1.264,42.845 2.161,42.871 2.198,41.677 2.485,41.686 2.438,43.202 "/>
<polygon fill="#FFFFFF" points="2.684,39.585 2.651,39.944 0.471,40.812 2.55,41.009 2.521,41.308 0.111,41.078 0.154,40.624 
	2.154,39.836 0.245,39.656 0.273,39.358 2.684,39.585 "/>
<polygon fill="#FFFFFF" points="2.885,38.522 0.786,38.121 0.634,38.921 0.353,38.867 0.718,36.953 0.999,37.007 0.847,37.806 
	2.946,38.206 2.885,38.522 "/>
<path fill="#FFFFFF" d="M1.799,35.549c-0.067-0.019-0.131-0.023-0.191-0.013c-0.059,0.01-0.113,0.034-0.16,0.076
	c-0.041,0.036-0.076,0.082-0.104,0.136c-0.028,0.055-0.054,0.127-0.078,0.214L1.182,36.27l0.88,0.241l0.075-0.274
	c0.024-0.089,0.039-0.171,0.042-0.248c0.004-0.075-0.012-0.145-0.047-0.208c-0.032-0.057-0.075-0.104-0.129-0.143
	C1.948,35.601,1.881,35.571,1.799,35.549L1.799,35.549z M3.659,35.337L3.55,35.74l-1.131,0.486l-0.097,0.355l0.929,0.254
	l-0.085,0.311l-2.336-0.638l0.164-0.603c0.037-0.134,0.075-0.245,0.114-0.33c0.039-0.087,0.097-0.164,0.173-0.231
	c0.075-0.067,0.159-0.113,0.255-0.138c0.095-0.025,0.204-0.021,0.327,0.012c0.172,0.047,0.304,0.13,0.395,0.248
	c0.091,0.119,0.144,0.26,0.159,0.425L3.659,35.337L3.659,35.337z"/>
<polygon fill="#FFFFFF" points="3.737,35.142 1.456,34.326 1.968,32.9 2.238,32.996 1.836,34.119 2.46,34.343 2.834,33.297 
	3.105,33.393 2.731,34.439 3.575,34.741 3.977,33.619 4.247,33.715 3.737,35.142 "/>
<path fill="#FFFFFF" d="M5.777,30.619c-0.076,0.14-0.169,0.254-0.28,0.345c-0.11,0.09-0.236,0.152-0.375,0.187
	c-0.138,0.034-0.29,0.036-0.453,0.007c-0.164-0.029-0.334-0.093-0.514-0.191c-0.177-0.097-0.32-0.205-0.428-0.323
	c-0.107-0.117-0.186-0.246-0.237-0.386c-0.049-0.137-0.066-0.277-0.053-0.42c0.014-0.144,0.061-0.288,0.139-0.431
	c0.039-0.071,0.081-0.135,0.126-0.191c0.044-0.057,0.09-0.107,0.135-0.151c0.04-0.038,0.083-0.076,0.13-0.112
	c0.048-0.036,0.097-0.071,0.148-0.103l0.341,0.187L4.446,29.06c-0.037,0.012-0.082,0.028-0.135,0.05
	c-0.054,0.021-0.112,0.051-0.174,0.091c-0.059,0.037-0.115,0.083-0.169,0.136c-0.054,0.054-0.104,0.122-0.149,0.206
	c-0.05,0.09-0.078,0.186-0.085,0.287c-0.007,0.101,0.008,0.202,0.047,0.302c0.039,0.1,0.105,0.196,0.195,0.289
	c0.091,0.093,0.206,0.178,0.342,0.252c0.146,0.08,0.281,0.131,0.405,0.154c0.125,0.022,0.239,0.023,0.345,0.002
	c0.103-0.021,0.193-0.061,0.273-0.121c0.08-0.06,0.144-0.135,0.193-0.224c0.045-0.082,0.077-0.163,0.095-0.243
	c0.018-0.08,0.027-0.156,0.026-0.227c-0.001-0.068-0.006-0.13-0.017-0.184c-0.01-0.056-0.02-0.1-0.03-0.134l0.012-0.021l0.336,0.184
	c-0.003,0.059-0.007,0.115-0.01,0.166c-0.002,0.053-0.011,0.114-0.024,0.182c-0.014,0.074-0.03,0.139-0.049,0.197
	C5.856,30.464,5.823,30.535,5.777,30.619L5.777,30.619z"/>
<path fill="#FFFFFF" d="M6.093,28.206l-1.157-0.313l0.749,0.937L6.093,28.206L6.093,28.206z M6.131,29.882l-1.578-2.011l0.219-0.331
	l2.471,0.644L7.057,28.47L6.37,28.282l-0.506,0.772l0.446,0.555L6.131,29.882L6.131,29.882z"/>
<polygon fill="#FFFFFF" points="8.459,26.619 8.237,26.905 5.933,26.463 7.579,27.746 7.394,27.985 5.485,26.495 5.766,26.135 
	7.876,26.547 6.365,25.368 6.55,25.13 8.459,26.619 "/>
<path fill="#FFFFFF" d="M8.857,24.76l-1.093-0.499l0.587,1.047L8.857,24.76L8.857,24.76z M8.621,26.419l-1.229-2.241l0.268-0.291
	l2.333,1.041l-0.229,0.25l-0.646-0.297l-0.626,0.681l0.349,0.619L8.621,26.419L8.621,26.419z"/>
<path fill="#FFFFFF" d="M10.513,22.796c-0.126-0.137-0.256-0.233-0.391-0.289c-0.135-0.055-0.272-0.069-0.411-0.04
	c-0.098,0.02-0.191,0.054-0.278,0.103c-0.086,0.049-0.184,0.122-0.29,0.221l-0.181,0.166l1.263,1.373l0.181-0.166
	c0.105-0.097,0.189-0.189,0.253-0.279c0.063-0.089,0.107-0.186,0.13-0.292c0.031-0.131,0.024-0.262-0.02-0.393
	C10.726,23.069,10.64,22.935,10.513,22.796L10.513,22.796z M10.762,22.572c0.15,0.164,0.252,0.34,0.307,0.531
	c0.055,0.192,0.061,0.375,0.017,0.55c-0.038,0.139-0.094,0.261-0.169,0.366c-0.075,0.105-0.185,0.223-0.329,0.355l-0.41,0.378
	l-1.639-1.782l0.404-0.373c0.168-0.154,0.311-0.262,0.429-0.325c0.119-0.062,0.231-0.103,0.338-0.121
	c0.185-0.029,0.366-0.011,0.544,0.058C10.433,22.278,10.602,22.399,10.762,22.572L10.762,22.572z"/>
<polygon fill="#FFFFFF" points="12.542,22.702 11.806,23.292 11.652,23.1 11.894,22.906 10.687,21.401 10.445,21.595 10.29,21.403 
	11.026,20.813 11.18,21.005 10.938,21.199 12.145,22.703 12.388,22.51 12.542,22.702 "/>
<polygon fill="#FFFFFF" points="12.871,22.447 11.471,20.469 12.711,19.591 12.876,19.824 11.898,20.517 12.282,21.059 
	13.193,20.414 13.358,20.648 12.447,21.292 12.968,22.028 13.945,21.336 14.11,21.569 12.871,22.447 "/>
<polygon fill="#FFFFFF" points="15.913,20.478 15.602,20.663 13.613,19.416 14.68,21.211 14.421,21.365 13.183,19.284 13.576,19.05 
	15.396,20.199 14.415,18.551 14.675,18.396 15.913,20.478 "/>
<path fill="#FFFFFF" d="M19.324,17.623c-0.066-0.174-0.153-0.311-0.258-0.412c-0.105-0.1-0.228-0.163-0.367-0.188
	c-0.099-0.018-0.198-0.019-0.297-0.005c-0.099,0.014-0.216,0.047-0.353,0.099l-0.229,0.089l0.671,1.741l0.229-0.088
	c0.134-0.052,0.246-0.107,0.339-0.167c0.092-0.059,0.168-0.134,0.229-0.224c0.078-0.11,0.12-0.235,0.126-0.373
	C19.422,17.956,19.393,17.799,19.324,17.623L19.324,17.623z M19.639,17.507c0.079,0.206,0.109,0.409,0.09,0.607
	c-0.02,0.197-0.082,0.371-0.187,0.518c-0.087,0.116-0.184,0.208-0.293,0.278s-0.254,0.14-0.438,0.21l-0.521,0.201l-0.87-2.261
	l0.515-0.197c0.213-0.083,0.386-0.13,0.519-0.146c0.133-0.015,0.253-0.01,0.359,0.013c0.183,0.04,0.346,0.124,0.487,0.253
	C19.441,17.112,19.554,17.287,19.639,17.507L19.639,17.507z"/>
<polygon fill="#FFFFFF" points="20.434,18.527 19.749,16.205 21.204,15.776 21.285,16.049 20.14,16.387 20.328,17.024 
	21.395,16.708 21.476,16.982 20.408,17.297 20.663,18.162 21.808,17.825 21.889,18.098 20.434,18.527 "/>
<path fill="#FFFFFF" d="M25.289,15.712c-0.009-0.069-0.029-0.13-0.061-0.181c-0.031-0.051-0.076-0.09-0.132-0.118
	c-0.049-0.024-0.104-0.038-0.166-0.043c-0.062-0.004-0.137-0.001-0.227,0.01l-0.317,0.04l0.115,0.903l0.281-0.036
	c0.092-0.011,0.173-0.03,0.245-0.056c0.071-0.025,0.129-0.067,0.175-0.123c0.04-0.052,0.068-0.11,0.081-0.174
	C25.298,15.87,25.299,15.797,25.289,15.712L25.289,15.712z M26.198,17.35l-0.414,0.053l-0.882-0.858l-0.366,0.047l0.122,0.955
	l-0.319,0.041l-0.307-2.402l0.619-0.079c0.138-0.018,0.254-0.025,0.349-0.022c0.094,0.003,0.188,0.027,0.278,0.071
	c0.09,0.043,0.167,0.104,0.226,0.183c0.06,0.078,0.098,0.181,0.114,0.306c0.022,0.176-0.003,0.329-0.078,0.458
	c-0.074,0.129-0.184,0.233-0.331,0.31L26.198,17.35L26.198,17.35z"/>
<polygon fill="#FFFFFF" points="26.414,17.345 26.293,14.927 27.806,14.851 27.821,15.138 26.63,15.198 26.662,15.86 27.773,15.805 
	27.787,16.092 26.677,16.147 26.722,17.043 27.913,16.984 27.927,17.27 26.414,17.345 "/>
<path fill="#FFFFFF" d="M29.251,17.336c-0.158-0.004-0.303-0.034-0.435-0.091c-0.131-0.056-0.245-0.138-0.338-0.246
	c-0.093-0.108-0.165-0.241-0.215-0.399c-0.048-0.159-0.071-0.339-0.066-0.543c0.005-0.203,0.036-0.379,0.091-0.529
	c0.055-0.149,0.133-0.279,0.234-0.387c0.1-0.106,0.216-0.186,0.35-0.239s0.282-0.079,0.446-0.074
	c0.081,0.002,0.157,0.01,0.228,0.023c0.071,0.014,0.137,0.031,0.197,0.051c0.051,0.018,0.104,0.039,0.158,0.065
	s0.108,0.054,0.16,0.084l-0.01,0.389l-0.026,0c-0.028-0.027-0.063-0.059-0.106-0.097c-0.043-0.039-0.097-0.076-0.16-0.114
	c-0.062-0.035-0.128-0.064-0.199-0.088c-0.073-0.023-0.156-0.036-0.251-0.038c-0.104-0.003-0.202,0.015-0.294,0.056
	c-0.094,0.04-0.176,0.1-0.248,0.181c-0.07,0.08-0.126,0.182-0.167,0.307c-0.041,0.123-0.063,0.263-0.067,0.419
	c-0.004,0.166,0.012,0.31,0.049,0.43c0.037,0.12,0.09,0.223,0.156,0.307c0.065,0.082,0.143,0.144,0.233,0.188
	c0.09,0.042,0.186,0.065,0.288,0.068c0.093,0.001,0.18-0.008,0.259-0.027c0.08-0.021,0.151-0.048,0.213-0.082
	c0.061-0.032,0.113-0.065,0.157-0.099c0.044-0.034,0.079-0.064,0.104-0.088l0.024,0.001l-0.01,0.384
	c-0.054,0.023-0.105,0.046-0.152,0.067c-0.048,0.021-0.105,0.042-0.173,0.062c-0.071,0.021-0.137,0.037-0.197,0.047
	C29.426,17.334,29.347,17.338,29.251,17.336L29.251,17.336z"/>
<polygon fill="#FFFFFF" points="32.077,17.512 31.757,17.482 31.868,16.3 30.762,16.195 30.65,17.377 30.329,17.347 30.557,14.935 
	30.878,14.966 30.789,15.911 31.896,16.015 31.985,15.071 32.305,15.101 32.077,17.512 "/>
<polygon fill="#FFFFFF" points="32.584,17.605 33.031,15.225 34.521,15.505 34.469,15.786 33.295,15.565 33.171,16.217 
	34.266,16.424 34.214,16.704 33.119,16.498 32.953,17.383 34.127,17.604 34.073,17.885 32.584,17.605 "/>
<path fill="#FFFFFF" d="M36.029,16.597c0.019-0.067,0.023-0.131,0.013-0.191c-0.01-0.059-0.035-0.112-0.077-0.159
	c-0.037-0.041-0.083-0.075-0.138-0.104c-0.056-0.027-0.127-0.053-0.214-0.076l-0.309-0.083l-0.237,0.882l0.274,0.073
	c0.09,0.023,0.172,0.038,0.248,0.041c0.076,0.003,0.145-0.012,0.208-0.048c0.057-0.032,0.104-0.075,0.143-0.13
	C35.978,16.746,36.008,16.679,36.029,16.597L36.029,16.597z M36.25,18.455l-0.404-0.108l-0.491-1.127l-0.357-0.096l-0.249,0.93
	l-0.311-0.083l0.626-2.338l0.604,0.162c0.134,0.036,0.245,0.073,0.332,0.113c0.086,0.04,0.164,0.095,0.23,0.171
	c0.069,0.075,0.114,0.159,0.141,0.255c0.024,0.096,0.021,0.205-0.011,0.327c-0.045,0.172-0.127,0.304-0.246,0.395
	c-0.118,0.093-0.259,0.146-0.424,0.161L36.25,18.455L36.25,18.455z"/>
<path fill="#FFFFFF" d="M37.329,18.891c-0.149-0.053-0.277-0.126-0.385-0.221c-0.107-0.095-0.188-0.208-0.245-0.339
	c-0.055-0.132-0.082-0.28-0.078-0.446c0.001-0.167,0.037-0.346,0.106-0.537c0.067-0.191,0.151-0.349,0.25-0.474
	c0.1-0.125,0.214-0.223,0.345-0.295c0.127-0.071,0.263-0.11,0.407-0.119c0.142-0.01,0.292,0.013,0.446,0.068
	c0.077,0.028,0.146,0.059,0.209,0.093c0.064,0.035,0.121,0.072,0.171,0.11c0.043,0.032,0.086,0.069,0.131,0.111
	c0.042,0.041,0.084,0.085,0.125,0.13l-0.13,0.366l-0.025-0.009c-0.018-0.034-0.042-0.077-0.07-0.125
	c-0.03-0.05-0.069-0.102-0.118-0.157c-0.046-0.053-0.101-0.101-0.162-0.146c-0.061-0.045-0.137-0.083-0.227-0.116
	c-0.096-0.034-0.196-0.046-0.296-0.038c-0.101,0.009-0.199,0.04-0.292,0.095c-0.092,0.054-0.177,0.135-0.253,0.239
	c-0.078,0.105-0.143,0.231-0.196,0.378c-0.055,0.157-0.084,0.298-0.087,0.424c-0.002,0.126,0.016,0.239,0.053,0.341
	c0.037,0.098,0.09,0.182,0.163,0.251c0.072,0.069,0.157,0.12,0.253,0.153c0.088,0.032,0.172,0.05,0.255,0.055
	c0.082,0.005,0.158,0.001,0.228-0.011c0.068-0.012,0.127-0.026,0.181-0.046c0.053-0.019,0.095-0.035,0.126-0.051l0.023,0.008
	l-0.129,0.363c-0.058,0.005-0.113,0.011-0.166,0.016c-0.052,0.006-0.112,0.007-0.184,0.006c-0.074-0.001-0.142-0.007-0.202-0.016
	C37.495,18.944,37.419,18.924,37.329,18.891L37.329,18.891z"/>
<polygon fill="#FFFFFF" points="39.955,19.95 39.661,19.817 40.149,18.739 39.136,18.281 38.648,19.359 38.356,19.226 39.354,17.02 
	39.647,17.154 39.254,18.019 40.268,18.478 40.659,17.612 40.953,17.745 39.955,19.95 "/>
<polygon fill="#FFFFFF" points="40.412,20.188 41.584,18.07 42.912,18.805 42.774,19.056 41.728,18.477 41.406,19.057 42.38,19.596 
	42.241,19.847 41.267,19.309 40.833,20.093 41.878,20.672 41.74,20.924 40.412,20.188 "/>
<polygon fill="#FFFFFF" points="43.826,22.314 45.313,20.402 46.509,21.331 46.332,21.557 45.393,20.826 44.986,21.35 45.86,22.031 
	45.685,22.257 44.809,21.576 44.257,22.285 45.198,23.016 45.022,23.243 43.826,22.314 "/>
<polygon fill="#FFFFFF" points="46.587,24.65 46.321,24.407 46.938,22.143 45.53,23.685 45.309,23.483 46.943,21.695 47.278,22.002 
	46.704,24.075 47.999,22.66 48.219,22.862 46.587,24.65 "/>
<path fill="#FFFFFF" d="M48.264,26.541c-0.103-0.12-0.177-0.248-0.223-0.384c-0.046-0.135-0.061-0.274-0.044-0.416
	c0.018-0.142,0.068-0.284,0.153-0.426c0.085-0.143,0.205-0.28,0.359-0.412c0.154-0.132,0.305-0.228,0.454-0.287
	c0.147-0.059,0.296-0.087,0.445-0.084c0.146,0.002,0.283,0.035,0.412,0.099c0.129,0.063,0.247,0.158,0.353,0.282
	c0.054,0.061,0.098,0.123,0.136,0.185c0.037,0.062,0.068,0.122,0.093,0.179c0.022,0.051,0.041,0.104,0.059,0.162
	c0.016,0.057,0.03,0.116,0.043,0.175l-0.295,0.253l-0.018-0.02c0.001-0.039,0.001-0.086,0-0.144c0-0.057-0.008-0.122-0.023-0.193
	c-0.015-0.069-0.038-0.137-0.069-0.206c-0.031-0.069-0.078-0.141-0.141-0.213c-0.066-0.078-0.146-0.138-0.238-0.181
	c-0.092-0.043-0.192-0.064-0.299-0.063c-0.107,0.002-0.221,0.029-0.339,0.081c-0.119,0.052-0.239,0.129-0.356,0.23
	c-0.125,0.108-0.222,0.216-0.286,0.325c-0.066,0.107-0.106,0.215-0.124,0.321c-0.017,0.103-0.012,0.203,0.018,0.298
	c0.027,0.095,0.075,0.182,0.142,0.26c0.061,0.07,0.125,0.128,0.192,0.174c0.069,0.045,0.138,0.081,0.203,0.105
	c0.064,0.023,0.124,0.041,0.179,0.05c0.055,0.01,0.1,0.017,0.135,0.02l0.017,0.019l-0.291,0.248
	c-0.054-0.024-0.104-0.046-0.152-0.067c-0.048-0.021-0.103-0.05-0.163-0.087c-0.063-0.038-0.118-0.078-0.167-0.115
	C48.383,26.669,48.327,26.614,48.264,26.541L48.264,26.541z"/>
<path fill="#FFFFFF" d="M50.412,27.685l0.699-0.973l-1.139,0.372L50.412,27.685L50.412,27.685z M48.829,27.131l2.437-0.769
	l0.234,0.32l-1.475,2.087l-0.201-0.275l0.415-0.574l-0.545-0.747l-0.673,0.221L48.829,27.131L48.829,27.131z"/>
<path fill="#FFFFFF" d="M52.262,29.082c0.059-0.037,0.106-0.081,0.14-0.131c0.033-0.049,0.051-0.106,0.053-0.168
	c0.002-0.054-0.007-0.112-0.03-0.169c-0.021-0.058-0.055-0.126-0.103-0.203l-0.168-0.272l-0.776,0.478l0.149,0.241
	c0.048,0.079,0.099,0.146,0.152,0.2c0.052,0.054,0.114,0.09,0.184,0.108c0.064,0.016,0.128,0.017,0.193,0.003
	C52.122,29.155,52.19,29.126,52.262,29.082L52.262,29.082z M51.145,30.586l-0.219-0.356l0.418-1.158l-0.195-0.315l-0.82,0.505
	l-0.168-0.274l2.062-1.271l0.328,0.533c0.072,0.118,0.127,0.221,0.164,0.31c0.036,0.088,0.053,0.183,0.051,0.284
	c-0.002,0.1-0.026,0.194-0.074,0.282c-0.047,0.087-0.124,0.163-0.232,0.23c-0.152,0.093-0.303,0.132-0.451,0.118
	c-0.149-0.014-0.289-0.073-0.418-0.175L51.145,30.586L51.145,30.586z"/>
<path fill="#FFFFFF" d="M53.036,31.637c0.166-0.084,0.294-0.183,0.384-0.298c0.089-0.115,0.139-0.243,0.15-0.384
	c0.008-0.1,0-0.198-0.025-0.295c-0.022-0.097-0.068-0.211-0.134-0.342l-0.111-0.219l-1.665,0.841l0.111,0.22
	c0.063,0.128,0.13,0.234,0.199,0.32c0.068,0.085,0.15,0.154,0.246,0.206c0.119,0.065,0.246,0.095,0.385,0.088
	C52.714,31.767,52.867,31.721,53.036,31.637L53.036,31.637z M53.183,31.939c-0.198,0.1-0.396,0.149-0.595,0.15
	c-0.199,0-0.377-0.045-0.534-0.134c-0.124-0.075-0.226-0.163-0.306-0.264s-0.165-0.239-0.253-0.415l-0.251-0.498l2.159-1.092
	l0.249,0.493c0.104,0.203,0.168,0.37,0.196,0.501c0.029,0.131,0.036,0.25,0.024,0.359c-0.021,0.186-0.089,0.356-0.203,0.509
	C53.556,31.702,53.393,31.832,53.183,31.939L53.183,31.939z"/>
<polygon fill="#FFFFFF" points="52.57,33.611 52.206,32.745 52.433,32.649 52.552,32.933 54.328,32.183 54.209,31.899 
	54.436,31.803 54.802,32.668 54.573,32.764 54.454,32.48 52.678,33.23 52.798,33.514 52.57,33.611 "/>
<path fill="#FFFFFF" d="M54.419,35.179c0.151-0.051,0.28-0.113,0.386-0.187c0.106-0.072,0.188-0.152,0.243-0.238
	c0.059-0.087,0.093-0.181,0.103-0.279c0.011-0.099-0.002-0.203-0.039-0.309c-0.038-0.111-0.09-0.201-0.157-0.271
	c-0.066-0.069-0.151-0.122-0.254-0.158c-0.099-0.033-0.212-0.047-0.341-0.039c-0.129,0.009-0.269,0.039-0.418,0.089
	c-0.301,0.103-0.51,0.245-0.626,0.425c-0.117,0.181-0.139,0.376-0.066,0.589c0.073,0.213,0.21,0.354,0.413,0.425
	C53.865,35.299,54.117,35.283,54.419,35.179L54.419,35.179z M55.317,34.921c-0.071,0.122-0.173,0.232-0.306,0.331
	c-0.131,0.099-0.292,0.181-0.483,0.246C54.342,35.562,54.166,35.595,54,35.6c-0.165,0.004-0.313-0.021-0.447-0.076
	c-0.138-0.057-0.254-0.139-0.347-0.247c-0.094-0.108-0.167-0.236-0.217-0.386c-0.053-0.155-0.075-0.304-0.066-0.446
	c0.011-0.142,0.053-0.275,0.126-0.399c0.07-0.124,0.172-0.235,0.306-0.333c0.132-0.097,0.292-0.178,0.48-0.242
	c0.192-0.066,0.37-0.101,0.531-0.103c0.163-0.002,0.311,0.024,0.446,0.076c0.131,0.053,0.245,0.133,0.341,0.24
	c0.095,0.106,0.169,0.237,0.222,0.391c0.053,0.156,0.075,0.306,0.063,0.45C55.426,34.669,55.385,34.801,55.317,34.921L55.317,34.921
	z"/>
<polygon fill="#FFFFFF" points="53.82,37.613 53.47,36.254 55.816,35.653 55.897,35.965 53.827,36.495 54.096,37.542 53.82,37.613 
	"/>
<path fill="#FFFFFF" d="M55.356,39.292c0.158-0.028,0.295-0.07,0.41-0.125c0.117-0.056,0.209-0.121,0.279-0.197
	c0.071-0.077,0.119-0.164,0.145-0.261s0.029-0.199,0.009-0.311c-0.02-0.115-0.058-0.213-0.113-0.292
	c-0.056-0.079-0.13-0.144-0.227-0.195c-0.091-0.049-0.203-0.079-0.332-0.092c-0.129-0.012-0.27-0.004-0.425,0.022
	c-0.313,0.055-0.542,0.162-0.685,0.323c-0.143,0.16-0.195,0.352-0.156,0.572c0.037,0.221,0.152,0.383,0.341,0.484
	S55.042,39.347,55.356,39.292L55.356,39.292z M56.284,39.176c-0.089,0.107-0.207,0.202-0.353,0.279
	c-0.145,0.076-0.318,0.133-0.518,0.168c-0.193,0.034-0.372,0.04-0.536,0.018c-0.165-0.021-0.308-0.07-0.431-0.145
	c-0.128-0.077-0.23-0.178-0.306-0.297c-0.075-0.121-0.127-0.26-0.153-0.415c-0.03-0.162-0.027-0.312,0.004-0.451
	c0.032-0.138,0.094-0.265,0.186-0.376c0.089-0.11,0.208-0.204,0.354-0.279c0.147-0.076,0.317-0.133,0.513-0.167
	c0.2-0.034,0.382-0.041,0.542-0.017c0.16,0.022,0.303,0.071,0.428,0.144c0.122,0.072,0.222,0.17,0.299,0.29
	c0.079,0.12,0.131,0.261,0.16,0.421c0.028,0.162,0.024,0.313-0.008,0.455C56.431,38.943,56.37,39.068,56.284,39.176L56.284,39.176z"
	/>
<path fill="#FFFFFF" d="M54.298,41.222c-0.013-0.172-0.001-0.33,0.039-0.477c0.041-0.146,0.11-0.273,0.206-0.384
	c0.099-0.11,0.225-0.2,0.378-0.266c0.153-0.068,0.333-0.11,0.538-0.128c0.195-0.016,0.371-0.004,0.53,0.038s0.296,0.109,0.415,0.201
	c0.113,0.09,0.206,0.204,0.275,0.343s0.111,0.293,0.126,0.465c0.006,0.08,0.006,0.158,0.001,0.234
	c-0.006,0.076-0.016,0.147-0.031,0.218c-0.012,0.056-0.03,0.118-0.052,0.186c-0.023,0.069-0.042,0.125-0.061,0.168l-0.386,0.033
	l-0.003-0.027c0.033-0.044,0.062-0.088,0.091-0.134c0.029-0.045,0.058-0.107,0.087-0.188c0.027-0.067,0.047-0.145,0.062-0.229
	c0.015-0.087,0.018-0.179,0.01-0.275c-0.02-0.233-0.123-0.413-0.311-0.542c-0.187-0.128-0.425-0.181-0.715-0.156
	c-0.162,0.014-0.303,0.045-0.42,0.093c-0.119,0.047-0.216,0.11-0.295,0.19c-0.078,0.076-0.134,0.163-0.169,0.266
	c-0.035,0.102-0.048,0.213-0.038,0.336c0.007,0.091,0.022,0.18,0.041,0.269c0.021,0.09,0.048,0.163,0.079,0.222l0.625-0.051
	l-0.047-0.56l0.282-0.024l0.074,0.877l-1.054,0.088c-0.023-0.04-0.051-0.092-0.084-0.158s-0.061-0.129-0.083-0.188
	c-0.03-0.075-0.054-0.146-0.072-0.209C54.318,41.388,54.305,41.312,54.298,41.222L54.298,41.222z"/>
<polygon fill="#FFFFFF" points="54.428,43.289 54.413,42.35 54.66,42.346 54.665,42.655 56.594,42.623 56.589,42.316 56.835,42.311 
	56.851,43.251 56.604,43.255 56.599,42.946 54.67,42.977 54.675,43.285 54.428,43.289 "/>
<polygon fill="#FFFFFF" points="54.429,43.712 56.847,43.82 56.779,45.334 56.494,45.322 56.547,44.127 55.885,44.098 
	55.834,45.213 55.549,45.2 55.599,44.084 54.701,44.046 54.648,45.24 54.361,45.228 54.429,43.712 "/>
<path fill="#FFFFFF" d="M70.407,28.689c-0.046-0.054-0.104-0.081-0.173-0.081c-0.039,0-0.117,0.05-0.237,0.151
	c-0.12,0.101-0.29,0.212-0.509,0.333c-0.22,0.122-0.5,0.229-0.839,0.323c-0.34,0.094-0.751,0.142-1.238,0.142
	c-0.54,0-1.033-0.077-1.481-0.231c-0.446-0.155-0.83-0.376-1.15-0.666c-0.32-0.289-0.569-0.632-0.747-1.029
	c-0.176-0.397-0.265-0.831-0.265-1.3c0-0.394,0.083-0.768,0.25-1.123c0.165-0.355,0.404-0.669,0.716-0.943
	c0.313-0.274,0.69-0.492,1.134-0.654c0.444-0.162,0.943-0.242,1.498-0.242c0.385,0,0.729,0.033,1.029,0.098
	c0.301,0.065,0.564,0.137,0.788,0.214c0.223,0.076,0.407,0.148,0.549,0.214s0.242,0.098,0.296,0.098c0.061,0,0.1-0.009,0.114-0.029
	c0.017-0.02,0.035-0.044,0.059-0.075l0.139,0.092l-0.717,1.238l-0.15-0.07c0.038-0.038,0.057-0.088,0.057-0.15
	c0-0.061-0.057-0.141-0.173-0.237s-0.274-0.189-0.474-0.278c-0.201-0.088-0.436-0.166-0.706-0.231
	c-0.271-0.065-0.559-0.098-0.868-0.098c-0.309,0-0.619,0.044-0.931,0.132c-0.312,0.088-0.59,0.224-0.833,0.41
	c-0.243,0.185-0.442,0.421-0.596,0.709c-0.154,0.289-0.231,0.633-0.231,1.033c0,0.346,0.079,0.663,0.237,0.952
	c0.159,0.289,0.368,0.537,0.631,0.744c0.262,0.208,0.562,0.37,0.897,0.484c0.335,0.117,0.68,0.173,1.035,0.173
	c0.277,0,0.542-0.04,0.792-0.121c0.252-0.081,0.472-0.18,0.666-0.296c0.192-0.115,0.348-0.232,0.462-0.352
	c0.115-0.119,0.174-0.218,0.174-0.295c0-0.069-0.02-0.123-0.059-0.163l0.15-0.092l0.856,1.11L70.407,28.689L70.407,28.689z"/>
<path fill="#FFFFFF" d="M71.911,24.895c0-0.131-0.017-0.218-0.052-0.26c-0.035-0.042-0.106-0.064-0.214-0.064v-0.139h4.662
	c0.115,0,0.192-0.021,0.23-0.063c0.04-0.042,0.059-0.114,0.059-0.214h0.139v1.202h-0.139c0-0.099-0.02-0.171-0.059-0.214
	c-0.038-0.042-0.115-0.063-0.23-0.063h-3.632v1.504h2.556c0.116,0,0.193-0.021,0.231-0.064c0.04-0.042,0.058-0.113,0.058-0.214
	h0.139v1.203h-0.139c0-0.101-0.018-0.172-0.058-0.214c-0.039-0.042-0.116-0.063-0.231-0.063h-2.556v1.643h3.76
	c0.115,0,0.192-0.022,0.23-0.064c0.039-0.042,0.058-0.114,0.058-0.214h0.14v1.168h-0.14c0-0.101-0.019-0.166-0.058-0.197
	c-0.039-0.031-0.116-0.046-0.23-0.046h-4.79v-0.139c0.108,0,0.179-0.021,0.214-0.064c0.035-0.042,0.052-0.128,0.052-0.26V24.895
	L71.911,24.895z"/>
<path fill="#FFFFFF" d="M77.822,29.383c0.123,0,0.206-0.021,0.249-0.064c0.042-0.042,0.063-0.128,0.063-0.26v-4.164
	c0-0.131-0.021-0.218-0.063-0.26c-0.043-0.042-0.126-0.064-0.249-0.064v-0.139h1.689v0.139c-0.125,0-0.207,0.01-0.249,0.03
	c-0.043,0.019-0.064,0.044-0.064,0.075c0,0.023,0.042,0.088,0.127,0.196l3.134,3.598v-3.575c0-0.131-0.021-0.218-0.063-0.26
	c-0.042-0.042-0.125-0.064-0.249-0.064v-0.139h1.273v0.139c-0.125,0-0.207,0.021-0.249,0.064c-0.043,0.042-0.064,0.129-0.064,0.26
	v4.164c0,0.132,0.021,0.218,0.064,0.26c0.042,0.043,0.125,0.064,0.249,0.064v0.139H81.87v-0.139c0.153,0,0.247-0.007,0.278-0.023
	s0.045-0.042,0.045-0.081s-0.013-0.071-0.04-0.098c-0.027-0.027-0.06-0.064-0.099-0.11l-3.272-3.736v3.725
	c0,0.132,0.021,0.218,0.063,0.26c0.043,0.043,0.125,0.064,0.249,0.064v0.139h-1.273V29.383L77.822,29.383z"/>
<path fill="#FFFFFF" d="M88.961,25.358c0-0.099-0.02-0.171-0.059-0.214c-0.038-0.042-0.115-0.063-0.23-0.063h-1.794v3.979
	c0,0.132,0.018,0.218,0.052,0.26c0.035,0.043,0.114,0.064,0.237,0.064v0.139h-1.342v-0.139c0.124,0,0.203-0.021,0.237-0.064
	c0.035-0.042,0.052-0.128,0.052-0.26V25.08h-1.793c-0.116,0-0.192,0.022-0.231,0.063c-0.039,0.042-0.058,0.115-0.058,0.214h-0.139
	v-1.202h0.139c0,0.1,0.019,0.171,0.058,0.214c0.039,0.042,0.116,0.063,0.231,0.063h4.35c0.115,0,0.192-0.021,0.23-0.063
	c0.039-0.042,0.059-0.114,0.059-0.214H89.1v1.202H88.961L88.961,25.358z"/>
<path fill="#FFFFFF" d="M93.078,26.584c0.278,0,0.474-0.062,0.59-0.186c0.116-0.123,0.173-0.312,0.173-0.566
	c0-0.278-0.059-0.48-0.178-0.608c-0.12-0.127-0.353-0.19-0.701-0.19h-2.348v1.55H93.078L93.078,26.584z M90.615,29.059
	c0,0.132,0.018,0.218,0.052,0.26c0.034,0.043,0.114,0.064,0.237,0.064v0.139h-1.295v-0.139c0.124,0,0.202-0.021,0.237-0.064
	c0.035-0.042,0.052-0.128,0.052-0.26v-4.164c0-0.131-0.017-0.218-0.052-0.26c-0.035-0.042-0.113-0.064-0.237-0.064v-0.139h3.54
	c0.509,0,0.879,0.127,1.11,0.382c0.232,0.254,0.347,0.602,0.347,1.041c0,0.447-0.122,0.785-0.365,1.012
	c-0.242,0.228-0.587,0.349-1.035,0.365l1.273,1.943c0.054,0.084,0.1,0.14,0.139,0.167c0.037,0.027,0.088,0.04,0.149,0.04v0.139
	h-1.249v-0.139c0.084,0,0.137-0.005,0.156-0.017c0.02-0.012,0.03-0.037,0.03-0.076c0-0.038-0.012-0.076-0.035-0.115
	c-0.023-0.04-0.054-0.093-0.092-0.163l-1.133-1.781h-1.828V29.059L90.615,29.059z"/>
<path fill="#FFFFFF" d="M96.074,24.895c0-0.131-0.018-0.218-0.052-0.26c-0.035-0.042-0.106-0.064-0.214-0.064v-0.139h4.661
	c0.116,0,0.193-0.021,0.231-0.063c0.038-0.042,0.058-0.114,0.058-0.214h0.139v1.202h-0.139c0-0.099-0.02-0.171-0.058-0.214
	c-0.039-0.042-0.115-0.063-0.231-0.063h-3.632v1.504h2.556c0.116,0,0.193-0.021,0.231-0.064c0.039-0.042,0.058-0.113,0.058-0.214
	h0.139v1.203h-0.139c0-0.101-0.019-0.172-0.058-0.214c-0.039-0.042-0.115-0.063-0.231-0.063h-2.556v1.643h3.759
	c0.116,0,0.193-0.022,0.231-0.064s0.058-0.114,0.058-0.214h0.139v1.168h-0.139c0-0.101-0.02-0.166-0.058-0.197
	c-0.039-0.031-0.116-0.046-0.231-0.046h-4.789v-0.139c0.108,0,0.179-0.021,0.214-0.064c0.034-0.042,0.052-0.128,0.052-0.26V24.895
	L96.074,24.895z"/>
<path fill="#FFFFFF" d="M70.407,39.204c-0.046-0.053-0.104-0.08-0.173-0.08c-0.039,0-0.117,0.051-0.237,0.15
	c-0.12,0.101-0.29,0.213-0.509,0.333c-0.22,0.123-0.5,0.229-0.839,0.323c-0.34,0.094-0.751,0.142-1.238,0.142
	c-0.54,0-1.033-0.077-1.481-0.231c-0.446-0.154-0.83-0.375-1.15-0.665c-0.32-0.289-0.569-0.633-0.747-1.03
	c-0.176-0.397-0.265-0.83-0.265-1.301c0-0.393,0.083-0.767,0.25-1.122c0.165-0.354,0.404-0.669,0.716-0.943
	c0.313-0.273,0.69-0.492,1.134-0.653c0.444-0.162,0.943-0.243,1.498-0.243c0.385,0,0.729,0.033,1.029,0.098
	c0.301,0.065,0.564,0.137,0.788,0.214c0.223,0.077,0.407,0.149,0.549,0.214c0.142,0.065,0.242,0.098,0.296,0.098
	c0.061,0,0.1-0.009,0.114-0.028c0.017-0.019,0.035-0.045,0.059-0.075l0.139,0.092l-0.717,1.238l-0.15-0.07
	c0.038-0.039,0.057-0.088,0.057-0.15c0-0.062-0.057-0.14-0.173-0.237c-0.116-0.096-0.274-0.188-0.474-0.277
	c-0.201-0.088-0.436-0.166-0.706-0.231c-0.271-0.065-0.559-0.098-0.868-0.098c-0.309,0-0.619,0.044-0.931,0.132
	c-0.312,0.088-0.59,0.225-0.833,0.409c-0.243,0.186-0.442,0.421-0.596,0.71c-0.154,0.288-0.231,0.633-0.231,1.033
	c0,0.347,0.079,0.663,0.237,0.951c0.159,0.289,0.368,0.537,0.631,0.744c0.262,0.209,0.562,0.37,0.897,0.485
	c0.335,0.115,0.68,0.173,1.035,0.173c0.277,0,0.542-0.041,0.792-0.121c0.252-0.081,0.472-0.18,0.666-0.295
	c0.192-0.116,0.348-0.234,0.462-0.353c0.115-0.12,0.174-0.219,0.174-0.295c0-0.069-0.02-0.124-0.059-0.163l0.15-0.093l0.856,1.111
	L70.407,39.204L70.407,39.204z"/>
<path fill="#FFFFFF" d="M72.57,37.886h2.256l-1.168-2.429L72.57,37.886L72.57,37.886z M70.778,39.898
	c0.123,0,0.206-0.026,0.249-0.08s0.083-0.123,0.121-0.208l1.828-4.187c0.039-0.093,0.057-0.159,0.057-0.197
	s-0.021-0.072-0.063-0.104c-0.043-0.031-0.117-0.051-0.227-0.058v-0.116h1.875v0.139c-0.062,0-0.121,0.01-0.179,0.029
	c-0.058,0.019-0.087,0.055-0.087,0.109c0,0.039,0.01,0.078,0.029,0.116c0.019,0.039,0.036,0.077,0.052,0.116l1.978,4.21
	c0.024,0.055,0.058,0.106,0.104,0.155c0.047,0.051,0.131,0.075,0.255,0.075v0.14h-1.458v-0.14c0.14,0,0.231-0.011,0.278-0.034
	c0.045-0.022,0.068-0.057,0.068-0.104c0-0.054-0.007-0.101-0.023-0.139c-0.016-0.039-0.031-0.078-0.045-0.115l-0.474-0.972h-2.812
	l-0.393,0.879c-0.031,0.069-0.064,0.134-0.099,0.196c-0.034,0.062-0.051,0.112-0.051,0.15c0,0.047,0.023,0.081,0.069,0.104
	c0.046,0.023,0.128,0.034,0.244,0.034v0.14h-1.296V39.898L70.778,39.898z"/>
<path fill="#FFFFFF" d="M77.186,39.898c0.123,0,0.206-0.021,0.249-0.063c0.042-0.041,0.063-0.128,0.063-0.26v-4.164
	c0-0.131-0.021-0.218-0.063-0.26c-0.042-0.043-0.126-0.064-0.249-0.064v-0.139h1.688v0.139c-0.122,0-0.206,0.01-0.248,0.029
	c-0.042,0.019-0.064,0.044-0.064,0.075c0,0.023,0.043,0.088,0.127,0.196l3.136,3.598v-3.574c0-0.131-0.021-0.218-0.064-0.26
	c-0.042-0.043-0.126-0.064-0.249-0.064v-0.139h1.272v0.139c-0.123,0-0.207,0.021-0.249,0.064c-0.042,0.042-0.064,0.129-0.064,0.26
	v4.164c0,0.132,0.021,0.219,0.064,0.26c0.042,0.043,0.126,0.063,0.249,0.063v0.14h-1.549v-0.14c0.154,0,0.247-0.007,0.277-0.022
	c0.031-0.016,0.046-0.043,0.046-0.08c0-0.039-0.013-0.071-0.041-0.099c-0.027-0.027-0.059-0.063-0.099-0.11l-3.273-3.736v3.724
	c0,0.132,0.021,0.219,0.063,0.26c0.042,0.043,0.125,0.063,0.249,0.063v0.14h-1.272V39.898L77.186,39.898z"/>
<path fill="#FFFFFF" d="M84.981,37.886h2.256l-1.168-2.429L84.981,37.886L84.981,37.886z M83.189,39.898
	c0.123,0,0.206-0.026,0.248-0.08s0.083-0.123,0.122-0.208l1.828-4.187c0.039-0.093,0.058-0.159,0.058-0.197
	s-0.021-0.072-0.063-0.104c-0.043-0.031-0.119-0.051-0.226-0.058v-0.116h1.874v0.139c-0.062,0-0.122,0.01-0.179,0.029
	c-0.059,0.019-0.087,0.055-0.087,0.109c0,0.039,0.009,0.078,0.028,0.116c0.02,0.039,0.037,0.077,0.052,0.116l1.979,4.21
	c0.023,0.055,0.057,0.106,0.104,0.155c0.047,0.051,0.131,0.075,0.254,0.075v0.14h-1.457v-0.14c0.139,0,0.232-0.011,0.278-0.034
	c0.046-0.022,0.069-0.057,0.069-0.104c0-0.054-0.007-0.101-0.023-0.139c-0.015-0.039-0.031-0.078-0.046-0.115l-0.474-0.972h-2.812
	l-0.393,0.879c-0.03,0.069-0.063,0.134-0.099,0.196c-0.035,0.062-0.051,0.112-0.051,0.15c0,0.047,0.023,0.081,0.069,0.104
	c0.046,0.023,0.127,0.034,0.243,0.034v0.14h-1.295V39.898L83.189,39.898z"/>
<path fill="#FFFFFF" d="M92.211,39.39c0.363,0,0.669-0.051,0.919-0.151c0.25-0.099,0.456-0.236,0.613-0.409
	c0.159-0.175,0.275-0.375,0.347-0.602c0.073-0.229,0.11-0.474,0.11-0.735s-0.037-0.506-0.11-0.734
	c-0.072-0.227-0.188-0.428-0.347-0.601c-0.157-0.173-0.362-0.311-0.613-0.411c-0.25-0.1-0.557-0.15-0.919-0.15h-1.654v3.794H92.211
	L92.211,39.39z M89.84,35.411c0-0.131-0.018-0.218-0.053-0.26c-0.035-0.043-0.114-0.064-0.237-0.064v-0.139h2.799
	c0.454,0,0.848,0.066,1.179,0.197c0.332,0.131,0.604,0.311,0.815,0.537c0.212,0.229,0.368,0.496,0.469,0.805
	c0.1,0.308,0.15,0.642,0.15,1.005c0,0.355-0.05,0.688-0.15,1.001c-0.101,0.312-0.256,0.582-0.469,0.81
	c-0.211,0.228-0.483,0.407-0.815,0.538c-0.332,0.131-0.725,0.196-1.179,0.196h-2.799v-0.14c0.123,0,0.202-0.021,0.237-0.063
	c0.035-0.041,0.053-0.128,0.053-0.26V35.411L89.84,35.411z"/>
<path fill="#FFFFFF" d="M96.005,39.898c0.124,0,0.202-0.021,0.237-0.063c0.035-0.041,0.052-0.128,0.052-0.26v-4.164
	c0-0.131-0.017-0.218-0.052-0.26c-0.035-0.043-0.113-0.064-0.237-0.064v-0.139H97.3v0.139c-0.123,0-0.203,0.021-0.237,0.064
	c-0.034,0.042-0.052,0.129-0.052,0.26v4.164c0,0.132,0.018,0.219,0.052,0.26c0.034,0.043,0.114,0.063,0.237,0.063v0.14h-1.295
	V39.898L96.005,39.898z"/>
<path fill="#FFFFFF" d="M99.07,35.411c0-0.131-0.016-0.218-0.052-0.26c-0.034-0.043-0.105-0.064-0.214-0.064v-0.139h4.663
	c0.115,0,0.192-0.021,0.231-0.064c0.039-0.042,0.058-0.114,0.058-0.213h0.14v1.202h-0.14c0-0.1-0.019-0.171-0.058-0.214
	c-0.039-0.042-0.116-0.063-0.231-0.063h-3.632v1.503h2.557c0.116,0,0.192-0.021,0.231-0.063c0.038-0.042,0.058-0.114,0.058-0.214
	h0.139v1.203h-0.139c0-0.1-0.02-0.172-0.058-0.214c-0.039-0.042-0.116-0.063-0.231-0.063h-2.557v1.643h3.759
	c0.116,0,0.194-0.021,0.232-0.063c0.039-0.043,0.057-0.115,0.057-0.214h0.139v1.168h-0.139c0-0.101-0.019-0.165-0.057-0.196
	c-0.038-0.031-0.116-0.047-0.232-0.047h-4.789v-0.14c0.109,0,0.18-0.021,0.214-0.063c0.036-0.041,0.052-0.128,0.052-0.26V35.411
	L99.07,35.411z"/>
<path fill="#FFFFFF" d="M104.981,39.898c0.122,0,0.206-0.021,0.248-0.063c0.042-0.041,0.064-0.128,0.064-0.26v-4.164
	c0-0.131-0.021-0.218-0.064-0.26c-0.042-0.043-0.126-0.064-0.248-0.064v-0.139h1.688v0.139c-0.124,0-0.207,0.01-0.25,0.029
	c-0.042,0.019-0.063,0.044-0.063,0.075c0,0.023,0.043,0.088,0.127,0.196l3.135,3.598v-3.574c0-0.131-0.021-0.218-0.063-0.26
	c-0.043-0.043-0.126-0.064-0.25-0.064v-0.139h1.272v0.139c-0.123,0-0.206,0.021-0.248,0.064c-0.043,0.042-0.063,0.129-0.063,0.26
	v4.164c0,0.132,0.021,0.219,0.063,0.26c0.042,0.043,0.125,0.063,0.248,0.063v0.14h-1.549v-0.14c0.153,0,0.247-0.007,0.277-0.022
	c0.032-0.016,0.047-0.043,0.047-0.08c0-0.039-0.013-0.071-0.041-0.099c-0.027-0.027-0.06-0.063-0.098-0.11l-3.273-3.736v3.724
	c0,0.132,0.021,0.219,0.064,0.26c0.042,0.043,0.125,0.063,0.248,0.063v0.14h-1.271V39.898L104.981,39.898z"/>
<path fill="#FFFFFF" d="M67.747,49.79c0.678,0,1.188-0.193,1.526-0.579c0.34-0.386,0.51-0.952,0.51-1.701
	c0-0.747-0.195-1.313-0.585-1.699c-0.389-0.386-0.943-0.578-1.659-0.578h-2.244v4.558H67.747L67.747,49.79z M64.323,44.885
	c0-0.084-0.019-0.152-0.057-0.201c-0.04-0.051-0.112-0.076-0.22-0.076v-0.139h3.586c0.479,0,0.908,0.075,1.29,0.225
	c0.382,0.151,0.706,0.36,0.972,0.631s0.472,0.592,0.619,0.966c0.146,0.375,0.219,0.781,0.219,1.22c0,0.441-0.062,0.847-0.185,1.221
	c-0.124,0.374-0.307,0.696-0.549,0.967c-0.244,0.27-0.544,0.479-0.902,0.63c-0.359,0.15-0.774,0.225-1.245,0.225h-3.805v-0.138
	c0.108,0,0.181-0.024,0.22-0.075c0.039-0.051,0.057-0.117,0.057-0.202V44.885L64.323,44.885z"/>
<path fill="#FFFFFF" d="M71.911,45.926c0-0.131-0.017-0.218-0.052-0.261c-0.035-0.042-0.106-0.062-0.214-0.062v-0.14h4.662
	c0.115,0,0.192-0.021,0.23-0.063c0.04-0.042,0.059-0.113,0.059-0.213h0.139v1.202h-0.139c0-0.1-0.02-0.172-0.059-0.214
	c-0.038-0.043-0.115-0.063-0.23-0.063h-3.632v1.504h2.556c0.116,0,0.193-0.021,0.231-0.064c0.04-0.042,0.058-0.114,0.058-0.214
	h0.139v1.203h-0.139c0-0.101-0.018-0.173-0.058-0.213c-0.039-0.043-0.116-0.064-0.231-0.064h-2.556v1.643h3.76
	c0.115,0,0.192-0.021,0.23-0.063c0.039-0.042,0.058-0.114,0.058-0.215h0.14v1.168h-0.14c0-0.1-0.019-0.165-0.058-0.196
	c-0.039-0.031-0.116-0.047-0.23-0.047h-4.79v-0.138c0.108,0,0.179-0.021,0.214-0.063c0.035-0.042,0.052-0.129,0.052-0.261V45.926
	L71.911,45.926z"/>
<path fill="#FFFFFF" d="M84.415,47.128c0.47,0,0.802-0.087,0.994-0.265c0.193-0.178,0.289-0.421,0.289-0.729
	c0-0.154-0.02-0.285-0.057-0.394c-0.04-0.107-0.108-0.197-0.209-0.271c-0.1-0.074-0.237-0.128-0.41-0.163
	c-0.173-0.033-0.396-0.052-0.665-0.052h-2.476v1.873H84.415L84.415,47.128z M81.881,50.137c0,0.085,0.019,0.151,0.058,0.202
	c0.039,0.051,0.112,0.075,0.22,0.075v0.138h-1.527v-0.138c0.108,0,0.181-0.024,0.22-0.075c0.039-0.051,0.059-0.117,0.059-0.202
	v-5.252c0-0.084-0.02-0.152-0.059-0.201c-0.039-0.051-0.112-0.076-0.22-0.076v-0.139h3.875c0.764,0,1.311,0.145,1.643,0.434
	c0.331,0.29,0.498,0.707,0.498,1.255c0,0.486-0.127,0.872-0.382,1.157s-0.671,0.466-1.249,0.543l1.458,2.256
	c0.084,0.123,0.152,0.204,0.202,0.243c0.049,0.038,0.133,0.058,0.248,0.058v0.138h-1.666v-0.138c0.101,0,0.164-0.008,0.191-0.023
	c0.028-0.016,0.041-0.042,0.041-0.081c0-0.047-0.02-0.088-0.059-0.128l-1.422-2.267h-2.128V50.137L81.881,50.137z"/>
<path fill="#FFFFFF" d="M88.266,45.926c0-0.131-0.017-0.218-0.052-0.261c-0.034-0.042-0.106-0.062-0.214-0.062v-0.14h4.662
	c0.116,0,0.192-0.021,0.232-0.063c0.038-0.042,0.057-0.113,0.057-0.213h0.139v1.202h-0.139c0-0.1-0.02-0.172-0.057-0.214
	c-0.04-0.043-0.116-0.063-0.232-0.063H89.03v1.504h2.557c0.115,0,0.192-0.021,0.23-0.064c0.04-0.042,0.059-0.114,0.059-0.214h0.139
	v1.203h-0.139c0-0.101-0.02-0.173-0.059-0.213c-0.038-0.043-0.115-0.064-0.23-0.064H89.03v1.643h3.76
	c0.116,0,0.192-0.021,0.231-0.063c0.038-0.042,0.058-0.114,0.058-0.215h0.139v1.168h-0.139c0-0.1-0.02-0.165-0.058-0.196
	c-0.039-0.031-0.116-0.047-0.231-0.047H88v-0.138c0.107,0,0.18-0.021,0.214-0.063c0.036-0.042,0.052-0.129,0.052-0.261V45.926
	L88.266,45.926z"/>
<path fill="#FFFFFF" d="M98.213,46.898c0.017-0.046,0.024-0.076,0.024-0.092v-0.104c0-0.046-0.05-0.106-0.15-0.18
	c-0.1-0.073-0.234-0.146-0.399-0.22c-0.166-0.074-0.352-0.134-0.555-0.185c-0.204-0.051-0.411-0.076-0.619-0.076
	c-0.331,0-0.628,0.053-0.891,0.157c-0.262,0.104-0.486,0.247-0.671,0.427c-0.185,0.183-0.326,0.392-0.422,0.631
	s-0.145,0.493-0.145,0.765c0,0.27,0.048,0.52,0.145,0.751c0.097,0.23,0.235,0.43,0.417,0.596c0.181,0.166,0.395,0.296,0.643,0.393
	c0.246,0.098,0.521,0.146,0.821,0.146c0.301,0,0.569-0.031,0.804-0.093s0.434-0.137,0.596-0.227c0.163-0.087,0.285-0.177,0.37-0.266
	c0.085-0.088,0.127-0.155,0.127-0.201c0-0.086-0.015-0.163-0.045-0.231l0.114-0.07l0.811,1.063l-0.127,0.093
	c-0.062-0.046-0.108-0.075-0.139-0.087c-0.03-0.011-0.057-0.017-0.08-0.017c-0.07,0-0.165,0.038-0.284,0.116
	c-0.119,0.077-0.275,0.162-0.468,0.254c-0.193,0.093-0.422,0.174-0.689,0.242c-0.265,0.069-0.583,0.104-0.954,0.104
	c-0.393,0-0.761-0.052-1.104-0.155c-0.343-0.104-0.643-0.266-0.897-0.486c-0.253-0.22-0.454-0.491-0.601-0.815
	c-0.146-0.324-0.219-0.694-0.219-1.109c0-0.417,0.075-0.787,0.226-1.111s0.356-0.598,0.619-0.821
	c0.262-0.224,0.566-0.396,0.914-0.515c0.346-0.12,0.717-0.18,1.11-0.18c0.331,0,0.605,0.02,0.821,0.058
	c0.216,0.04,0.439,0.102,0.671,0.186c0.154,0.054,0.281,0.104,0.38,0.15c0.101,0.046,0.178,0.07,0.232,0.07
	c0.062,0,0.123-0.043,0.184-0.128l0.139,0.047l-0.567,1.19L98.213,46.898L98.213,46.898z"/>
<path fill="#FFFFFF" d="M105.004,50.09c0,0.132,0.018,0.219,0.052,0.261c0.035,0.043,0.113,0.063,0.237,0.063v0.138h-1.296v-0.138
	c0.124,0,0.203-0.021,0.237-0.063c0.035-0.042,0.052-0.129,0.052-0.261v-1.921h-3.493v1.921c0,0.132,0.018,0.219,0.052,0.261
	c0.035,0.043,0.114,0.063,0.237,0.063v0.138h-1.295v-0.138c0.124,0,0.202-0.021,0.237-0.063c0.036-0.042,0.052-0.129,0.052-0.261
	v-4.164c0-0.131-0.016-0.218-0.052-0.261c-0.035-0.042-0.113-0.062-0.237-0.062v-0.14h1.295v0.14c-0.123,0-0.202,0.021-0.237,0.062
	c-0.034,0.043-0.052,0.13-0.052,0.261v1.597h3.493v-1.597c0-0.131-0.017-0.218-0.052-0.261c-0.034-0.042-0.113-0.062-0.237-0.062
	v-0.14h1.296v0.14c-0.124,0-0.203,0.021-0.237,0.062c-0.035,0.043-0.052,0.13-0.052,0.261V50.09L105.004,50.09z"/>
<path fill="#FFFFFF" d="M106.878,45.926c0-0.131-0.018-0.218-0.052-0.261c-0.034-0.042-0.106-0.062-0.214-0.062v-0.14h4.661
	c0.116,0,0.193-0.021,0.232-0.063c0.038-0.042,0.057-0.113,0.057-0.213h0.139v1.202h-0.139c0-0.1-0.019-0.172-0.057-0.214
	c-0.039-0.043-0.116-0.063-0.232-0.063h-3.632v1.504h2.557c0.116,0,0.193-0.021,0.231-0.064c0.039-0.042,0.058-0.114,0.058-0.214
	h0.139v1.203h-0.139c0-0.101-0.02-0.173-0.058-0.213c-0.039-0.043-0.115-0.064-0.231-0.064h-2.557v1.643h3.759
	c0.116,0,0.193-0.021,0.232-0.063c0.038-0.042,0.058-0.114,0.058-0.215h0.139v1.168h-0.139c0-0.1-0.02-0.165-0.058-0.196
	c-0.039-0.031-0.116-0.047-0.232-0.047h-4.789v-0.138c0.107,0,0.18-0.021,0.214-0.063c0.034-0.042,0.052-0.129,0.052-0.261V45.926
	L106.878,45.926z"/>
<path fill="#FFFFFF" d="M116.282,47.615c0.276,0,0.474-0.062,0.59-0.185c0.114-0.125,0.173-0.312,0.173-0.567
	c0-0.278-0.061-0.48-0.18-0.608c-0.12-0.126-0.353-0.189-0.699-0.189h-2.349v1.55H116.282L116.282,47.615z M113.818,50.09
	c0,0.132,0.017,0.219,0.052,0.261c0.035,0.043,0.113,0.063,0.237,0.063v0.138h-1.296v-0.138c0.124,0,0.203-0.021,0.238-0.063
	c0.034-0.042,0.052-0.129,0.052-0.261v-4.164c0-0.131-0.018-0.218-0.052-0.261c-0.035-0.042-0.115-0.062-0.238-0.062v-0.14h3.54
	c0.509,0,0.879,0.128,1.111,0.383c0.23,0.254,0.346,0.602,0.346,1.04c0,0.448-0.121,0.785-0.364,1.013
	c-0.243,0.227-0.588,0.349-1.035,0.364l1.271,1.943c0.054,0.085,0.101,0.141,0.139,0.168c0.039,0.026,0.088,0.04,0.15,0.04v0.138
	h-1.248v-0.138c0.084,0,0.136-0.005,0.155-0.018c0.02-0.012,0.029-0.037,0.029-0.075s-0.011-0.077-0.034-0.115
	c-0.024-0.039-0.055-0.093-0.094-0.162l-1.133-1.781h-1.828V50.09L113.818,50.09z"/>
<path fill="#FFFFFF" d="M123.025,46.898c0.016-0.046,0.023-0.076,0.023-0.092v-0.104c0-0.046-0.05-0.106-0.15-0.18
	c-0.101-0.073-0.234-0.146-0.398-0.22c-0.167-0.074-0.352-0.134-0.556-0.185c-0.204-0.051-0.411-0.076-0.619-0.076
	c-0.331,0-0.627,0.053-0.89,0.157c-0.261,0.104-0.485,0.247-0.67,0.427c-0.186,0.183-0.327,0.392-0.423,0.631
	c-0.096,0.239-0.144,0.493-0.144,0.765c0,0.27,0.047,0.52,0.144,0.751c0.097,0.23,0.235,0.43,0.417,0.596
	c0.181,0.166,0.395,0.296,0.642,0.393c0.247,0.098,0.521,0.146,0.821,0.146s0.569-0.031,0.804-0.093s0.434-0.137,0.595-0.227
	c0.162-0.087,0.286-0.177,0.371-0.266c0.084-0.088,0.128-0.155,0.128-0.201c0-0.086-0.016-0.163-0.047-0.231l0.115-0.07l0.81,1.063
	l-0.126,0.093c-0.062-0.046-0.108-0.075-0.139-0.087c-0.031-0.011-0.058-0.017-0.082-0.017c-0.068,0-0.164,0.038-0.283,0.116
	c-0.12,0.077-0.276,0.162-0.469,0.254c-0.193,0.093-0.421,0.174-0.688,0.242c-0.267,0.069-0.584,0.104-0.954,0.104
	c-0.394,0-0.762-0.052-1.105-0.155c-0.342-0.104-0.641-0.266-0.896-0.486c-0.255-0.22-0.455-0.491-0.601-0.815
	c-0.147-0.324-0.221-0.694-0.221-1.109c0-0.417,0.075-0.787,0.226-1.111c0.151-0.324,0.356-0.598,0.619-0.821
	c0.262-0.224,0.567-0.396,0.914-0.515c0.348-0.12,0.716-0.18,1.11-0.18c0.332,0,0.605,0.02,0.822,0.058
	c0.216,0.04,0.439,0.102,0.671,0.186c0.154,0.054,0.281,0.104,0.381,0.15c0.1,0.046,0.178,0.07,0.232,0.07
	c0.061,0,0.123-0.043,0.185-0.128l0.14,0.047l-0.567,1.19L123.025,46.898L123.025,46.898z"/>
<path fill="#FFFFFF" d="M129.815,50.09c0,0.132,0.016,0.219,0.052,0.261c0.035,0.043,0.113,0.063,0.237,0.063v0.138h-1.296v-0.138
	c0.123,0,0.203-0.021,0.237-0.063c0.034-0.042,0.052-0.129,0.052-0.261v-1.921h-3.493v1.921c0,0.132,0.017,0.219,0.053,0.261
	c0.034,0.043,0.112,0.063,0.236,0.063v0.138h-1.295v-0.138c0.123,0,0.203-0.021,0.237-0.063c0.035-0.042,0.052-0.129,0.052-0.261
	v-4.164c0-0.131-0.018-0.218-0.052-0.261c-0.034-0.042-0.114-0.062-0.237-0.062v-0.14h1.295v0.14c-0.124,0-0.202,0.021-0.236,0.062
	c-0.036,0.043-0.053,0.13-0.053,0.261v1.597h3.493v-1.597c0-0.131-0.018-0.218-0.052-0.261c-0.035-0.042-0.115-0.062-0.237-0.062
	v-0.14h1.296v0.14c-0.124,0-0.203,0.021-0.237,0.062c-0.036,0.043-0.052,0.13-0.052,0.261V50.09L129.815,50.09z"/>
<path fill="#FFFFFF" d="M131.689,45.926c0-0.131-0.018-0.218-0.052-0.261c-0.035-0.042-0.106-0.062-0.214-0.062v-0.14h4.661
	c0.117,0,0.193-0.021,0.232-0.063c0.038-0.042,0.057-0.113,0.057-0.213h0.14v1.202h-0.14c0-0.1-0.019-0.172-0.057-0.214
	c-0.04-0.043-0.116-0.063-0.232-0.063h-3.632v1.504h2.557c0.115,0,0.191-0.021,0.231-0.064c0.039-0.042,0.059-0.114,0.059-0.214
	h0.137v1.203h-0.137c0-0.101-0.02-0.173-0.059-0.213c-0.04-0.043-0.116-0.064-0.231-0.064h-2.557v1.643h3.76
	c0.116,0,0.192-0.021,0.23-0.063c0.04-0.042,0.059-0.114,0.059-0.215h0.139v1.168h-0.139c0-0.1-0.02-0.165-0.059-0.196
	c-0.038-0.031-0.114-0.047-0.23-0.047h-4.789v-0.138c0.108,0,0.18-0.021,0.214-0.063c0.034-0.042,0.052-0.129,0.052-0.261V45.926
	L131.689,45.926z"/>
<path fill="#FFFFFF" d="M64.485,55.4c0-0.083-0.02-0.151-0.058-0.201c-0.039-0.051-0.111-0.075-0.22-0.075v-0.139h4.847
	c0.201,0,0.326-0.017,0.381-0.053c0.054-0.035,0.081-0.095,0.081-0.18h0.139v1.319h-0.139c0-0.101-0.031-0.179-0.092-0.237
	c-0.062-0.058-0.182-0.087-0.359-0.087h-3.609v1.827h2.348c0.139,0,0.253-0.022,0.341-0.068c0.089-0.046,0.134-0.131,0.134-0.255
	h0.139v1.4h-0.139c0-0.116-0.035-0.198-0.104-0.244c-0.07-0.046-0.185-0.068-0.347-0.068h-2.372v1.966h3.864
	c0.162,0,0.281-0.029,0.357-0.087c0.077-0.058,0.116-0.159,0.116-0.307h0.139v1.377h-0.139c0-0.147-0.135-0.22-0.405-0.22h-5.182
	v-0.14c0.109,0,0.181-0.024,0.22-0.075c0.039-0.049,0.058-0.116,0.058-0.201V55.4L64.485,55.4z"/>
<path fill="#FFFFFF" d="M70.985,60.929c0.124,0,0.206-0.021,0.249-0.062s0.064-0.129,0.064-0.261v-4.164
	c0-0.132-0.021-0.218-0.064-0.26c-0.042-0.043-0.125-0.064-0.249-0.064v-0.14h1.689v0.14c-0.124,0-0.208,0.01-0.249,0.029
	c-0.042,0.02-0.063,0.045-0.063,0.076c0,0.022,0.042,0.087,0.126,0.195l3.135,3.598v-3.574c0-0.132-0.021-0.218-0.063-0.26
	c-0.043-0.043-0.125-0.064-0.249-0.064v-0.14h1.273v0.14c-0.124,0-0.207,0.021-0.248,0.064c-0.043,0.042-0.064,0.128-0.064,0.26
	v4.164c0,0.132,0.021,0.219,0.064,0.261c0.042,0.042,0.124,0.062,0.248,0.062v0.14h-1.55v-0.14c0.153,0,0.247-0.007,0.277-0.022
	c0.031-0.016,0.046-0.043,0.046-0.08c0-0.039-0.013-0.071-0.04-0.099c-0.026-0.027-0.059-0.064-0.099-0.11l-3.272-3.736v3.725
	c0,0.132,0.021,0.219,0.063,0.261c0.042,0.042,0.124,0.062,0.248,0.062v0.14h-1.272V60.929L70.985,60.929z"/>
<path fill="#FFFFFF" d="M86.775,60.236c-0.047-0.054-0.104-0.08-0.174-0.08c-0.038,0-0.119,0.051-0.238,0.15
	c-0.119,0.101-0.289,0.213-0.508,0.333c-0.22,0.122-0.5,0.229-0.838,0.323c-0.339,0.094-0.752,0.142-1.238,0.142
	c-0.541,0-1.034-0.077-1.48-0.232c-0.448-0.153-0.832-0.375-1.151-0.664c-0.32-0.29-0.569-0.632-0.746-1.03
	c-0.178-0.396-0.266-0.83-0.266-1.302c0-0.392,0.082-0.767,0.248-1.121c0.167-0.354,0.406-0.669,0.717-0.943
	c0.312-0.273,0.689-0.491,1.134-0.653c0.444-0.161,0.943-0.242,1.499-0.242c0.385,0,0.729,0.032,1.029,0.099
	c0.3,0.064,0.563,0.137,0.786,0.213c0.224,0.077,0.407,0.148,0.55,0.214c0.143,0.065,0.241,0.099,0.295,0.099
	c0.062,0,0.099-0.009,0.116-0.028c0.015-0.02,0.034-0.046,0.057-0.076l0.139,0.093l-0.718,1.238l-0.15-0.07
	c0.04-0.038,0.058-0.088,0.058-0.149c0-0.062-0.058-0.141-0.174-0.237c-0.115-0.097-0.273-0.188-0.474-0.278
	c-0.2-0.087-0.435-0.165-0.706-0.23c-0.27-0.065-0.559-0.099-0.867-0.099s-0.619,0.044-0.932,0.133
	c-0.312,0.089-0.589,0.225-0.833,0.409c-0.242,0.186-0.44,0.421-0.596,0.71c-0.154,0.288-0.23,0.633-0.23,1.032
	c0,0.347,0.079,0.664,0.237,0.952c0.157,0.288,0.368,0.537,0.63,0.744c0.262,0.209,0.561,0.37,0.896,0.484
	c0.336,0.115,0.681,0.173,1.036,0.173c0.277,0,0.541-0.04,0.792-0.121c0.25-0.08,0.472-0.18,0.665-0.296
	c0.192-0.114,0.346-0.232,0.462-0.352c0.116-0.119,0.173-0.219,0.173-0.294c0-0.07-0.02-0.124-0.057-0.163l0.15-0.093l0.855,1.11
	L86.775,60.236L86.775,60.236z"/>
<path fill="#FFFFFF" d="M88.937,58.917h2.255l-1.168-2.429L88.937,58.917L88.937,58.917z M87.144,60.929
	c0.123,0,0.206-0.027,0.248-0.081c0.042-0.053,0.083-0.123,0.123-0.207l1.827-4.188c0.039-0.093,0.059-0.159,0.059-0.196
	c0-0.039-0.021-0.073-0.064-0.104c-0.043-0.031-0.118-0.051-0.226-0.058v-0.117h1.874v0.14c-0.062,0-0.122,0.01-0.179,0.029
	c-0.058,0.02-0.086,0.056-0.086,0.11c0,0.037,0.01,0.077,0.028,0.115c0.019,0.038,0.037,0.077,0.052,0.116l1.979,4.21
	c0.023,0.055,0.057,0.106,0.104,0.155c0.046,0.051,0.131,0.075,0.254,0.075v0.14h-1.458v-0.14c0.139,0,0.232-0.012,0.278-0.034
	c0.047-0.023,0.07-0.059,0.07-0.104c0-0.053-0.008-0.1-0.023-0.138c-0.016-0.04-0.031-0.078-0.047-0.117l-0.474-0.97h-2.811
	l-0.394,0.879c-0.031,0.069-0.063,0.134-0.098,0.196c-0.035,0.062-0.052,0.112-0.052,0.149c0,0.046,0.023,0.081,0.069,0.104
	c0.047,0.022,0.127,0.034,0.243,0.034v0.14h-1.295V60.929L87.144,60.929z"/>
<path fill="#FFFFFF" d="M97.045,58.13c0.278,0,0.475-0.061,0.59-0.185c0.116-0.124,0.174-0.312,0.174-0.566
	c0-0.277-0.06-0.481-0.179-0.607c-0.12-0.128-0.353-0.191-0.7-0.191h-2.348v1.55H97.045L97.045,58.13z M94.582,60.606
	c0,0.132,0.017,0.219,0.052,0.261s0.114,0.062,0.237,0.062v0.14h-1.295v-0.14c0.124,0,0.202-0.021,0.237-0.062
	c0.035-0.042,0.052-0.129,0.052-0.261v-4.164c0-0.132-0.017-0.218-0.052-0.26c-0.036-0.043-0.114-0.064-0.237-0.064v-0.14h3.54
	c0.509,0,0.879,0.128,1.11,0.383c0.231,0.254,0.347,0.602,0.347,1.041c0,0.447-0.122,0.785-0.365,1.012
	c-0.243,0.229-0.588,0.35-1.036,0.364l1.273,1.944c0.054,0.085,0.1,0.14,0.139,0.167c0.038,0.027,0.088,0.04,0.15,0.04v0.14h-1.25
	v-0.14c0.085,0,0.137-0.005,0.157-0.018c0.02-0.011,0.029-0.036,0.029-0.075c0-0.037-0.012-0.076-0.036-0.114
	c-0.023-0.039-0.054-0.094-0.091-0.163l-1.134-1.781h-1.827V60.606L94.582,60.606z"/>
<path fill="#FFFFFF" d="M102.367,60.421c0.362,0,0.668-0.051,0.92-0.151c0.25-0.1,0.454-0.236,0.612-0.409
	c0.159-0.174,0.274-0.375,0.347-0.602c0.073-0.229,0.11-0.474,0.11-0.734c0-0.263-0.037-0.508-0.11-0.736
	c-0.073-0.227-0.188-0.428-0.347-0.601c-0.158-0.173-0.363-0.311-0.612-0.411c-0.251-0.1-0.558-0.15-0.92-0.15h-1.654v3.795H102.367
	L102.367,60.421z M99.996,56.442c0-0.132-0.018-0.218-0.052-0.26c-0.035-0.043-0.115-0.064-0.237-0.064v-0.14h2.799
	c0.454,0,0.848,0.066,1.18,0.198c0.332,0.131,0.603,0.311,0.815,0.537c0.212,0.228,0.369,0.495,0.469,0.805
	c0.1,0.308,0.15,0.644,0.15,1.007c0,0.354-0.051,0.688-0.15,1c-0.1,0.312-0.257,0.582-0.469,0.809
	c-0.213,0.228-0.484,0.408-0.815,0.538c-0.332,0.132-0.726,0.197-1.18,0.197h-2.799v-0.14c0.122,0,0.202-0.021,0.237-0.062
	c0.035-0.042,0.052-0.129,0.052-0.261V56.442L99.996,56.442z"/>
<path fill="#FFFFFF" d="M106.16,60.929c0.124,0,0.203-0.021,0.237-0.062c0.035-0.042,0.052-0.129,0.052-0.261v-4.164
	c0-0.132-0.017-0.218-0.052-0.26c-0.034-0.043-0.113-0.064-0.237-0.064v-0.14h1.295v0.14c-0.123,0-0.202,0.021-0.236,0.064
	c-0.035,0.042-0.053,0.128-0.053,0.26v4.164c0,0.132,0.018,0.219,0.053,0.261c0.034,0.042,0.113,0.062,0.236,0.062v0.14h-1.295
	V60.929L106.16,60.929z"/>
<path fill="#FFFFFF" d="M111.411,56.558c-0.331,0-0.63,0.05-0.897,0.149c-0.265,0.101-0.491,0.239-0.676,0.417
	c-0.185,0.177-0.328,0.385-0.428,0.625c-0.1,0.238-0.15,0.493-0.15,0.763c0,0.277,0.05,0.535,0.15,0.775
	c0.1,0.239,0.243,0.447,0.428,0.624c0.185,0.178,0.411,0.318,0.676,0.422c0.267,0.104,0.566,0.157,0.897,0.157
	c0.332,0,0.631-0.053,0.896-0.157c0.267-0.104,0.492-0.244,0.677-0.422c0.185-0.177,0.327-0.385,0.428-0.624
	c0.1-0.24,0.15-0.498,0.15-0.775c0-0.27-0.05-0.524-0.15-0.763c-0.101-0.24-0.243-0.448-0.428-0.625
	c-0.185-0.178-0.411-0.316-0.677-0.417C112.042,56.608,111.743,56.558,111.411,56.558L111.411,56.558z M111.411,55.909
	c0.448,0,0.85,0.068,1.209,0.208c0.357,0.14,0.665,0.326,0.919,0.562c0.254,0.234,0.449,0.51,0.584,0.827
	c0.135,0.315,0.202,0.655,0.202,1.019c0,0.361-0.067,0.701-0.202,1.017c-0.135,0.316-0.331,0.593-0.584,0.827
	c-0.254,0.235-0.562,0.417-0.919,0.543c-0.359,0.128-0.762,0.192-1.209,0.192s-0.849-0.064-1.209-0.192
	c-0.357-0.126-0.665-0.308-0.92-0.543c-0.253-0.234-0.449-0.511-0.583-0.827c-0.136-0.315-0.202-0.655-0.202-1.017
	c0-0.363,0.066-0.703,0.202-1.019c0.134-0.317,0.33-0.593,0.583-0.827c0.255-0.235,0.562-0.422,0.92-0.562
	C110.562,55.978,110.964,55.909,111.411,55.909L111.411,55.909z"/>
<path fill="#FFFFFF" d="M120.087,61.288c0-0.086-0.019-0.144-0.058-0.173c-0.04-0.031-0.116-0.047-0.231-0.047h-4.638v-0.14
	c0.123,0,0.202-0.021,0.237-0.062c0.034-0.042,0.052-0.129,0.052-0.261v-4.164c0-0.132-0.018-0.218-0.052-0.26
	c-0.035-0.043-0.114-0.064-0.237-0.064v-0.14h1.295v0.14c-0.124,0-0.202,0.021-0.238,0.064c-0.035,0.042-0.051,0.128-0.051,0.26
	v3.979h3.632c0.116,0,0.192-0.025,0.231-0.075c0.039-0.051,0.058-0.141,0.058-0.272h0.139v1.215H120.087L120.087,61.288z"/>
<path fill="#FFFFFF" d="M123.175,56.558c-0.332,0-0.63,0.05-0.896,0.149c-0.266,0.101-0.492,0.239-0.676,0.417
	c-0.185,0.177-0.328,0.385-0.429,0.625c-0.099,0.238-0.15,0.493-0.15,0.763c0,0.277,0.051,0.535,0.15,0.775
	c0.101,0.239,0.244,0.447,0.429,0.624c0.184,0.178,0.411,0.318,0.676,0.422c0.266,0.104,0.565,0.157,0.896,0.157
	c0.332,0,0.631-0.053,0.896-0.157c0.266-0.104,0.493-0.244,0.677-0.422c0.185-0.177,0.327-0.385,0.428-0.624
	c0.099-0.24,0.15-0.498,0.15-0.775c0-0.27-0.051-0.524-0.15-0.763c-0.101-0.24-0.244-0.448-0.428-0.625
	c-0.185-0.178-0.412-0.316-0.677-0.417C123.806,56.608,123.507,56.558,123.175,56.558L123.175,56.558z M123.175,55.909
	c0.447,0,0.85,0.068,1.209,0.208c0.358,0.14,0.665,0.326,0.919,0.562c0.254,0.234,0.449,0.51,0.584,0.827
	c0.135,0.315,0.203,0.655,0.203,1.019c0,0.361-0.068,0.701-0.203,1.017c-0.135,0.316-0.33,0.593-0.584,0.827
	c-0.254,0.235-0.561,0.417-0.919,0.543c-0.359,0.128-0.762,0.192-1.209,0.192s-0.849-0.064-1.209-0.192
	c-0.358-0.126-0.665-0.308-0.919-0.543c-0.253-0.234-0.45-0.511-0.583-0.827c-0.135-0.315-0.203-0.655-0.203-1.017
	c0-0.363,0.067-0.703,0.203-1.019c0.134-0.317,0.33-0.593,0.583-0.827c0.255-0.235,0.561-0.422,0.919-0.562
	C122.326,55.978,122.728,55.909,123.175,55.909L123.175,55.909z"/>
<path fill="#FFFFFF" d="M131.388,57.493c0.015-0.061,0.023-0.103,0.023-0.126c0-0.039-0.044-0.104-0.134-0.19
	c-0.088-0.09-0.219-0.181-0.392-0.273c-0.175-0.092-0.388-0.173-0.643-0.242s-0.549-0.104-0.879-0.104
	c-0.317,0-0.606,0.05-0.868,0.149c-0.263,0.101-0.489,0.243-0.678,0.429c-0.188,0.185-0.334,0.402-0.439,0.652
	c-0.104,0.252-0.155,0.527-0.155,0.828c0,0.254,0.047,0.495,0.145,0.723c0.095,0.228,0.238,0.426,0.427,0.596
	c0.189,0.17,0.428,0.305,0.717,0.404c0.289,0.101,0.627,0.151,1.013,0.151c0.114,0,0.248-0.01,0.398-0.029
	c0.15-0.019,0.304-0.047,0.462-0.081c0.158-0.034,0.307-0.079,0.446-0.134c0.139-0.053,0.253-0.118,0.347-0.196v-0.693h-1.053
	c-0.116,0-0.192,0.021-0.232,0.063c-0.038,0.043-0.057,0.114-0.057,0.214h-0.139v-1.109h0.139c0,0.053,0.02,0.098,0.057,0.132
	c0.04,0.036,0.116,0.052,0.232,0.052h1.978v0.14c-0.061,0.016-0.104,0.036-0.126,0.063s-0.034,0.075-0.034,0.145v0.774
	c0,0.108,0.052,0.174,0.16,0.197v0.116c-0.177,0.177-0.377,0.329-0.602,0.456c-0.224,0.128-0.453,0.229-0.688,0.307
	c-0.235,0.077-0.472,0.13-0.71,0.156c-0.24,0.027-0.467,0.041-0.683,0.041c-0.425,0-0.817-0.053-1.18-0.156
	c-0.363-0.105-0.674-0.269-0.938-0.492c-0.261-0.225-0.468-0.499-0.618-0.827c-0.15-0.327-0.226-0.703-0.226-1.128
	c0-0.308,0.065-0.616,0.196-0.926c0.131-0.308,0.32-0.585,0.567-0.832c0.247-0.246,0.553-0.448,0.919-0.601
	c0.366-0.155,0.784-0.232,1.254-0.232c0.324,0,0.619,0.034,0.884,0.099c0.267,0.065,0.499,0.139,0.695,0.22
	c0.198,0.081,0.356,0.156,0.48,0.226c0.122,0.069,0.201,0.104,0.231,0.104c0.046,0,0.077-0.01,0.092-0.029
	c0.017-0.019,0.031-0.036,0.047-0.052l0.139,0.058l-0.439,1.018L131.388,57.493L131.388,57.493z"/>
<path fill="#FFFFFF" d="M133.308,60.929c0.123,0,0.202-0.021,0.237-0.062c0.034-0.042,0.052-0.129,0.052-0.261v-4.164
	c0-0.132-0.018-0.218-0.052-0.26c-0.035-0.043-0.114-0.064-0.237-0.064v-0.14h1.295v0.14c-0.124,0-0.203,0.021-0.237,0.064
	c-0.034,0.042-0.052,0.128-0.052,0.26v4.164c0,0.132,0.018,0.219,0.052,0.261s0.113,0.062,0.237,0.062v0.14h-1.295V60.929
	L133.308,60.929z"/>
<path fill="#FFFFFF" d="M136.373,56.442c0-0.132-0.018-0.218-0.052-0.26c-0.035-0.043-0.106-0.064-0.214-0.064v-0.14h4.662
	c0.116,0,0.192-0.02,0.23-0.062c0.039-0.042,0.059-0.114,0.059-0.214h0.139v1.202h-0.139c0-0.099-0.02-0.171-0.059-0.214
	c-0.038-0.042-0.114-0.063-0.23-0.063h-3.632v1.504h2.557c0.114,0,0.19-0.021,0.23-0.062c0.039-0.043,0.057-0.114,0.057-0.215h0.139
	v1.203h-0.139c0-0.1-0.018-0.172-0.057-0.214c-0.04-0.043-0.116-0.064-0.23-0.064h-2.557v1.644h3.759
	c0.116,0,0.193-0.021,0.23-0.063c0.039-0.043,0.059-0.115,0.059-0.214h0.139v1.168h-0.139c0-0.101-0.02-0.167-0.059-0.196
	c-0.038-0.031-0.115-0.047-0.23-0.047h-4.789v-0.14c0.108,0,0.18-0.021,0.214-0.062c0.034-0.042,0.052-0.129,0.052-0.261V56.442
	L136.373,56.442z"/>
</svg>
