<?xml version="1.0" encoding="utf-8"?>
<!-- Generator: Adobe Illustrator 15.0.2, SVG Export Plug-In . SVG Version: 6.00 Build 0)  -->
<!DOCTYPE svg PUBLIC "-//W3C//DTD SVG 1.1//EN" "http://www.w3.org/Graphics/SVG/1.1/DTD/svg11.dtd">
<svg version="1.1" id="Layer_1" xmlns="http://www.w3.org/2000/svg" xmlns:xlink="http://www.w3.org/1999/xlink" x="0px" y="0px"
	 width="304.314px" height="73.139px" viewBox="0 0 304.314 73.139" enable-background="new 0 0 304.314 73.139"
	 xml:space="preserve">
<rect x="-48.009" y="-208.931" fill="#92499C" width="444" height="196.667"/>
<g id="Layer_2">
	<path fill="#FFFFFF" d="M15.578,12.927l0.346,0.26l0.433,0.348l0.521,0.432l0.562,0.391l0.433,0.346l0.312,0.233
		c2.989-1.154,6.469-1.819,10.187-1.819c3.72,0,7.201,0.666,10.192,1.82l0.021-0.021l0.305-0.216l0.476-0.346l0.476-0.391
		l0.52-0.389l0.477-0.304l0.174-0.129l0.172-0.087l0.088-0.086l-0.304-0.044l-0.434-0.086l-0.519-0.087l-0.52-0.129l-0.434-0.086
		l-0.347-0.087H38.58l1.211-3.502l-3.416,0.951L36.246,7.18l-4.454,4.365l1.644-8.475l-3.502,1.643L28.376,0L26.82,4.454
		l-3.589-1.471l1.772,8.519l-4.411-4.195v2.727l-3.632-1.255l0.865,3.72L15.448,12.8L15.578,12.927z"/>
	<path fill="#FFFFFF" d="M23.653,27.889l1.304,1.185c0,0,0.739-1.185,3.02-1.658c2.279-0.475,7.489-0.147,12.434,6.958
		c1.32,2.093,2.455,5.257,2.693,8.052c0.39,4.595-0.74,8.645-0.74,8.645s-1.568,6.955-3.938,7.576
		c0.119,0.297,0.709,1.66,0.709,1.66s2.688-0.55,4.294-6.604c1.5-5.649,1.771-7.137,1.331-12.402
		c-0.44-5.267-4.146-10.598-7.489-12.905C33.925,26.083,28.657,23.449,23.653,27.889z"/>
	<path fill="#FFFFFF" d="M24.792,39.99c0,0-1.254-3.673-1.417-5.274c1.998-2.229,4.414-4.043,7.526-3.646
		c0,0,0.581,0.041,1.325,0.325c2.024,0.775,5.46,2.788,3.416,5.669c0,0,2.438,0.813,3.717,4.507c0.458,1.323,0.5,2.876,0.604,5.089
		c0,1.369-0.604,4.925-0.604,4.925l-1.812-0.324c0,0,0.721-2.742,0.65-5.461c-0.07-2.718-0.628-5.786-3.044-7.04
		c-0.974-0.588-2.117-0.621-3.183-0.487c-2.467,0.307-4.728,1.881-5.02,2.253c0,0,0.889,2.217,2.647,5.042
		c1.76,2.826,4.393,6.263,7.295,8.83l-1.229,1.254c0,0-7.157-6.574-10.178-14.033c-2.997,1.231-4.623,4.903-4.508,5.204
		c0.059,0.15,1.084,2.62,3.207,4.67c2.123,2.051,5.345,3.685,7.504,4.3c-0.256,0.836-0.581,1.671-0.581,1.671
		s-7.458-1.72-11.569-9.524c-2.276-5.157-1.395-10.014-1.395-10.014l1.72,0.324c0,0-0.488,3.742,0.324,6.088
		C21.866,41.221,24.467,40.082,24.792,39.99z M25.252,35.235c0,0,0.664,2.999,0.984,3.525c2.061-1.626,4.808-2.176,6.522-2.358
		c1.718-0.184,1.534-0.275,1.694-0.688c0.159-0.412,0-0.776-0.642-1.352c-0.642-0.571-2.015-1.511-3.25-1.602
		c-1.235-0.093-2.404,0.159-3.457,0.895C26.054,34.389,25.252,35.235,25.252,35.235z"/>
	<path fill="#FFFFFF" d="M12.411,39.349c-0.338,3.663,1.111,8.091,1.111,8.091c2.376,6.167,7.521,10.287,13.654,13.176
		c6.137,2.887,8.452,1.172,8.452,1.172s-0.15-0.332-0.812-1.563c-0.012,0.006-0.024,0.014-0.038,0.021
		c-0.399,0.206-1.122,0.414-1.918,0.312c-1.786-0.229-3.692-0.952-5.202-1.565c-7.455-3.03-11.221-9.472-11.221-9.472
		c-4.09-7.191-1.653-13.237-1.419-13.874c0.232-0.637,1.525-4.604,5.732-4.704v-1.766c0,0-2.091-0.084-4.031,1.438
		c-1.941,1.521-2.688,3.021-2.688,3.021S12.798,35.143,12.411,39.349z"/>
	<path fill="#FFFFFF" d="M14.035,33.634"/>
	<path fill="#FFFFFF" d="M55.581,47.668c0,0,0.461-0.967,1.125-0.563c0.719,0.438,0.494,1.057-0.003,1.58l-1.424,1.533l-1.07-1.962
		c0,0-0.511-0.934,0.375-1.425c0,0,0.832-0.293,0.98,0.832"/>
	<path fill="#FFFFFF" d="M1.625,47.672c0,0,0.103-1.146,1.139-0.756c0,0,0.823,0.266,0.082,1.602L1.9,50.222H1.884l-1.654-1.881
		c0,0-0.539-0.729,0.204-1.2C0.433,47.141,1.066,46.657,1.625,47.672z"/>
	<path fill="#FFFFFF" d="M0.656,53.32c-0.065-0.173-0.097-0.343-0.094-0.51c0.003-0.168,0.042-0.327,0.116-0.477
		c0.074-0.148,0.188-0.286,0.338-0.41c0.148-0.123,0.336-0.229,0.561-0.312c0.222-0.086,0.426-0.13,0.611-0.137
		c0.188-0.008,0.36,0.021,0.523,0.083c0.159,0.06,0.297,0.149,0.415,0.271s0.21,0.271,0.278,0.449
		c0.033,0.09,0.06,0.176,0.075,0.259c0.017,0.082,0.026,0.161,0.032,0.234c0.004,0.062,0.004,0.13,0,0.201
		c-0.005,0.069-0.012,0.14-0.021,0.21l-0.427,0.163l-0.011-0.029c0.017-0.041,0.035-0.094,0.058-0.157
		c0.021-0.062,0.039-0.139,0.053-0.224c0.011-0.082,0.013-0.167,0.007-0.255c-0.007-0.089-0.029-0.185-0.069-0.29
		c-0.043-0.112-0.105-0.21-0.19-0.292c-0.084-0.083-0.188-0.146-0.307-0.188s-0.253-0.057-0.405-0.045
		c-0.153,0.01-0.312,0.049-0.485,0.112c-0.182,0.069-0.329,0.15-0.443,0.245c-0.115,0.094-0.202,0.195-0.264,0.306
		c-0.061,0.107-0.094,0.22-0.1,0.336c-0.007,0.116,0.012,0.23,0.053,0.343C1,53.31,1.048,53.4,1.106,53.477
		c0.06,0.078,0.119,0.143,0.184,0.194c0.062,0.053,0.121,0.094,0.178,0.126c0.058,0.032,0.104,0.058,0.143,0.073l0.011,0.026
		l-0.42,0.16c-0.05-0.049-0.097-0.093-0.142-0.136c-0.045-0.041-0.094-0.095-0.146-0.159c-0.056-0.067-0.102-0.133-0.14-0.192
		C0.736,53.508,0.697,53.425,0.656,53.32z"/>
	<path fill="#FFFFFF" d="M1.151,54.438l2.975-0.341l0.196,0.42l-2.162,2.07l-0.169-0.359l0.61-0.569l-0.46-0.979l-0.828,0.104
		L1.151,54.438z M2.847,55.427l1.021-0.964l-1.394,0.175L2.847,55.427z"/>
	<path fill="#FFFFFF" d="M3.425,58.855l-0.207-0.367l1.513-2.294l-2.128,1.203L2.429,57.09l2.469-1.396l0.264,0.467l-1.394,2.097
		l1.955-1.104l0.172,0.306L3.425,58.855z"/>
	<path fill="#FFFFFF" d="M3.713,59.336l2.889-0.789l0.26,0.388l-1.82,2.375l-0.223-0.33l0.516-0.656l-0.605-0.901L3.926,59.65
		L3.713,59.336z M5.542,60.059l0.866-1.113L5.051,59.33L5.542,60.059z"/>
	<path fill="#FFFFFF" d="M7.881,62.625c-0.201,0.162-0.417,0.267-0.646,0.313c-0.229,0.047-0.441,0.041-0.646-0.023
		c-0.159-0.057-0.298-0.131-0.415-0.229c-0.115-0.097-0.246-0.234-0.39-0.414l-0.409-0.51L7.59,59.99l0.404,0.505
		c0.167,0.208,0.281,0.384,0.346,0.526c0.063,0.145,0.103,0.278,0.114,0.405c0.021,0.219-0.018,0.429-0.109,0.633
		C8.252,62.263,8.098,62.451,7.881,62.625z M7.642,62.315c0.17-0.136,0.292-0.279,0.365-0.434c0.075-0.152,0.102-0.312,0.08-0.478
		c-0.017-0.115-0.049-0.229-0.101-0.334c-0.051-0.105-0.129-0.225-0.235-0.357l-0.181-0.227L5.869,61.85l0.181,0.227
		c0.104,0.131,0.208,0.236,0.308,0.317c0.101,0.083,0.21,0.143,0.332,0.179c0.15,0.047,0.306,0.05,0.461,0.01
		C7.306,62.542,7.47,62.452,7.642,62.315z"/>
	<path fill="#FFFFFF" d="M7.928,64.742l-0.75-0.807l0.213-0.196l0.246,0.265l1.652-1.54L9.044,62.2l0.212-0.197l0.75,0.806
		l-0.212,0.196l-0.246-0.264l-1.652,1.54l0.246,0.264L7.928,64.742z"/>
	<path fill="#FFFFFF" d="M8.231,65.078l2.629-1.431l0.342,0.316l-1.226,2.729l-0.292-0.271l0.351-0.756L9.237,64.93l-0.729,0.405
		L8.231,65.078z M10.177,65.361l0.587-1.279l-1.229,0.686L10.177,65.361z"/>
	<path fill="#FFFFFF" d="M12.03,68.278l-0.337-0.255l0.479-2.708l-1.479,1.951l-0.281-0.215l1.715-2.26l0.429,0.324l-0.447,2.479
		l1.357-1.79l0.281,0.213L12.03,68.278z"/>
	<path fill="#FFFFFF" d="M15.861,70.513l-0.335-0.175l0.646-1.231l-1.159-0.607l-0.646,1.231l-0.333-0.175l1.316-2.515l0.334,0.176
		l-0.517,0.984l1.16,0.607l0.517-0.983L17.178,68L15.861,70.513z"/>
	<path fill="#FFFFFF" d="M16.656,70.867l1.051-2.636l1.646,0.657l-0.125,0.312l-1.296-0.519l-0.288,0.722l1.209,0.481l-0.124,0.312
		l-1.208-0.482l-0.391,0.979l1.296,0.519l-0.123,0.312L16.656,70.867z"/>
	<path fill="#FFFFFF" d="M18.678,71.664l1.71-2.456l0.446,0.13l0.125,2.989l-0.382-0.11l-0.026-0.834l-1.039-0.303l-0.471,0.69
		L18.678,71.664z M20.543,71.043l-0.048-1.404l-0.792,1.16L20.543,71.043z"/>
	<path fill="#FFFFFF" d="M23.674,72.854l-0.479-0.091l-0.674-1.276l-0.426-0.079l-0.21,1.108l-0.369-0.071l0.525-2.786l0.719,0.136
		c0.16,0.031,0.292,0.063,0.397,0.104c0.104,0.038,0.199,0.099,0.285,0.181c0.085,0.081,0.146,0.176,0.187,0.284
		c0.04,0.109,0.043,0.237,0.017,0.384c-0.039,0.205-0.123,0.365-0.252,0.482c-0.13,0.116-0.291,0.192-0.481,0.226L23.674,72.854z
		 M23.253,70.7c0.016-0.081,0.016-0.156-0.002-0.225c-0.018-0.066-0.052-0.128-0.104-0.18c-0.046-0.044-0.104-0.081-0.17-0.107
		c-0.066-0.027-0.152-0.051-0.257-0.07l-0.369-0.069l-0.198,1.049l0.328,0.062c0.105,0.021,0.204,0.028,0.292,0.026
		c0.089-0.003,0.169-0.026,0.24-0.075c0.063-0.042,0.114-0.097,0.153-0.163C23.206,70.879,23.235,70.796,23.253,70.7z"/>
	<path fill="#FFFFFF" d="M24.743,72.96l0.251-2.488l-0.948-0.096l0.034-0.333l2.271,0.229l-0.033,0.333l-0.947-0.097l-0.251,2.489
		L24.743,72.96z"/>
	<path fill="#FFFFFF" d="M30.35,73.109l-0.489,0.006l-0.912-1.116l-0.432,0.005l0.017,1.128l-0.379,0.005L28.118,70.3l0.729-0.009
		c0.162-0.002,0.299,0.005,0.408,0.021c0.11,0.017,0.216,0.057,0.314,0.12c0.101,0.062,0.18,0.145,0.238,0.242
		c0.061,0.101,0.089,0.224,0.092,0.372c0.003,0.208-0.047,0.385-0.15,0.524c-0.103,0.141-0.245,0.247-0.425,0.317L30.35,73.109z
		 M29.51,71.082c-0.001-0.083-0.016-0.155-0.047-0.22c-0.029-0.063-0.075-0.114-0.137-0.155c-0.055-0.035-0.117-0.06-0.188-0.073
		c-0.071-0.014-0.159-0.02-0.266-0.019L28.5,70.621l0.015,1.069l0.332-0.005c0.107-0.001,0.205-0.012,0.292-0.032
		c0.086-0.02,0.158-0.062,0.219-0.121c0.055-0.053,0.095-0.118,0.119-0.191C29.5,71.268,29.512,71.181,29.51,71.082z"/>
	<path fill="#FFFFFF" d="M30.872,73.115L30.62,70.29l1.771-0.159l0.028,0.333l-1.394,0.124l0.069,0.772l1.298-0.115l0.029,0.334
		l-1.298,0.114l0.096,1.054l1.393-0.125l0.029,0.333L30.872,73.115z"/>
	<path fill="#FFFFFF" d="M34.125,72.757c-0.202,0.037-0.378,0.05-0.526,0.033s-0.292-0.042-0.43-0.08l-0.086-0.466l0.025-0.005
		c0.145,0.092,0.3,0.156,0.467,0.189c0.167,0.035,0.32,0.039,0.464,0.013c0.205-0.038,0.353-0.109,0.44-0.214
		c0.089-0.104,0.121-0.228,0.096-0.367c-0.021-0.111-0.063-0.196-0.134-0.257c-0.067-0.062-0.165-0.096-0.292-0.106
		c-0.09-0.01-0.173-0.015-0.248-0.019c-0.073-0.003-0.167-0.01-0.278-0.017c-0.102-0.008-0.191-0.023-0.274-0.048
		c-0.084-0.024-0.161-0.062-0.23-0.114c-0.069-0.051-0.127-0.113-0.175-0.19c-0.047-0.076-0.081-0.171-0.103-0.278
		c-0.042-0.228,0.013-0.435,0.159-0.619c0.146-0.187,0.357-0.303,0.631-0.354c0.156-0.027,0.308-0.04,0.452-0.033
		c0.146,0.005,0.282,0.025,0.411,0.061l0.083,0.443l-0.028,0.006c-0.104-0.064-0.229-0.115-0.38-0.149
		c-0.149-0.034-0.301-0.037-0.453-0.01c-0.173,0.031-0.305,0.099-0.396,0.198c-0.091,0.101-0.125,0.216-0.101,0.347
		c0.021,0.12,0.07,0.208,0.146,0.267s0.176,0.094,0.3,0.104c0.083,0.008,0.184,0.014,0.302,0.021
		c0.119,0.006,0.218,0.014,0.298,0.021c0.202,0.023,0.358,0.087,0.47,0.188c0.111,0.103,0.183,0.24,0.215,0.414
		c0.021,0.107,0.018,0.221-0.008,0.334c-0.024,0.115-0.069,0.216-0.137,0.306c-0.075,0.097-0.165,0.178-0.271,0.243
		C34.432,72.677,34.294,72.725,34.125,72.757z"/>
	<path fill="#FFFFFF" d="M35.762,72.362L35,69.631l1.709-0.476l0.09,0.321l-1.346,0.375l0.209,0.748l1.253-0.35l0.09,0.323
		l-1.254,0.349l0.283,1.015l1.345-0.374l0.091,0.322L35.762,72.362z"/>
	<path fill="#FFFFFF" d="M37.852,71.771l-0.116-2.992l0.436-0.165l1.904,2.311l-0.373,0.143l-0.521-0.647l-1.015,0.387l0.042,0.83
		L37.852,71.771z M38.967,70.153l-0.885-1.091l0.066,1.403L38.967,70.153z"/>
	<path fill="#FFFFFF" d="M42.552,69.708l-0.438,0.219l-1.306-0.608L40.42,69.51l0.502,1.011l-0.337,0.167l-1.264-2.54l0.655-0.324
		c0.146-0.072,0.271-0.125,0.378-0.158c0.106-0.034,0.218-0.042,0.336-0.03c0.116,0.014,0.224,0.052,0.318,0.116
		c0.098,0.062,0.179,0.163,0.244,0.295c0.093,0.188,0.123,0.366,0.091,0.538s-0.114,0.33-0.247,0.47L42.552,69.708z M40.917,68.249
		c-0.037-0.075-0.083-0.133-0.138-0.179c-0.056-0.045-0.118-0.07-0.19-0.08c-0.063-0.009-0.131-0.003-0.2,0.017
		c-0.07,0.019-0.153,0.052-0.248,0.1l-0.335,0.166l0.476,0.957l0.298-0.147c0.098-0.048,0.181-0.101,0.25-0.156
		c0.067-0.055,0.116-0.123,0.146-0.203c0.024-0.071,0.032-0.146,0.023-0.225C40.987,68.419,40.96,68.336,40.917,68.249z"/>
	<path fill="#FFFFFF" d="M43.96,68.895c-0.158,0.1-0.318,0.163-0.482,0.192c-0.165,0.029-0.328,0.022-0.489-0.021
		c-0.16-0.045-0.316-0.127-0.468-0.251c-0.149-0.123-0.29-0.286-0.416-0.487s-0.211-0.394-0.254-0.574s-0.051-0.358-0.021-0.529
		c0.028-0.169,0.09-0.322,0.188-0.46c0.095-0.139,0.226-0.26,0.387-0.362c0.081-0.05,0.16-0.092,0.237-0.124
		c0.077-0.031,0.152-0.059,0.225-0.077c0.062-0.017,0.128-0.029,0.197-0.039c0.068-0.011,0.141-0.017,0.21-0.021l0.242,0.386
		l-0.026,0.017c-0.044-0.007-0.1-0.017-0.167-0.024c-0.066-0.01-0.143-0.012-0.229-0.008c-0.082,0.007-0.166,0.021-0.252,0.044
		c-0.085,0.024-0.175,0.065-0.271,0.125c-0.104,0.064-0.188,0.146-0.251,0.245c-0.064,0.101-0.106,0.212-0.125,0.336
		c-0.018,0.125-0.004,0.262,0.036,0.408s0.107,0.299,0.206,0.454c0.104,0.164,0.212,0.293,0.326,0.387
		c0.113,0.095,0.231,0.161,0.352,0.199c0.117,0.038,0.233,0.048,0.349,0.032c0.116-0.018,0.226-0.057,0.326-0.12
		c0.092-0.059,0.171-0.123,0.235-0.195c0.063-0.07,0.116-0.146,0.156-0.217c0.038-0.069,0.067-0.138,0.089-0.198
		c0.021-0.062,0.036-0.112,0.045-0.153l0.023-0.016l0.239,0.383c-0.037,0.058-0.072,0.111-0.104,0.163
		c-0.032,0.054-0.076,0.111-0.129,0.175c-0.056,0.065-0.109,0.124-0.161,0.173C44.13,68.784,44.056,68.834,43.96,68.895z"/>
	<path fill="#FFFFFF" d="M46.826,66.74l-0.299,0.232l-0.854-1.095l-1.025,0.804l0.854,1.093l-0.297,0.232l-1.748-2.234l0.297-0.231
		l0.687,0.876l1.024-0.802l-0.687-0.877l0.298-0.232L46.826,66.74z"/>
	<path fill="#FFFFFF" d="M49.37,64.344c-0.127,0.137-0.267,0.239-0.417,0.312c-0.152,0.069-0.312,0.104-0.479,0.104
		s-0.34-0.042-0.518-0.123c-0.178-0.08-0.354-0.202-0.526-0.365c-0.175-0.162-0.305-0.324-0.394-0.489
		c-0.088-0.165-0.141-0.334-0.157-0.508c-0.017-0.169,0.005-0.334,0.062-0.491c0.058-0.159,0.15-0.31,0.282-0.449
		c0.064-0.07,0.131-0.131,0.197-0.183c0.067-0.052,0.134-0.095,0.197-0.132c0.056-0.032,0.115-0.062,0.181-0.088
		c0.064-0.028,0.132-0.053,0.199-0.074l0.333,0.312l-0.021,0.021c-0.045,0.004-0.102,0.009-0.168,0.018
		c-0.066,0.008-0.143,0.025-0.225,0.051c-0.079,0.026-0.156,0.062-0.232,0.106c-0.077,0.044-0.152,0.106-0.229,0.188
		c-0.083,0.089-0.143,0.189-0.18,0.303c-0.037,0.111-0.049,0.23-0.033,0.356c0.016,0.124,0.062,0.252,0.139,0.385
		c0.077,0.132,0.183,0.261,0.315,0.386c0.142,0.134,0.28,0.229,0.414,0.291c0.136,0.062,0.267,0.097,0.392,0.104
		c0.123,0.006,0.238-0.012,0.346-0.059c0.107-0.046,0.202-0.111,0.284-0.198c0.075-0.081,0.134-0.164,0.179-0.249
		c0.043-0.086,0.075-0.17,0.097-0.25c0.02-0.079,0.029-0.15,0.034-0.215c0.006-0.065,0.007-0.119,0.006-0.161l0.021-0.021
		l0.328,0.308c-0.021,0.063-0.041,0.128-0.06,0.187c-0.018,0.059-0.045,0.125-0.079,0.2c-0.037,0.079-0.075,0.148-0.112,0.21
		C49.505,64.19,49.447,64.262,49.37,64.344z"/>
	<path fill="#FFFFFF" d="M50.343,63.165l-2.234-1.749l1.095-1.397l0.264,0.206l-0.86,1.103l0.613,0.479l0.803-1.027l0.266,0.208
		l-0.805,1.026l0.829,0.648l0.86-1.104l0.266,0.208L50.343,63.165z"/>
	<path fill="#FFFFFF" d="M52.957,59.488l-0.23,0.354l-2.733-0.281l2.05,1.334L51.85,61.19l-2.376-1.547l0.292-0.449l2.505,0.268
		l-1.882-1.226l0.191-0.295L52.957,59.488z"/>
	<path fill="#FFFFFF" d="M53.707,58.157l-2.202-1.189l-0.453,0.838l-0.294-0.158l1.087-2.009l0.294,0.158l-0.453,0.838l2.202,1.19
		L53.707,58.157z"/>
	<path fill="#FFFFFF" d="M55.49,54.462l-0.201,0.446l-1.396,0.354l-0.178,0.395l1.028,0.463l-0.155,0.344l-2.586-1.167l0.301-0.666
		c0.066-0.147,0.131-0.27,0.191-0.361c0.062-0.092,0.143-0.172,0.241-0.233c0.1-0.063,0.206-0.103,0.321-0.114
		c0.114-0.011,0.239,0.015,0.376,0.075c0.188,0.085,0.326,0.205,0.41,0.357c0.085,0.152,0.12,0.328,0.106,0.521L55.49,54.462z
		 M53.298,54.366c-0.075-0.034-0.147-0.052-0.219-0.052c-0.07,0.001-0.137,0.021-0.198,0.061c-0.055,0.035-0.104,0.081-0.146,0.141
		c-0.042,0.061-0.086,0.137-0.129,0.232l-0.153,0.341l0.976,0.438l0.136-0.303c0.045-0.1,0.076-0.189,0.095-0.277
		c0.02-0.087,0.013-0.171-0.017-0.252c-0.025-0.07-0.066-0.135-0.124-0.188C53.461,54.454,53.388,54.406,53.298,54.366z"/>
	<path fill="#FFFFFF" d="M55.675,53.971l-2.655-0.996l0.624-1.663l0.312,0.115l-0.491,1.312l0.729,0.271l0.457-1.219l0.313,0.118
		l-0.458,1.22l0.989,0.371l0.49-1.311l0.312,0.118L55.675,53.971z"/>
	<path fill="#FFFFFF" d="M2.518,44.389c0.008,0.158-0.014,0.306-0.061,0.44c-0.047,0.134-0.122,0.254-0.223,0.354
		c-0.103,0.103-0.229,0.183-0.386,0.241c-0.155,0.062-0.334,0.097-0.539,0.104c-0.203,0.011-0.382-0.008-0.535-0.053
		c-0.153-0.044-0.289-0.114-0.404-0.208c-0.113-0.093-0.201-0.203-0.265-0.333c-0.062-0.129-0.099-0.276-0.104-0.44
		c-0.004-0.082-0.001-0.158,0.008-0.229s0.021-0.139,0.037-0.2c0.014-0.05,0.031-0.104,0.054-0.161
		c0.021-0.056,0.047-0.11,0.073-0.167l0.392-0.018l0.001,0.026c-0.023,0.028-0.055,0.066-0.09,0.113
		c-0.036,0.045-0.068,0.103-0.104,0.167c-0.031,0.063-0.057,0.134-0.074,0.206c-0.02,0.075-0.025,0.159-0.021,0.254
		c0.005,0.104,0.03,0.2,0.077,0.291c0.046,0.091,0.111,0.168,0.198,0.232c0.085,0.065,0.19,0.114,0.317,0.147
		c0.126,0.031,0.27,0.045,0.425,0.037c0.167-0.008,0.31-0.034,0.427-0.081c0.118-0.045,0.218-0.104,0.297-0.177
		c0.078-0.07,0.135-0.152,0.171-0.246c0.038-0.093,0.055-0.19,0.049-0.293c-0.004-0.093-0.02-0.179-0.046-0.257
		c-0.025-0.078-0.059-0.147-0.095-0.208c-0.036-0.06-0.073-0.108-0.11-0.149c-0.037-0.042-0.068-0.075-0.095-0.1L1.89,43.661
		l0.386-0.019c0.027,0.052,0.055,0.103,0.078,0.147c0.024,0.046,0.05,0.104,0.075,0.169c0.025,0.068,0.046,0.134,0.062,0.192
		C2.504,44.214,2.514,44.292,2.518,44.389z"/>
	<path fill="#FFFFFF" d="M2.449,43.313L0.017,43.24l0.046-1.521l0.288,0.01l-0.037,1.199l0.666,0.021l0.034-1.119l0.287,0.01
		l-0.033,1.118l0.9,0.027l0.037-1.199l0.287,0.009L2.449,43.313z"/>
	<path fill="#FFFFFF" d="M2.696,39.681L2.661,40.04l-2.188,0.873L2.56,41.11L2.533,41.41l-2.422-0.229l0.043-0.456l2.01-0.792
		l-1.917-0.182l0.027-0.3L2.696,39.681z"/>
	<path fill="#FFFFFF" d="M2.897,38.613L0.79,38.211l-0.152,0.804L0.354,38.96l0.367-1.922l0.281,0.053L0.85,37.895l2.106,0.401
		L2.897,38.613z"/>
	<path fill="#FFFFFF" d="M3.674,35.415l-0.11,0.404l-1.134,0.488l-0.099,0.356l0.933,0.255l-0.085,0.312l-2.347-0.642l0.165-0.604
		c0.037-0.134,0.074-0.243,0.114-0.331c0.04-0.087,0.098-0.163,0.174-0.23c0.074-0.066,0.159-0.113,0.256-0.139
		s0.205-0.021,0.328,0.013c0.172,0.047,0.305,0.13,0.396,0.249c0.092,0.118,0.146,0.261,0.158,0.427L3.674,35.415z M1.806,35.627
		c-0.068-0.019-0.133-0.022-0.19-0.013c-0.061,0.01-0.113,0.034-0.161,0.076c-0.041,0.036-0.076,0.083-0.104,0.139
		c-0.029,0.056-0.056,0.127-0.079,0.214l-0.084,0.311l0.884,0.241l0.075-0.274c0.023-0.089,0.039-0.172,0.042-0.247
		c0.003-0.076-0.013-0.146-0.047-0.211c-0.032-0.057-0.075-0.104-0.13-0.144C1.956,35.681,1.888,35.65,1.806,35.627z"/>
	<path fill="#FFFFFF" d="M3.751,35.219L1.463,34.4l0.513-1.435l0.271,0.099l-0.404,1.128l0.628,0.225l0.375-1.05l0.271,0.097
		l-0.375,1.051l0.849,0.304l0.403-1.127l0.271,0.098L3.751,35.219z"/>
	<path fill="#FFFFFF" d="M5.8,30.679c-0.075,0.139-0.17,0.254-0.28,0.346c-0.11,0.093-0.235,0.154-0.375,0.188
		c-0.141,0.034-0.291,0.037-0.455,0.007c-0.164-0.028-0.336-0.093-0.517-0.189c-0.179-0.099-0.321-0.206-0.43-0.325
		c-0.106-0.118-0.188-0.248-0.238-0.389c-0.049-0.139-0.066-0.277-0.052-0.422c0.014-0.145,0.061-0.288,0.139-0.433
		c0.04-0.07,0.082-0.136,0.126-0.191c0.046-0.059,0.091-0.106,0.136-0.151c0.039-0.039,0.083-0.076,0.131-0.112
		c0.049-0.037,0.099-0.07,0.148-0.104l0.343,0.188l-0.014,0.021c-0.036,0.014-0.081,0.029-0.135,0.052
		c-0.055,0.021-0.112,0.051-0.176,0.09c-0.061,0.039-0.115,0.084-0.17,0.139c-0.056,0.055-0.104,0.122-0.149,0.207
		c-0.049,0.09-0.078,0.187-0.085,0.287s0.009,0.203,0.047,0.305c0.04,0.1,0.104,0.197,0.196,0.29
		c0.092,0.095,0.206,0.18,0.344,0.254c0.146,0.081,0.282,0.133,0.406,0.155c0.125,0.021,0.24,0.022,0.348,0.002
		c0.104-0.021,0.194-0.062,0.272-0.122c0.08-0.062,0.146-0.136,0.193-0.227c0.045-0.082,0.077-0.163,0.096-0.244
		s0.026-0.155,0.025-0.228c-0.001-0.069-0.007-0.132-0.016-0.188c-0.011-0.055-0.021-0.1-0.03-0.133l0.013-0.021l0.337,0.187
		c-0.003,0.06-0.007,0.114-0.011,0.167c-0.002,0.052-0.01,0.114-0.023,0.184c-0.014,0.072-0.029,0.14-0.049,0.197
		C5.88,30.521,5.847,30.594,5.8,30.679z"/>
	<path fill="#FFFFFF" d="M6.157,29.938L4.573,27.92l0.219-0.333l2.481,0.646L7.086,28.52l-0.689-0.188l-0.508,0.774l0.447,0.558
		L6.157,29.938z M6.117,28.255l-1.162-0.312l0.752,0.938L6.117,28.255z"/>
	<path fill="#FFFFFF" d="M8.494,26.661L8.27,26.948l-2.312-0.443l1.653,1.29l-0.188,0.238l-1.917-1.495l0.282-0.362l2.119,0.414
		l-1.52-1.187l0.188-0.237L8.494,26.661z"/>
	<path fill="#FFFFFF" d="M8.657,26.46l-1.234-2.25l0.271-0.292l2.344,1.045l-0.229,0.25L9.16,24.915l-0.63,0.684l0.352,0.62
		L8.657,26.46z M8.893,24.795l-1.098-0.5l0.589,1.052L8.893,24.795z"/>
	<path fill="#FFFFFF" d="M10.807,22.598c0.149,0.164,0.253,0.341,0.309,0.533c0.055,0.192,0.061,0.375,0.017,0.553
		c-0.037,0.141-0.094,0.264-0.17,0.366c-0.074,0.105-0.186,0.226-0.33,0.358l-0.411,0.379l-1.646-1.789l0.405-0.375
		c0.168-0.154,0.312-0.264,0.432-0.326c0.117-0.062,0.231-0.103,0.339-0.121c0.187-0.029,0.367-0.011,0.546,0.058
		C10.476,22.302,10.646,22.424,10.807,22.598z M10.556,22.823c-0.127-0.139-0.259-0.234-0.394-0.29
		c-0.136-0.056-0.271-0.069-0.412-0.041c-0.099,0.021-0.19,0.054-0.278,0.104c-0.088,0.049-0.185,0.123-0.292,0.222L9,22.985
		l1.27,1.378l0.182-0.167c0.104-0.097,0.189-0.19,0.254-0.279c0.062-0.09,0.106-0.188,0.13-0.293
		c0.031-0.131,0.023-0.265-0.021-0.396S10.684,22.962,10.556,22.823z"/>
	<path fill="#FFFFFF" d="M12.593,22.728l-0.737,0.593L11.7,23.128l0.242-0.194l-1.212-1.512l-0.243,0.195l-0.154-0.194l0.737-0.592
		l0.155,0.192l-0.243,0.194l1.212,1.512l0.243-0.194L12.593,22.728z"/>
	<path fill="#FFFFFF" d="M12.923,22.472l-1.404-1.986l1.245-0.88l0.166,0.233l-0.98,0.695l0.386,0.544l0.914-0.646l0.165,0.233
		L12.5,21.311l0.521,0.737l0.98-0.693l0.166,0.233L12.923,22.472z"/>
	<path fill="#FFFFFF" d="M15.978,20.495l-0.312,0.188l-1.998-1.252l1.072,1.803l-0.261,0.154l-1.244-2.091l0.396-0.233l1.827,1.152
		l-0.984-1.654l0.26-0.153L15.978,20.495z"/>
	<path fill="#FFFFFF" d="M19.72,17.512c0.079,0.207,0.108,0.41,0.09,0.608c-0.02,0.197-0.083,0.372-0.188,0.521
		c-0.087,0.116-0.187,0.209-0.294,0.278c-0.107,0.07-0.255,0.142-0.438,0.211l-0.522,0.202l-0.874-2.271l0.517-0.199
		c0.214-0.082,0.388-0.131,0.521-0.146s0.255-0.011,0.361,0.013c0.185,0.04,0.346,0.125,0.487,0.254
		C19.521,17.115,19.635,17.291,19.72,17.512z M19.404,17.628c-0.066-0.174-0.152-0.312-0.259-0.413
		c-0.105-0.101-0.229-0.164-0.369-0.188c-0.101-0.019-0.197-0.021-0.299-0.006c-0.101,0.015-0.218,0.047-0.354,0.101l-0.229,0.088
		l0.673,1.75l0.23-0.089c0.135-0.053,0.247-0.106,0.341-0.168c0.092-0.061,0.169-0.136,0.229-0.226
		c0.077-0.11,0.119-0.235,0.127-0.375S19.472,17.805,19.404,17.628z"/>
	<path fill="#FFFFFF" d="M20.517,18.536l-0.688-2.332l1.461-0.431l0.081,0.273l-1.149,0.34l0.188,0.639l1.071-0.316l0.081,0.274
		L20.491,17.3l0.256,0.869l1.148-0.339l0.081,0.274L20.517,18.536z"/>
	<path fill="#FFFFFF" d="M26.306,17.354l-0.416,0.053l-0.887-0.862l-0.367,0.047l0.122,0.96l-0.319,0.041l-0.309-2.411l0.622-0.08
		c0.139-0.019,0.255-0.024,0.351-0.021c0.097,0.004,0.188,0.026,0.279,0.071c0.092,0.043,0.167,0.104,0.228,0.184
		s0.099,0.183,0.114,0.309c0.022,0.177-0.002,0.331-0.078,0.46c-0.074,0.131-0.186,0.233-0.332,0.312L26.306,17.354z M25.392,15.71
		c-0.01-0.069-0.029-0.13-0.062-0.182c-0.032-0.051-0.076-0.091-0.132-0.118c-0.05-0.025-0.104-0.039-0.167-0.044
		s-0.139-0.001-0.229,0.011l-0.318,0.04l0.116,0.907l0.281-0.035c0.093-0.014,0.175-0.031,0.246-0.057s0.129-0.066,0.176-0.125
		c0.041-0.051,0.068-0.108,0.083-0.175C25.401,15.869,25.403,15.794,25.392,15.71z"/>
	<path fill="#FFFFFF" d="M26.522,17.351l-0.122-2.43l1.52-0.077l0.015,0.288l-1.195,0.061l0.033,0.666l1.114-0.057l0.015,0.288
		l-1.114,0.057l0.045,0.898l1.194-0.061l0.016,0.288L26.522,17.351z"/>
	<path fill="#FFFFFF" d="M29.371,17.34c-0.159-0.004-0.305-0.033-0.438-0.091c-0.133-0.057-0.245-0.14-0.339-0.247
		c-0.096-0.107-0.166-0.241-0.216-0.4s-0.071-0.341-0.065-0.545c0.005-0.204,0.035-0.381,0.091-0.53s0.134-0.279,0.236-0.391
		c0.101-0.104,0.217-0.186,0.352-0.239c0.135-0.055,0.283-0.079,0.447-0.074c0.082,0.002,0.158,0.01,0.229,0.023
		c0.071,0.014,0.138,0.03,0.197,0.051c0.052,0.019,0.104,0.039,0.159,0.064s0.107,0.055,0.16,0.085l-0.011,0.391l-0.025-0.001
		c-0.026-0.025-0.062-0.06-0.105-0.098s-0.097-0.076-0.16-0.114c-0.062-0.035-0.128-0.064-0.199-0.09
		c-0.073-0.022-0.157-0.035-0.252-0.038c-0.104-0.004-0.202,0.016-0.297,0.056c-0.093,0.04-0.176,0.102-0.247,0.182
		c-0.071,0.081-0.126,0.185-0.167,0.309s-0.064,0.266-0.068,0.422c-0.004,0.166,0.014,0.311,0.051,0.432
		c0.036,0.122,0.09,0.225,0.156,0.309c0.064,0.083,0.145,0.146,0.232,0.188c0.092,0.043,0.188,0.065,0.29,0.068
		c0.094,0.002,0.181-0.008,0.261-0.026c0.08-0.021,0.15-0.049,0.214-0.082c0.062-0.032,0.113-0.063,0.158-0.1
		s0.08-0.063,0.104-0.088h0.023l-0.011,0.385c-0.054,0.023-0.104,0.046-0.152,0.067c-0.048,0.022-0.105,0.042-0.174,0.062
		c-0.071,0.021-0.138,0.037-0.198,0.049C29.546,17.338,29.467,17.342,29.371,17.34z"/>
	<path fill="#FFFFFF" d="M32.209,17.518l-0.321-0.031l0.111-1.188l-1.11-0.104l-0.112,1.188l-0.321-0.03l0.229-2.421l0.321,0.03
		l-0.09,0.948l1.11,0.104l0.091-0.948l0.321,0.03L32.209,17.518z"/>
	<path fill="#FFFFFF" d="M32.717,17.61l0.45-2.391l1.496,0.282l-0.054,0.282l-1.179-0.223l-0.124,0.653l1.101,0.207l-0.055,0.283
		l-1.1-0.207l-0.167,0.89l1.181,0.222l-0.055,0.283L32.717,17.61z"/>
	<path fill="#FFFFFF" d="M36.397,18.464l-0.404-0.108L35.5,17.224l-0.357-0.097l-0.25,0.934l-0.312-0.083l0.629-2.349l0.605,0.163
		c0.136,0.036,0.246,0.074,0.333,0.113s0.164,0.096,0.231,0.172c0.066,0.074,0.114,0.159,0.141,0.256
		c0.024,0.097,0.021,0.206-0.012,0.329c-0.046,0.172-0.129,0.304-0.246,0.396c-0.119,0.092-0.262,0.146-0.427,0.16L36.397,18.464z
		 M36.177,16.599c0.019-0.068,0.022-0.133,0.014-0.191c-0.01-0.06-0.036-0.112-0.078-0.16c-0.036-0.041-0.083-0.076-0.139-0.104
		c-0.057-0.027-0.127-0.054-0.216-0.077l-0.312-0.083l-0.236,0.886l0.274,0.073c0.091,0.023,0.174,0.038,0.249,0.042
		c0.076,0.003,0.146-0.013,0.21-0.048c0.058-0.032,0.104-0.076,0.144-0.131C36.125,16.749,36.155,16.68,36.177,16.599z"/>
	<path fill="#FFFFFF" d="M37.481,18.902c-0.148-0.053-0.277-0.127-0.386-0.222c-0.108-0.096-0.19-0.209-0.246-0.341
		s-0.083-0.281-0.08-0.447c0.003-0.167,0.039-0.348,0.106-0.54c0.068-0.191,0.151-0.351,0.251-0.477
		c0.101-0.126,0.215-0.226,0.347-0.297c0.127-0.071,0.263-0.11,0.407-0.12c0.145-0.009,0.294,0.015,0.449,0.067
		c0.077,0.028,0.146,0.06,0.21,0.094c0.062,0.036,0.12,0.071,0.171,0.109c0.043,0.032,0.088,0.069,0.131,0.11
		c0.043,0.042,0.085,0.085,0.126,0.132l-0.131,0.366l-0.024-0.008c-0.019-0.034-0.042-0.076-0.07-0.125
		c-0.03-0.051-0.069-0.104-0.118-0.158c-0.047-0.053-0.103-0.102-0.163-0.146c-0.062-0.045-0.139-0.084-0.229-0.115
		c-0.099-0.035-0.196-0.048-0.298-0.039c-0.103,0.009-0.199,0.041-0.292,0.096c-0.093,0.056-0.179,0.136-0.255,0.241
		c-0.078,0.104-0.144,0.23-0.196,0.379c-0.057,0.157-0.085,0.3-0.087,0.427s0.016,0.24,0.054,0.343
		c0.036,0.099,0.091,0.183,0.163,0.251s0.156,0.121,0.254,0.155c0.087,0.03,0.173,0.05,0.256,0.054
		c0.083,0.005,0.157,0.001,0.229-0.01c0.066-0.013,0.128-0.027,0.182-0.047c0.053-0.019,0.095-0.035,0.127-0.051l0.022,0.008
		l-0.129,0.364c-0.06,0.005-0.115,0.011-0.167,0.018c-0.053,0.006-0.114,0.008-0.185,0.006c-0.075-0.002-0.144-0.008-0.204-0.018
		C37.649,18.956,37.573,18.934,37.481,18.902z"/>
	<path fill="#FFFFFF" d="M40.119,19.965l-0.294-0.133l0.489-1.083l-1.018-0.46l-0.489,1.083l-0.294-0.135l1.002-2.215l0.294,0.135
		l-0.394,0.868l1.019,0.46l0.395-0.868l0.294,0.133L40.119,19.965z"/>
	<path fill="#FFFFFF" d="M40.577,20.204l1.177-2.127l1.333,0.737l-0.139,0.252l-1.051-0.581l-0.321,0.583l0.979,0.541l-0.141,0.252
		l-0.979-0.541L41,20.108l1.049,0.582l-0.139,0.252L40.577,20.204z"/>
	<path fill="#FFFFFF" d="M44.006,22.339l1.493-1.92l1.199,0.934l-0.178,0.229l-0.942-0.733l-0.409,0.525l0.879,0.684l-0.177,0.228
		l-0.879-0.684l-0.555,0.712l0.943,0.733l-0.177,0.228L44.006,22.339z"/>
	<path fill="#FFFFFF" d="M46.777,24.684L46.51,24.44l0.621-2.272l-1.415,1.548l-0.222-0.202l1.64-1.796l0.339,0.31l-0.576,2.082
		l1.298-1.422l0.224,0.203L46.777,24.684z"/>
	<path fill="#FFFFFF" d="M48.462,26.583c-0.104-0.121-0.178-0.249-0.225-0.385c-0.046-0.137-0.062-0.275-0.044-0.417
		c0.018-0.143,0.069-0.285,0.154-0.429c0.085-0.145,0.206-0.282,0.36-0.415s0.307-0.229,0.455-0.288
		c0.147-0.06,0.297-0.087,0.446-0.084c0.146,0.002,0.283,0.035,0.413,0.1c0.129,0.063,0.248,0.158,0.354,0.283
		c0.055,0.062,0.1,0.124,0.137,0.186c0.036,0.062,0.068,0.122,0.094,0.182c0.021,0.051,0.041,0.104,0.059,0.162
		c0.019,0.059,0.032,0.115,0.044,0.176l-0.297,0.254l-0.018-0.021c0.001-0.038,0.001-0.086,0-0.144
		c-0.001-0.059-0.009-0.123-0.023-0.194c-0.016-0.068-0.039-0.138-0.068-0.208c-0.031-0.068-0.078-0.14-0.141-0.213
		c-0.066-0.079-0.146-0.141-0.239-0.183c-0.092-0.042-0.191-0.063-0.301-0.062c-0.106,0.001-0.222,0.029-0.34,0.081
		c-0.12,0.053-0.239,0.129-0.358,0.23c-0.126,0.108-0.223,0.218-0.286,0.326c-0.064,0.107-0.105,0.216-0.124,0.322
		c-0.019,0.104-0.013,0.204,0.018,0.3c0.028,0.097,0.075,0.184,0.143,0.261c0.062,0.07,0.126,0.13,0.194,0.176
		c0.068,0.045,0.137,0.081,0.204,0.104c0.064,0.023,0.125,0.041,0.179,0.051c0.057,0.011,0.102,0.018,0.137,0.021l0.016,0.02
		l-0.292,0.25c-0.053-0.023-0.104-0.046-0.152-0.067s-0.104-0.049-0.163-0.087c-0.062-0.039-0.118-0.078-0.167-0.115
		C48.58,26.712,48.524,26.656,48.462,26.583z"/>
	<path fill="#FFFFFF" d="M49.03,27.176l2.447-0.771l0.233,0.32l-1.479,2.097l-0.202-0.276l0.417-0.576l-0.548-0.75l-0.676,0.222
		L49.03,27.176z M50.618,27.73l0.701-0.977l-1.144,0.372L50.618,27.73z"/>
	<path fill="#FFFFFF" d="M51.355,30.645l-0.221-0.356l0.421-1.164L51.36,28.81l-0.823,0.507l-0.169-0.275l2.07-1.274l0.33,0.534
		c0.072,0.119,0.128,0.224,0.164,0.312c0.037,0.09,0.054,0.185,0.051,0.285c-0.001,0.102-0.025,0.194-0.072,0.281
		c-0.048,0.088-0.125,0.165-0.232,0.231c-0.152,0.094-0.304,0.133-0.452,0.118s-0.29-0.072-0.42-0.176L51.355,30.645z
		 M52.476,29.135c0.062-0.036,0.106-0.08,0.142-0.131c0.032-0.05,0.051-0.106,0.053-0.17c0.002-0.056-0.007-0.111-0.028-0.17
		s-0.057-0.126-0.104-0.203l-0.168-0.273l-0.78,0.479l0.15,0.243c0.048,0.079,0.099,0.146,0.15,0.199
		c0.053,0.056,0.114,0.092,0.187,0.108c0.062,0.017,0.128,0.018,0.192,0.004S52.404,29.179,52.476,29.135z"/>
	<path fill="#FFFFFF" d="M53.401,32.003c-0.197,0.101-0.396,0.149-0.597,0.149c-0.201,0-0.379-0.044-0.537-0.134
		c-0.124-0.075-0.228-0.164-0.308-0.266s-0.166-0.239-0.254-0.417l-0.252-0.5l2.169-1.097l0.25,0.493
		c0.104,0.205,0.169,0.373,0.197,0.505s0.035,0.252,0.022,0.36c-0.021,0.188-0.089,0.356-0.203,0.511
		C53.776,31.765,53.612,31.896,53.401,32.003z M53.253,31.699c0.167-0.084,0.295-0.184,0.386-0.299
		c0.09-0.114,0.141-0.243,0.15-0.386c0.008-0.102,0-0.199-0.023-0.298c-0.022-0.098-0.068-0.212-0.135-0.343l-0.111-0.221L51.847,31
		l0.111,0.22c0.063,0.129,0.131,0.236,0.2,0.321c0.068,0.086,0.15,0.154,0.246,0.207c0.118,0.064,0.247,0.095,0.387,0.089
		C52.93,31.831,53.084,31.785,53.253,31.699z"/>
	<path fill="#FFFFFF" d="M52.786,33.681l-0.366-0.868l0.229-0.097l0.12,0.285l1.781-0.753l-0.119-0.285l0.229-0.096l0.365,0.867
		l-0.229,0.098l-0.12-0.285L52.894,33.3l0.121,0.285L52.786,33.681z"/>
	<path fill="#FFFFFF" d="M55.543,34.997c-0.07,0.122-0.173,0.232-0.307,0.333c-0.133,0.101-0.295,0.183-0.486,0.248
		c-0.187,0.062-0.361,0.097-0.528,0.103c-0.167,0.004-0.316-0.021-0.449-0.076c-0.141-0.059-0.256-0.141-0.351-0.247
		c-0.094-0.107-0.167-0.236-0.218-0.39c-0.055-0.153-0.075-0.304-0.064-0.445c0.01-0.144,0.051-0.276,0.125-0.401
		c0.07-0.124,0.174-0.234,0.308-0.333s0.294-0.18,0.482-0.244c0.192-0.065,0.371-0.102,0.533-0.104s0.312,0.022,0.447,0.076
		c0.131,0.054,0.245,0.134,0.342,0.24c0.097,0.107,0.17,0.238,0.225,0.394c0.053,0.156,0.073,0.308,0.062,0.451
		C55.653,34.744,55.612,34.876,55.543,34.997z M54.642,35.258c0.151-0.052,0.28-0.114,0.389-0.188
		c0.105-0.072,0.188-0.151,0.244-0.237c0.06-0.088,0.094-0.183,0.104-0.281c0.011-0.1-0.003-0.202-0.04-0.31
		c-0.038-0.112-0.09-0.202-0.157-0.271c-0.065-0.068-0.152-0.122-0.257-0.158c-0.099-0.034-0.213-0.047-0.342-0.039
		c-0.13,0.01-0.271,0.038-0.419,0.089c-0.303,0.104-0.512,0.245-0.629,0.428c-0.117,0.181-0.14,0.378-0.066,0.592
		c0.073,0.212,0.212,0.354,0.415,0.427C54.087,35.377,54.34,35.361,54.642,35.258z"/>
	<path fill="#FFFFFF" d="M54.04,37.7l-0.351-1.364l2.354-0.604l0.081,0.313l-2.078,0.532l0.271,1.051L54.04,37.7z"/>
	<path fill="#FFFFFF" d="M56.515,39.269c-0.091,0.108-0.208,0.204-0.354,0.28c-0.146,0.077-0.32,0.134-0.521,0.168
		c-0.192,0.034-0.374,0.04-0.539,0.019s-0.31-0.069-0.433-0.146c-0.128-0.078-0.23-0.178-0.308-0.299
		c-0.075-0.122-0.127-0.26-0.154-0.417c-0.028-0.161-0.026-0.312,0.005-0.452c0.033-0.14,0.096-0.266,0.188-0.378
		c0.091-0.11,0.208-0.205,0.354-0.28c0.146-0.077,0.318-0.133,0.516-0.166c0.202-0.036,0.383-0.042,0.544-0.019
		c0.161,0.022,0.305,0.07,0.431,0.145c0.123,0.073,0.223,0.171,0.301,0.292c0.078,0.119,0.131,0.261,0.159,0.423
		c0.028,0.163,0.024,0.314-0.009,0.456S56.602,39.161,56.515,39.269z M55.583,39.387c0.159-0.028,0.297-0.069,0.413-0.125
		c0.115-0.057,0.209-0.122,0.278-0.198c0.072-0.077,0.12-0.165,0.146-0.263c0.025-0.097,0.029-0.2,0.011-0.312
		c-0.021-0.115-0.059-0.214-0.114-0.292c-0.055-0.08-0.131-0.146-0.229-0.196c-0.093-0.049-0.204-0.08-0.333-0.093
		c-0.13-0.012-0.271-0.005-0.428,0.022c-0.313,0.055-0.543,0.162-0.688,0.323s-0.196,0.354-0.157,0.575
		c0.039,0.221,0.152,0.384,0.344,0.485C55.016,39.418,55.268,39.441,55.583,39.387z"/>
	<path fill="#FFFFFF" d="M54.52,41.323c-0.015-0.172-0.001-0.33,0.039-0.479c0.04-0.146,0.108-0.273,0.208-0.386
		c0.099-0.109,0.226-0.2,0.379-0.269c0.153-0.066,0.333-0.109,0.54-0.127c0.195-0.018,0.374-0.003,0.533,0.038
		c0.158,0.042,0.297,0.108,0.415,0.202c0.114,0.089,0.207,0.203,0.277,0.343c0.068,0.141,0.11,0.295,0.126,0.467
		c0.006,0.082,0.007,0.16,0.001,0.236c-0.006,0.075-0.017,0.147-0.031,0.218c-0.012,0.057-0.027,0.119-0.052,0.188
		c-0.022,0.069-0.043,0.126-0.062,0.168l-0.39,0.032l-0.002-0.027c0.033-0.043,0.062-0.087,0.092-0.134
		c0.027-0.045,0.057-0.107,0.088-0.188c0.026-0.067,0.047-0.146,0.062-0.23c0.015-0.087,0.019-0.179,0.01-0.275
		c-0.021-0.231-0.124-0.414-0.312-0.543c-0.188-0.13-0.427-0.183-0.72-0.157c-0.163,0.015-0.304,0.045-0.421,0.094
		c-0.118,0.048-0.217,0.11-0.296,0.189c-0.077,0.075-0.135,0.166-0.17,0.269c-0.036,0.102-0.048,0.214-0.038,0.337
		c0.009,0.091,0.021,0.181,0.042,0.271c0.021,0.089,0.047,0.163,0.077,0.225l0.628-0.054L55.5,41.164l0.283-0.022l0.073,0.879
		l-1.06,0.088c-0.021-0.039-0.05-0.092-0.084-0.158c-0.033-0.066-0.062-0.13-0.083-0.188c-0.029-0.076-0.054-0.146-0.071-0.21
		C54.54,41.492,54.528,41.414,54.52,41.323z"/>
	<path fill="#FFFFFF" d="M54.651,43.4l-0.015-0.942l0.247-0.004l0.006,0.311l1.938-0.031l-0.006-0.311l0.247-0.004l0.017,0.943
		l-0.248,0.004l-0.005-0.311l-1.938,0.03l0.006,0.311L54.651,43.4z"/>
	<path fill="#FFFFFF" d="M54.652,43.824l2.429,0.107l-0.067,1.521l-0.287-0.013l0.054-1.199l-0.666-0.029l-0.049,1.119l-0.287-0.013
		l0.051-1.119l-0.902-0.04l-0.053,1.198l-0.287-0.012L54.652,43.824z"/>
	<path fill="#FFFFFF" d="M70.901,28.872c-0.048-0.057-0.106-0.083-0.18-0.083c-0.041,0-0.122,0.052-0.246,0.155
		c-0.125,0.104-0.302,0.219-0.529,0.344c-0.229,0.125-0.52,0.234-0.87,0.332c-0.353,0.097-0.78,0.146-1.285,0.146
		c-0.562,0-1.073-0.08-1.537-0.24c-0.465-0.159-0.862-0.391-1.193-0.689c-0.332-0.3-0.59-0.657-0.772-1.068
		c-0.184-0.412-0.274-0.862-0.274-1.352c0-0.409,0.086-0.797,0.258-1.165c0.171-0.369,0.419-0.694,0.743-0.979
		c0.323-0.285,0.716-0.512,1.176-0.68s0.979-0.252,1.557-0.252c0.399,0,0.756,0.034,1.067,0.104
		c0.312,0.066,0.584,0.143,0.816,0.223c0.231,0.081,0.423,0.153,0.57,0.224c0.147,0.066,0.25,0.103,0.306,0.103
		c0.063,0,0.104-0.011,0.121-0.03c0.017-0.021,0.036-0.045,0.061-0.078l0.145,0.098l-0.744,1.285l-0.156-0.072
		c0.041-0.04,0.06-0.092,0.06-0.155s-0.06-0.146-0.18-0.246c-0.12-0.101-0.284-0.196-0.492-0.288s-0.453-0.172-0.732-0.239
		s-0.58-0.104-0.899-0.104c-0.321,0-0.644,0.046-0.967,0.139c-0.325,0.093-0.613,0.233-0.865,0.427
		c-0.252,0.191-0.458,0.438-0.619,0.738c-0.16,0.301-0.239,0.658-0.239,1.074c0,0.359,0.082,0.689,0.245,0.989
		c0.164,0.302,0.383,0.56,0.655,0.774c0.271,0.217,0.582,0.385,0.931,0.505c0.349,0.119,0.708,0.181,1.074,0.181
		c0.288,0,0.562-0.042,0.823-0.127c0.26-0.084,0.489-0.187,0.689-0.308c0.199-0.119,0.359-0.241,0.479-0.365
		s0.181-0.227,0.181-0.307c0-0.072-0.02-0.128-0.061-0.169l0.155-0.096l0.89,1.152L70.901,28.872z"/>
	<path fill="#FFFFFF" d="M71.175,29.587c0.129,0,0.215-0.027,0.259-0.084c0.044-0.056,0.086-0.128,0.126-0.216l1.897-4.351
		c0.039-0.097,0.061-0.165,0.061-0.204c0-0.04-0.021-0.075-0.065-0.107s-0.122-0.052-0.234-0.061v-0.121h1.946v0.146
		c-0.063,0-0.126,0.011-0.187,0.03c-0.061,0.021-0.09,0.058-0.09,0.113c0,0.04,0.01,0.08,0.029,0.12
		c0.021,0.04,0.038,0.08,0.055,0.121l2.054,4.374c0.022,0.058,0.061,0.11,0.107,0.161c0.049,0.053,0.137,0.079,0.265,0.079v0.145
		h-1.514v-0.145c0.145,0,0.24-0.012,0.288-0.036c0.049-0.023,0.072-0.061,0.072-0.107c0-0.056-0.009-0.104-0.023-0.145
		c-0.016-0.041-0.033-0.079-0.049-0.119l-0.492-1.008h-2.918l-0.408,0.911c-0.032,0.072-0.065,0.141-0.104,0.204
		c-0.036,0.063-0.055,0.117-0.055,0.155c0,0.049,0.023,0.084,0.072,0.107c0.049,0.024,0.133,0.036,0.252,0.036v0.145h-1.347
		L71.175,29.587L71.175,29.587z M73.037,27.496h2.342l-1.213-2.521L73.037,27.496z"/>
	<path fill="#FFFFFF" d="M77.718,29.587c0.129,0,0.215-0.021,0.26-0.065c0.044-0.044,0.065-0.134,0.065-0.271v-4.326
		c0-0.136-0.021-0.227-0.065-0.271c-0.044-0.044-0.13-0.065-0.26-0.065v-0.146h1.756v0.146c-0.128,0-0.215,0.011-0.259,0.03
		c-0.044,0.021-0.065,0.046-0.065,0.077c0,0.023,0.044,0.093,0.132,0.205l3.258,3.737v-3.714c0-0.136-0.021-0.227-0.065-0.271
		c-0.044-0.044-0.131-0.065-0.259-0.065v-0.146h1.325v0.146c-0.128,0-0.214,0.021-0.26,0.065c-0.044,0.045-0.064,0.135-0.064,0.271
		v4.326c0,0.137,0.021,0.227,0.064,0.271c0.045,0.044,0.132,0.065,0.26,0.065v0.145h-1.61v-0.145c0.159,0,0.256-0.008,0.288-0.023
		c0.032-0.017,0.049-0.044,0.049-0.084s-0.015-0.073-0.042-0.103c-0.028-0.027-0.062-0.065-0.103-0.113L78.72,25.38v3.87
		c0,0.137,0.021,0.228,0.065,0.271s0.13,0.065,0.259,0.065v0.145h-1.325v-0.144H77.718z"/>
	<path fill="#FFFFFF" d="M83.846,29.587c0.128,0,0.215-0.027,0.259-0.084c0.043-0.056,0.085-0.128,0.126-0.216l1.896-4.351
		c0.04-0.097,0.061-0.165,0.061-0.204c0-0.04-0.021-0.075-0.064-0.107s-0.122-0.052-0.233-0.061v-0.121h1.944v0.146
		c-0.062,0-0.125,0.011-0.187,0.03c-0.061,0.021-0.09,0.058-0.09,0.113c0,0.04,0.01,0.08,0.029,0.12
		c0.021,0.04,0.038,0.08,0.056,0.121l2.054,4.374c0.023,0.058,0.061,0.11,0.108,0.161c0.048,0.053,0.136,0.079,0.264,0.079v0.145
		h-1.513v-0.145c0.145,0,0.239-0.012,0.288-0.036c0.048-0.023,0.071-0.061,0.071-0.107c0-0.056-0.008-0.104-0.023-0.145
		c-0.017-0.04-0.032-0.079-0.048-0.119l-0.493-1.008h-2.918l-0.408,0.911c-0.031,0.072-0.065,0.141-0.104,0.204
		c-0.035,0.063-0.054,0.117-0.054,0.155c0,0.049,0.022,0.084,0.071,0.107c0.047,0.024,0.133,0.036,0.252,0.036v0.145h-1.346
		L83.846,29.587L83.846,29.587z M85.708,27.496h2.341l-1.213-2.521L85.708,27.496z"/>
	<path fill="#FFFFFF" d="M90.594,24.654c-0.037-0.044-0.118-0.065-0.246-0.065v-0.146h2.905c0.473,0,0.881,0.069,1.226,0.204
		c0.346,0.137,0.627,0.322,0.848,0.56c0.221,0.236,0.383,0.516,0.486,0.835c0.104,0.32,0.155,0.669,0.155,1.046
		c0,0.369-0.052,0.715-0.155,1.04c-0.104,0.324-0.267,0.604-0.486,0.841c-0.221,0.237-0.502,0.424-0.848,0.56
		c-0.345,0.137-0.753,0.204-1.226,0.204h-2.905v-0.145c0.128,0,0.209-0.021,0.246-0.065c0.035-0.044,0.054-0.134,0.054-0.271v-4.326
		C90.648,24.788,90.63,24.698,90.594,24.654z M93.11,29.055c0.376,0,0.695-0.053,0.955-0.156c0.262-0.104,0.474-0.246,0.639-0.426
		c0.164-0.18,0.283-0.388,0.359-0.623s0.113-0.49,0.113-0.763c0-0.271-0.037-0.525-0.113-0.762
		c-0.076-0.235-0.196-0.444-0.359-0.624c-0.165-0.181-0.377-0.322-0.639-0.427c-0.26-0.104-0.579-0.155-0.955-0.155h-1.719v3.936
		H93.11z"/>
	<path fill="#FFFFFF" d="M96.941,29.587c0.128,0,0.21-0.021,0.247-0.065s0.055-0.134,0.055-0.271v-4.326
		c0-0.136-0.019-0.227-0.055-0.271c-0.036-0.044-0.118-0.065-0.247-0.065v-0.146h1.345v0.146c-0.128,0-0.211,0.021-0.247,0.065
		c-0.036,0.045-0.055,0.135-0.055,0.271v4.326c0,0.137,0.019,0.227,0.055,0.271s0.117,0.065,0.247,0.065v0.145h-1.345V29.587z"/>
	<path fill="#FFFFFF" d="M98.835,29.587c0.128,0,0.214-0.027,0.26-0.084c0.043-0.056,0.085-0.128,0.125-0.216l1.897-4.351
		c0.04-0.097,0.06-0.165,0.06-0.204c0-0.04-0.021-0.075-0.065-0.107s-0.122-0.052-0.232-0.061v-0.121h1.945v0.146
		c-0.064,0-0.127,0.011-0.188,0.03c-0.06,0.021-0.091,0.058-0.091,0.113c0,0.04,0.012,0.08,0.031,0.12
		c0.021,0.04,0.038,0.08,0.054,0.121l2.054,4.374c0.023,0.058,0.061,0.11,0.107,0.161c0.048,0.053,0.138,0.079,0.266,0.079v0.145
		h-1.514v-0.145c0.145,0,0.24-0.012,0.288-0.036c0.047-0.023,0.071-0.061,0.071-0.107c0-0.056-0.009-0.104-0.023-0.145
		c-0.014-0.041-0.031-0.079-0.047-0.119l-0.493-1.008h-2.918l-0.407,0.911c-0.032,0.072-0.065,0.141-0.103,0.204
		c-0.036,0.063-0.055,0.117-0.055,0.155c0,0.049,0.023,0.084,0.072,0.107c0.048,0.024,0.133,0.036,0.253,0.036v0.145h-1.347
		L98.835,29.587L98.835,29.587L98.835,29.587z M100.697,27.496h2.343l-1.213-2.521L100.697,27.496z"/>
	<path fill="#FFFFFF" d="M105.379,29.587c0.128,0,0.215-0.021,0.259-0.065s0.065-0.134,0.065-0.271v-4.326
		c0-0.136-0.021-0.227-0.065-0.271c-0.043-0.044-0.131-0.065-0.259-0.065v-0.146h1.755v0.146c-0.128,0-0.214,0.011-0.258,0.03
		c-0.044,0.021-0.065,0.046-0.065,0.077c0,0.023,0.044,0.093,0.132,0.205l3.258,3.737v-3.714c0-0.136-0.021-0.227-0.066-0.271
		c-0.043-0.044-0.13-0.065-0.258-0.065v-0.146h1.325v0.146c-0.129,0-0.215,0.021-0.259,0.065c-0.044,0.045-0.065,0.135-0.065,0.271
		v4.326c0,0.137,0.021,0.227,0.065,0.271c0.043,0.044,0.13,0.065,0.259,0.065v0.145h-1.61v-0.145c0.16,0,0.257-0.008,0.288-0.023
		c0.032-0.017,0.048-0.044,0.048-0.084s-0.014-0.073-0.042-0.103c-0.027-0.027-0.062-0.065-0.104-0.113l-3.401-3.883v3.87
		c0,0.137,0.021,0.228,0.065,0.271s0.131,0.065,0.26,0.065v0.145h-1.326V29.587L105.379,29.587z"/>
	<path fill="#FFFFFF" d="M71.148,40.018c0.04,0.052,0.116,0.078,0.229,0.078v0.145h-1.583v-0.145c0.111,0,0.188-0.026,0.229-0.078
		c0.04-0.053,0.061-0.123,0.061-0.211v-2.404h-4.248v2.404c0,0.088,0.021,0.158,0.061,0.211c0.04,0.052,0.116,0.078,0.229,0.078
		v0.145h-1.583v-0.145c0.111,0,0.188-0.026,0.229-0.078c0.04-0.053,0.061-0.122,0.061-0.21v-5.454c0-0.088-0.021-0.158-0.061-0.21
		c-0.04-0.053-0.116-0.079-0.229-0.079V33.92h1.583v0.145c-0.111,0-0.188,0.025-0.229,0.079c-0.04,0.052-0.061,0.122-0.061,0.21
		v2.257h4.248v-2.257c0-0.088-0.021-0.158-0.061-0.21c-0.041-0.053-0.116-0.079-0.229-0.079V33.92h1.583v0.145
		c-0.111,0-0.188,0.025-0.229,0.079c-0.04,0.054-0.061,0.122-0.061,0.21v5.454C71.088,39.896,71.108,39.966,71.148,40.018z"/>
	<path fill="#FFFFFF" d="M72.968,35.163c-0.035-0.044-0.109-0.065-0.223-0.065v-0.145h4.84c0.12,0,0.2-0.021,0.24-0.066
		c0.038-0.044,0.06-0.117,0.06-0.223h0.146v1.254h-0.146c0-0.104-0.021-0.179-0.06-0.223c-0.04-0.045-0.12-0.065-0.24-0.065h-3.771
		v1.56h2.653c0.12,0,0.2-0.021,0.24-0.065s0.062-0.118,0.062-0.223h0.145v1.253h-0.145c0-0.104-0.021-0.178-0.062-0.222
		c-0.04-0.046-0.121-0.066-0.24-0.066h-2.653v1.699h3.902c0.12,0,0.2-0.021,0.241-0.065c0.04-0.044,0.061-0.118,0.061-0.224h0.145
		v1.222h-0.145c0-0.105-0.021-0.175-0.061-0.208c-0.041-0.032-0.121-0.049-0.241-0.049h-4.972v-0.145
		c0.111,0,0.188-0.021,0.223-0.065c0.036-0.045,0.055-0.136,0.055-0.271v-4.325C73.022,35.297,73.004,35.208,72.968,35.163z"/>
	<path fill="#FFFFFF" d="M78.178,40.096c0.128,0,0.213-0.028,0.257-0.084c0.044-0.057,0.087-0.129,0.127-0.217l1.896-4.352
		c0.041-0.096,0.062-0.163,0.062-0.203s-0.021-0.077-0.065-0.108c-0.044-0.032-0.123-0.052-0.233-0.062v-0.119h1.945v0.145
		c-0.063,0-0.126,0.011-0.187,0.029c-0.062,0.021-0.09,0.06-0.09,0.114c0,0.039,0.01,0.079,0.029,0.119
		c0.021,0.041,0.038,0.08,0.056,0.12l2.054,4.374c0.023,0.057,0.061,0.109,0.108,0.163c0.048,0.052,0.136,0.077,0.264,0.077v0.145
		h-1.513v-0.145c0.145,0,0.239-0.012,0.287-0.035c0.049-0.023,0.072-0.061,0.072-0.107c0-0.057-0.008-0.104-0.023-0.146
		c-0.017-0.04-0.032-0.08-0.049-0.119l-0.492-1.008h-2.918l-0.408,0.911c-0.031,0.072-0.065,0.141-0.103,0.204
		c-0.035,0.063-0.054,0.116-0.054,0.156c0,0.048,0.023,0.083,0.071,0.107c0.048,0.023,0.134,0.035,0.252,0.035v0.145H78.18v-0.143
		h-0.002V40.096z M80.039,38.005h2.342l-1.213-2.521L80.039,38.005z"/>
	<path fill="#FFFFFF" d="M85.842,40.031c0.037,0.044,0.119,0.065,0.247,0.065v0.145h-1.343v-0.145c0.128,0,0.21-0.021,0.246-0.065
		c0.035-0.045,0.054-0.136,0.054-0.271v-4.325c0-0.137-0.019-0.227-0.054-0.271c-0.036-0.044-0.118-0.065-0.246-0.065v-0.145h3.677
		c0.529,0,0.914,0.133,1.154,0.396c0.239,0.265,0.36,0.625,0.36,1.083c0,0.465-0.126,0.815-0.379,1.052
		c-0.252,0.237-0.61,0.364-1.076,0.38l1.321,2.016c0.056,0.088,0.104,0.146,0.146,0.174c0.039,0.028,0.092,0.042,0.155,0.042v0.146
		h-1.297v-0.146c0.088,0,0.143-0.005,0.162-0.018S89,40.04,89,40c0-0.041-0.013-0.08-0.036-0.12s-0.057-0.096-0.096-0.168
		l-1.179-1.848h-1.9v1.896C85.788,39.896,85.806,39.986,85.842,40.031z M88.351,37.188c0.289,0,0.492-0.063,0.612-0.191
		c0.121-0.128,0.182-0.324,0.182-0.588c0-0.288-0.062-0.498-0.188-0.63c-0.124-0.132-0.366-0.197-0.729-0.197h-2.442v1.607
		L88.351,37.188L88.351,37.188z"/>
	<path fill="#FFFFFF" d="M95.292,35.909c0-0.104-0.021-0.179-0.061-0.223s-0.12-0.065-0.239-0.065H93.13v4.138
		c0,0.138,0.019,0.228,0.055,0.271c0.037,0.044,0.119,0.065,0.247,0.065v0.145h-1.393v-0.145c0.128,0,0.21-0.021,0.246-0.065
		c0.035-0.045,0.054-0.135,0.054-0.271v-4.138h-1.86c-0.12,0-0.2,0.021-0.24,0.065c-0.039,0.044-0.06,0.119-0.06,0.223h-0.145
		v-1.245h0.145c0,0.104,0.021,0.178,0.06,0.224c0.04,0.044,0.12,0.065,0.24,0.065h4.517c0.119,0,0.199-0.021,0.239-0.065
		c0.04-0.045,0.061-0.118,0.061-0.224h0.145v1.245H95.292z"/>
	<path fill="#FFFFFF" d="M65.894,50.528c0.04,0.053,0.115,0.077,0.229,0.077v0.146H64.54v-0.146c0.111,0,0.188-0.024,0.229-0.077
		c0.04-0.053,0.061-0.122,0.061-0.211v-5.454c0-0.088-0.021-0.157-0.061-0.21c-0.04-0.052-0.116-0.078-0.229-0.078V44.43h4.019
		c0.792,0,1.358,0.149,1.703,0.45c0.343,0.302,0.516,0.735,0.516,1.305c0,0.505-0.132,0.905-0.396,1.202
		c-0.264,0.296-0.694,0.483-1.294,0.565l1.514,2.34c0.088,0.128,0.157,0.212,0.21,0.251c0.053,0.042,0.139,0.062,0.258,0.062v0.146
		h-1.729v-0.146c0.104,0,0.17-0.008,0.198-0.022c0.027-0.018,0.042-0.044,0.042-0.085c0-0.048-0.021-0.092-0.061-0.132l-1.477-2.354
		h-2.207v2.307C65.833,50.406,65.854,50.475,65.894,50.528z M68.461,47.194c0.488,0,0.832-0.092,1.032-0.275
		c0.199-0.185,0.3-0.438,0.3-0.757c0-0.16-0.021-0.296-0.061-0.409c-0.04-0.111-0.111-0.206-0.216-0.282
		c-0.104-0.074-0.246-0.131-0.426-0.168c-0.18-0.035-0.409-0.054-0.689-0.054h-2.567v1.946L68.461,47.194L68.461,47.194z"/>
	<path fill="#FFFFFF" d="M72.295,45.672c-0.036-0.044-0.109-0.065-0.222-0.065v-0.146h4.84c0.12,0,0.199-0.021,0.239-0.064
		c0.04-0.045,0.061-0.119,0.061-0.224h0.146v1.253h-0.146c0-0.104-0.021-0.178-0.061-0.222s-0.119-0.065-0.239-0.065h-3.771v1.56
		h2.653c0.12,0,0.2-0.022,0.24-0.066c0.041-0.044,0.062-0.117,0.062-0.222h0.145v1.252h-0.145c0-0.104-0.021-0.179-0.062-0.223
		c-0.04-0.043-0.12-0.065-0.24-0.065h-2.653v1.699h3.902c0.121,0,0.2-0.022,0.24-0.065c0.04-0.045,0.061-0.117,0.061-0.223h0.146
		v1.22h-0.146c0-0.105-0.021-0.174-0.061-0.208c-0.04-0.031-0.12-0.048-0.24-0.048h-4.972v-0.146c0.111,0,0.187-0.021,0.222-0.064
		c0.036-0.044,0.056-0.134,0.056-0.271v-4.326C72.35,45.806,72.331,45.717,72.295,45.672z"/>
	<path fill="#FFFFFF" d="M78.546,49.271c-0.017,0.08-0.023,0.132-0.023,0.155c0,0.064,0.062,0.139,0.187,0.224
		c0.125,0.083,0.289,0.162,0.493,0.232c0.204,0.072,0.439,0.135,0.708,0.187c0.27,0.054,0.547,0.078,0.835,0.078
		c0.552,0,0.982-0.073,1.291-0.222c0.31-0.148,0.462-0.357,0.462-0.63c0-0.255-0.105-0.436-0.318-0.54
		c-0.214-0.104-0.479-0.178-0.802-0.222c-0.32-0.046-0.668-0.077-1.042-0.098c-0.373-0.021-0.722-0.069-1.041-0.148
		c-0.32-0.08-0.588-0.212-0.801-0.396c-0.214-0.185-0.319-0.46-0.319-0.828c0-0.306,0.062-0.562,0.187-0.773
		c0.125-0.212,0.292-0.384,0.5-0.517c0.209-0.131,0.452-0.229,0.729-0.288c0.275-0.061,0.563-0.089,0.861-0.089
		c0.312,0,0.59,0.021,0.83,0.064c0.241,0.044,0.448,0.096,0.62,0.15c0.174,0.057,0.312,0.106,0.416,0.151
		c0.104,0.044,0.182,0.065,0.229,0.065c0.04,0,0.072-0.01,0.097-0.03c0.023-0.021,0.056-0.064,0.096-0.139l0.156,0.062l-0.447,1.179
		l-0.146-0.061c0.009-0.016,0.015-0.032,0.019-0.054c0.005-0.021,0.007-0.051,0.007-0.091c0-0.063-0.055-0.132-0.163-0.204
		c-0.107-0.071-0.253-0.141-0.435-0.203c-0.182-0.063-0.387-0.116-0.614-0.156s-0.464-0.062-0.704-0.062
		c-0.312,0-0.567,0.025-0.76,0.078s-0.344,0.12-0.452,0.203c-0.107,0.084-0.183,0.182-0.223,0.288
		c-0.04,0.107-0.061,0.218-0.061,0.33c0,0.23,0.104,0.397,0.318,0.497c0.212,0.102,0.479,0.171,0.801,0.209
		c0.32,0.041,0.668,0.07,1.042,0.092c0.373,0.02,0.72,0.068,1.041,0.149c0.32,0.08,0.588,0.209,0.801,0.39
		c0.212,0.179,0.318,0.448,0.318,0.808c0,0.576-0.206,0.997-0.617,1.267c-0.412,0.268-1.078,0.4-1.999,0.4
		c-0.312,0-0.597-0.022-0.854-0.065c-0.258-0.044-0.481-0.096-0.68-0.155c-0.195-0.061-0.362-0.116-0.499-0.168
		c-0.136-0.052-0.235-0.078-0.301-0.078c-0.062,0-0.112,0.021-0.145,0.062c-0.033,0.04-0.057,0.079-0.072,0.119l-0.146-0.049
		l0.47-1.212L78.546,49.271z"/>
	<path fill="#FFFFFF" d="M84.294,45.672c-0.036-0.044-0.109-0.065-0.223-0.065v-0.146h4.84c0.119,0,0.199-0.021,0.239-0.064
		c0.041-0.045,0.062-0.119,0.062-0.224h0.145v1.253h-0.145c0-0.104-0.021-0.178-0.062-0.222c-0.04-0.044-0.12-0.065-0.239-0.065
		H85.14v1.56h2.653c0.12,0,0.2-0.022,0.24-0.066s0.06-0.117,0.06-0.222h0.146v1.252h-0.146c0-0.104-0.02-0.179-0.06-0.223
		c-0.041-0.043-0.12-0.065-0.24-0.065H85.14v1.699h3.902c0.12,0,0.2-0.022,0.24-0.065c0.04-0.045,0.061-0.117,0.061-0.223h0.145
		v1.22h-0.145c0-0.105-0.021-0.174-0.061-0.208c-0.04-0.031-0.12-0.048-0.24-0.048H84.07v-0.146c0.112,0,0.188-0.021,0.223-0.064
		c0.036-0.044,0.055-0.134,0.055-0.271v-4.326C84.348,45.806,84.33,45.717,84.294,45.672z"/>
	<path fill="#FFFFFF" d="M89.503,50.605c0.128,0,0.214-0.026,0.26-0.083c0.043-0.057,0.085-0.129,0.125-0.217l1.896-4.352
		c0.041-0.097,0.061-0.163,0.061-0.204c0-0.04-0.021-0.076-0.066-0.106c-0.044-0.032-0.122-0.053-0.233-0.061v-0.121h1.946v0.146
		c-0.064,0-0.127,0.01-0.188,0.03s-0.091,0.058-0.091,0.112c0,0.041,0.012,0.081,0.031,0.12c0.021,0.041,0.038,0.081,0.054,0.121
		l2.054,4.375c0.023,0.056,0.062,0.109,0.107,0.161c0.048,0.053,0.137,0.078,0.265,0.078v0.146H94.21v-0.146
		c0.146,0,0.24-0.013,0.289-0.035c0.048-0.024,0.071-0.062,0.071-0.107c0-0.056-0.008-0.104-0.023-0.146
		c-0.016-0.04-0.031-0.08-0.048-0.119l-0.493-1.008h-2.919l-0.407,0.911c-0.032,0.071-0.064,0.142-0.103,0.204
		c-0.036,0.063-0.055,0.116-0.055,0.156c0,0.047,0.023,0.083,0.072,0.107c0.048,0.022,0.132,0.035,0.252,0.035v0.146h-1.346
		L89.503,50.605L89.503,50.605z M91.365,48.514h2.342l-1.213-2.521L91.365,48.514z"/>
	<path fill="#FFFFFF" d="M97.167,50.54c0.036,0.044,0.119,0.065,0.247,0.065v0.146H96.07v-0.146c0.129,0,0.21-0.021,0.246-0.064
		c0.037-0.044,0.055-0.134,0.055-0.271v-4.326c0-0.137-0.019-0.227-0.055-0.271s-0.117-0.065-0.246-0.065v-0.146h3.678
		c0.528,0,0.914,0.133,1.153,0.396c0.241,0.267,0.361,0.626,0.361,1.083c0,0.467-0.126,0.815-0.38,1.054
		c-0.252,0.236-0.61,0.363-1.075,0.379l1.32,2.017c0.058,0.088,0.104,0.146,0.146,0.174c0.04,0.027,0.093,0.042,0.156,0.042v0.146
		h-1.298v-0.146c0.089,0,0.143-0.007,0.162-0.019c0.021-0.011,0.03-0.038,0.03-0.079c0-0.04-0.013-0.078-0.037-0.118
		c-0.022-0.04-0.057-0.097-0.097-0.168l-1.178-1.849h-1.901v1.896C97.114,50.406,97.131,50.495,97.167,50.54z M99.677,47.698
		c0.289,0,0.494-0.064,0.613-0.192c0.121-0.127,0.182-0.323,0.182-0.588c0-0.288-0.062-0.498-0.187-0.629
		c-0.125-0.134-0.368-0.198-0.729-0.198h-2.442v1.607H99.677z"/>
	<path fill="#FFFFFF" d="M106.569,46.961c0.017-0.047,0.023-0.08,0.023-0.096v-0.108c0-0.047-0.052-0.109-0.155-0.187
		c-0.104-0.076-0.242-0.151-0.414-0.229c-0.172-0.075-0.363-0.14-0.576-0.191c-0.212-0.053-0.426-0.077-0.643-0.077
		c-0.345,0-0.653,0.054-0.926,0.162c-0.271,0.106-0.504,0.256-0.696,0.442c-0.191,0.188-0.338,0.405-0.438,0.652
		c-0.101,0.248-0.149,0.512-0.149,0.792c0,0.278,0.05,0.539,0.149,0.778c0.101,0.24,0.243,0.446,0.433,0.618
		c0.188,0.172,0.41,0.308,0.668,0.406c0.257,0.101,0.54,0.151,0.853,0.151c0.312,0,0.591-0.033,0.834-0.098
		c0.244-0.063,0.451-0.143,0.618-0.233c0.168-0.093,0.296-0.186,0.386-0.277c0.088-0.091,0.132-0.16,0.132-0.21
		c0-0.087-0.017-0.167-0.048-0.239l0.119-0.07l0.841,1.104l-0.133,0.096c-0.063-0.048-0.111-0.078-0.144-0.089
		c-0.032-0.014-0.061-0.019-0.085-0.019c-0.071,0-0.17,0.04-0.294,0.119c-0.124,0.08-0.285,0.167-0.486,0.264
		c-0.2,0.097-0.438,0.18-0.714,0.251c-0.276,0.072-0.605,0.108-0.99,0.108c-0.408,0-0.791-0.056-1.146-0.163
		c-0.355-0.108-0.667-0.276-0.932-0.504c-0.264-0.228-0.472-0.511-0.623-0.846c-0.152-0.336-0.229-0.721-0.229-1.151
		c0-0.434,0.077-0.816,0.233-1.151c0.155-0.336,0.37-0.619,0.644-0.852c0.271-0.231,0.588-0.41,0.948-0.534
		c0.359-0.125,0.744-0.186,1.152-0.186c0.345,0,0.628,0.02,0.853,0.06c0.225,0.042,0.457,0.104,0.696,0.192
		c0.16,0.058,0.292,0.108,0.396,0.158c0.104,0.048,0.185,0.072,0.239,0.072c0.063,0,0.129-0.044,0.192-0.133l0.146,0.049
		l-0.589,1.238L106.569,46.961z"/>
	<path fill="#FFFFFF" d="M113.563,50.54c0.036,0.044,0.118,0.064,0.246,0.064v0.146h-1.344v-0.146c0.129,0,0.21-0.021,0.247-0.064
		c0.036-0.044,0.055-0.134,0.055-0.271v-1.995h-3.63v1.995c0,0.137,0.018,0.227,0.054,0.271c0.036,0.044,0.118,0.064,0.246,0.064
		v0.146h-1.343v-0.146c0.128,0,0.211-0.021,0.246-0.064c0.036-0.044,0.055-0.134,0.055-0.271v-4.326
		c0-0.137-0.019-0.227-0.055-0.271c-0.035-0.044-0.117-0.065-0.246-0.065v-0.146h1.343v0.146c-0.128,0-0.21,0.021-0.246,0.064
		c-0.036,0.045-0.054,0.136-0.054,0.271v1.656h3.63v-1.656c0-0.136-0.02-0.227-0.055-0.271c-0.037-0.043-0.117-0.064-0.247-0.064
		v-0.146h1.344v0.146c-0.128,0-0.21,0.021-0.246,0.065s-0.055,0.135-0.055,0.271v4.326C113.509,50.406,113.527,50.495,113.563,50.54
		z"/>
	<path fill="#FFFFFF" d="M70.901,60.4c-0.048-0.057-0.106-0.083-0.18-0.083c-0.041,0-0.122,0.052-0.246,0.155
		c-0.125,0.104-0.302,0.22-0.529,0.343c-0.229,0.125-0.52,0.235-0.87,0.333c-0.353,0.096-0.78,0.145-1.285,0.145
		c-0.562,0-1.073-0.08-1.537-0.24c-0.465-0.159-0.862-0.39-1.193-0.689c-0.332-0.301-0.59-0.656-0.772-1.069
		c-0.184-0.412-0.274-0.861-0.274-1.352c0-0.407,0.086-0.796,0.258-1.166c0.171-0.366,0.419-0.693,0.743-0.979
		c0.323-0.283,0.716-0.511,1.176-0.678c0.46-0.168,0.979-0.252,1.557-0.252c0.399,0,0.756,0.032,1.067,0.102
		c0.312,0.068,0.584,0.143,0.816,0.223c0.231,0.081,0.423,0.153,0.57,0.223c0.147,0.067,0.25,0.103,0.306,0.103
		c0.063,0,0.104-0.01,0.121-0.029c0.017-0.021,0.036-0.046,0.061-0.078l0.145,0.097l-0.744,1.285l-0.156-0.072
		c0.041-0.04,0.06-0.091,0.06-0.155c0-0.062-0.06-0.146-0.18-0.246s-0.284-0.195-0.492-0.289c-0.208-0.091-0.453-0.171-0.732-0.239
		c-0.279-0.067-0.58-0.103-0.899-0.103c-0.321,0-0.644,0.045-0.967,0.139c-0.325,0.092-0.613,0.234-0.865,0.427
		c-0.252,0.191-0.458,0.438-0.619,0.738c-0.16,0.3-0.239,0.657-0.239,1.073c0,0.359,0.082,0.69,0.245,0.989
		c0.164,0.301,0.383,0.56,0.655,0.775s0.582,0.384,0.931,0.503c0.349,0.121,0.708,0.18,1.074,0.18c0.288,0,0.562-0.042,0.823-0.126
		c0.26-0.084,0.489-0.187,0.689-0.307c0.199-0.12,0.359-0.242,0.479-0.366c0.12-0.125,0.181-0.227,0.181-0.306
		c0-0.073-0.02-0.129-0.061-0.169l0.155-0.096l0.89,1.152L70.901,60.4z"/>
	<path fill="#FFFFFF" d="M72.295,56.182c-0.036-0.044-0.109-0.064-0.222-0.064v-0.146h4.84c0.12,0,0.199-0.021,0.239-0.065
		s0.061-0.118,0.061-0.223h0.146v1.253h-0.146c0-0.104-0.021-0.179-0.061-0.224c-0.04-0.044-0.119-0.063-0.239-0.063h-3.771v1.559
		h2.653c0.12,0,0.2-0.021,0.24-0.065c0.041-0.044,0.062-0.118,0.062-0.224h0.145v1.253h-0.145c0-0.104-0.021-0.178-0.062-0.222
		c-0.04-0.044-0.12-0.066-0.24-0.066h-2.653v1.699h3.902c0.121,0,0.2-0.021,0.24-0.064c0.04-0.045,0.061-0.119,0.061-0.224h0.146
		v1.221h-0.146c0-0.104-0.021-0.175-0.061-0.207c-0.04-0.033-0.12-0.05-0.24-0.05h-4.972v-0.144c0.111,0,0.187-0.021,0.222-0.066
		c0.036-0.044,0.056-0.134,0.056-0.271v-4.326C72.35,56.316,72.331,56.225,72.295,56.182z"/>
	<path fill="#FFFFFF" d="M78.379,61.115c0.128,0,0.214-0.021,0.259-0.066c0.044-0.044,0.065-0.134,0.065-0.271v-4.326
		c0-0.137-0.021-0.228-0.065-0.271c-0.045-0.044-0.131-0.064-0.259-0.064v-0.146h1.755v0.146c-0.128,0-0.214,0.009-0.258,0.028
		c-0.044,0.021-0.065,0.046-0.065,0.078c0,0.024,0.044,0.093,0.132,0.204l3.258,3.738v-3.714c0-0.137-0.021-0.228-0.066-0.271
		c-0.044-0.044-0.13-0.064-0.258-0.064v-0.146H84.2v0.146c-0.129,0-0.215,0.021-0.259,0.064c-0.044,0.043-0.065,0.134-0.065,0.271
		v4.326c0,0.137,0.021,0.227,0.065,0.271c0.044,0.045,0.13,0.066,0.259,0.066v0.144h-1.61v-0.144c0.16,0,0.258-0.008,0.289-0.023
		c0.032-0.016,0.048-0.045,0.048-0.084c0-0.041-0.014-0.073-0.042-0.103c-0.027-0.028-0.062-0.065-0.103-0.113l-3.401-3.881v3.868
		c0,0.137,0.021,0.228,0.065,0.271c0.045,0.046,0.131,0.066,0.259,0.066v0.144H78.38L78.379,61.115L78.379,61.115z"/>
	<path fill="#FFFFFF" d="M89.839,56.927c0-0.104-0.021-0.177-0.061-0.222c-0.041-0.043-0.12-0.065-0.239-0.065h-1.862v4.138
		c0,0.137,0.019,0.228,0.055,0.271s0.118,0.066,0.246,0.066v0.144h-1.394v-0.144c0.128,0,0.21-0.021,0.246-0.066
		c0.037-0.044,0.054-0.135,0.054-0.271V56.64h-1.86c-0.121,0-0.199,0.022-0.24,0.065c-0.04,0.045-0.061,0.118-0.061,0.222H84.58
		v-1.244h0.145c0,0.104,0.021,0.178,0.061,0.223c0.041,0.045,0.119,0.064,0.24,0.064h4.517c0.119,0,0.199-0.021,0.239-0.064
		c0.04-0.045,0.061-0.118,0.061-0.223h0.145v1.244H89.839z"/>
	<path fill="#FFFFFF" d="M91.499,61.049c0.036,0.044,0.118,0.065,0.246,0.065v0.144h-1.344v-0.144c0.128,0,0.21-0.021,0.246-0.066
		c0.036-0.044,0.055-0.134,0.055-0.271v-4.326c0-0.137-0.019-0.228-0.055-0.271c-0.036-0.044-0.118-0.064-0.246-0.064v-0.146h3.679
		c0.527,0,0.913,0.132,1.152,0.396c0.24,0.265,0.36,0.627,0.36,1.084c0,0.464-0.126,0.814-0.379,1.053
		c-0.252,0.236-0.61,0.363-1.075,0.378l1.32,2.017c0.057,0.088,0.104,0.146,0.145,0.174c0.04,0.028,0.092,0.042,0.155,0.042v0.144
		h-1.297v-0.144c0.088,0,0.144-0.006,0.163-0.02c0.021-0.012,0.03-0.038,0.03-0.078c0-0.039-0.014-0.079-0.036-0.119
		c-0.023-0.04-0.057-0.097-0.097-0.168l-1.178-1.849h-1.901v1.896C91.444,60.915,91.462,61.005,91.499,61.049z M94.007,58.207
		c0.289,0,0.493-0.062,0.614-0.19c0.12-0.128,0.181-0.324,0.181-0.589c0-0.288-0.062-0.498-0.188-0.631
		c-0.123-0.131-0.366-0.197-0.728-0.197h-2.443v1.608L94.007,58.207L94.007,58.207z"/>
	<path fill="#FFFFFF" d="M96.953,56.182c-0.036-0.044-0.11-0.064-0.223-0.064v-0.146h4.84c0.12,0,0.2-0.021,0.24-0.065
		s0.061-0.118,0.061-0.223h0.146v1.253h-0.146c0-0.104-0.021-0.179-0.061-0.224c-0.041-0.044-0.121-0.063-0.24-0.063h-3.771v1.559
		h2.654c0.12,0,0.2-0.021,0.239-0.065c0.041-0.044,0.062-0.118,0.062-0.224h0.145v1.253h-0.145c0-0.104-0.021-0.178-0.062-0.222
		c-0.04-0.044-0.12-0.066-0.239-0.066h-2.654v1.699h3.903c0.119,0,0.199-0.021,0.24-0.064c0.04-0.045,0.061-0.119,0.061-0.224h0.145
		v1.221h-0.145c0-0.104-0.021-0.175-0.061-0.207c-0.041-0.033-0.121-0.05-0.24-0.05H96.73v-0.144c0.111,0,0.187-0.021,0.223-0.066
		c0.035-0.044,0.054-0.134,0.054-0.271v-4.326C97.006,56.316,96.989,56.225,96.953,56.182z"/>
</g>
</svg>
