<?xml version="1.0" encoding="utf-8"?>
<!-- Generator: Adobe Illustrator 16.0.0, SVG Export Plug-In . SVG Version: 6.00 Build 0)  -->
<!DOCTYPE svg PUBLIC "-//W3C//DTD SVG 1.1//EN" "http://www.w3.org/Graphics/SVG/1.1/DTD/svg11.dtd">
<svg version="1.1" id="svg2" xmlns:svg="http://www.w3.org/2000/svg"
	 xmlns="http://www.w3.org/2000/svg" xmlns:xlink="http://www.w3.org/1999/xlink" x="0px" y="0px" width="299.667px"
	 height="19.833px" viewBox="0 0 299.667 19.833" enable-background="new 0 0 299.667 19.833" xml:space="preserve">
<g>
	<g>
		<defs>
			<path id="SVGID_1_" d="M62.934,4.259H9.053V3.697l54.366,0.021C63.294,3.864,63.137,4.013,62.934,4.259"/>
		</defs>
		<clipPath id="SVGID_2_">
			<use xlink:href="#SVGID_1_"  overflow="visible"/>
		</clipPath>
		<g transform="matrix(1 0 0 1 0 9.536743e-07)" clip-path="url(#SVGID_2_)">
			
				<image overflow="visible" enable-background="new    " width="464" height="17" xlink:href="158EF4A.jpg"  transform="matrix(0.1181 0 0 0.1358 8.8232 2.8882)">
			</image>
		</g>
	</g>
</g>
<g>
	<g>
		<defs>
			<path id="SVGID_3_" d="M61.694,6.093H5.799V5.529h56.2C61.859,5.77,61.804,5.888,61.694,6.093"/>
		</defs>
		<clipPath id="SVGID_4_">
			<use xlink:href="#SVGID_3_"  overflow="visible"/>
		</clipPath>
		<g transform="matrix(1 0 0 1 3.814697e-06 9.536743e-07)" clip-path="url(#SVGID_4_)">
			
				<image overflow="visible" enable-background="new    " width="481" height="17" xlink:href="158EF4B.jpg"  transform="matrix(0.1177 0 0 0.1354 5.5698 4.6978)">
			</image>
		</g>
	</g>
</g>
<g>
	<g>
		<defs>
			<path id="SVGID_5_" d="M63.521,15.257H9.066l-0.013-0.563h53.951C63.159,14.893,63.521,15.257,63.521,15.257"/>
		</defs>
		<clipPath id="SVGID_6_">
			<use xlink:href="#SVGID_5_"  overflow="visible"/>
		</clipPath>
		<g transform="matrix(1 0 0 1 -3.814697e-06 0)" clip-path="url(#SVGID_6_)">
			
				<image overflow="visible" enable-background="new    " width="464" height="17" xlink:href="158EF52.jpg"  transform="matrix(0.1184 0 0 0.1361 8.8232 13.8472)">
			</image>
		</g>
	</g>
</g>
<g>
	<g>
		<defs>
			<path id="SVGID_7_" d="M62.055,13.423H5.812l-0.013-0.562h55.934C61.831,13.085,61.878,13.117,62.055,13.423"/>
		</defs>
		<clipPath id="SVGID_8_">
			<use xlink:href="#SVGID_7_"  overflow="visible"/>
		</clipPath>
		<g transform="matrix(1 0 0 1 3.814697e-06 0)" clip-path="url(#SVGID_8_)">
			
				<image overflow="visible" enable-background="new    " width="481" height="17" xlink:href="158EF53.jpg"  transform="matrix(0.1177 0 0 0.1354 5.5698 12.0474)">
			</image>
		</g>
	</g>
</g>
<g>
	<g>
		<defs>
			<path id="SVGID_9_" d="M61.2,11.591H4.808v-0.563h56.258C61.128,11.312,61.169,11.487,61.2,11.591"/>
		</defs>
		<clipPath id="SVGID_10_">
			<use xlink:href="#SVGID_9_"  overflow="visible"/>
		</clipPath>
		<g clip-path="url(#SVGID_10_)">
			
				<image overflow="visible" enable-background="new    " width="481" height="17" xlink:href="158EF54.jpg"  transform="matrix(0.1179 0 0 0.1357 4.606 10.2397)">
			</image>
		</g>
	</g>
</g>
<g>
	<g>
		<defs>
			<path id="SVGID_11_" d="M60.878,9.757H4.002V9.195h56.876c-0.006,0.102-0.016,0.199-0.016,0.305l0,0l0,0
				C60.863,9.587,60.875,9.671,60.878,9.757"/>
		</defs>
		<clipPath id="SVGID_12_">
			<use xlink:href="#SVGID_11_"  overflow="visible"/>
		</clipPath>
		<g transform="matrix(1 0 0 1 3.814697e-06 0)" clip-path="url(#SVGID_12_)">
			
				<image overflow="visible" enable-background="new    " width="481" height="17" xlink:href="158EF55.jpg"  transform="matrix(0.1189 0 0 0.1393 3.8843 8.3403)">
			</image>
		</g>
	</g>
</g>
<g>
	<g>
		<defs>
			<path id="SVGID_13_" d="M61.035,7.925H4.807L4.82,7.363h56.372C61.105,7.636,61.074,7.739,61.035,7.925"/>
		</defs>
		<clipPath id="SVGID_14_">
			<use xlink:href="#SVGID_13_"  overflow="visible"/>
		</clipPath>
		<g clip-path="url(#SVGID_14_)">
			
				<image overflow="visible" enable-background="new    " width="481" height="17" xlink:href="158EF56.jpg"  transform="matrix(0.1179 0 0 0.1357 4.606 6.5034)">
			</image>
		</g>
	</g>
</g>
<g>
	<g>
		<defs>
			<path id="SVGID_15_" d="M292.475,15.257L292.475,15.257l-54.365-0.022c0.125-0.146,0.281-0.295,0.486-0.541h53.879V15.257"/>
		</defs>
		<clipPath id="SVGID_16_">
			<use xlink:href="#SVGID_15_"  overflow="visible"/>
		</clipPath>
		<g transform="matrix(1 0 0 1 -1.525879e-05 -1.907349e-06)" clip-path="url(#SVGID_16_)">
			
				<image overflow="visible" enable-background="new    " width="456" height="17" xlink:href="158EF57.jpg"  transform="matrix(0.1199 0 0 0.1379 237.9302 13.8335)">
			</image>
		</g>
	</g>
</g>
<g>
	<g>
		<defs>
			<path id="SVGID_17_" d="M295.729,13.423h-56.2c0.142-0.24,0.196-0.357,0.308-0.562h55.895v0.562"/>
		</defs>
		<clipPath id="SVGID_18_">
			<use xlink:href="#SVGID_17_"  overflow="visible"/>
		</clipPath>
		<g transform="matrix(1 0 0 1 1.525879e-05 1.907349e-06)" clip-path="url(#SVGID_18_)">
			
				<image overflow="visible" enable-background="new    " width="481" height="17" xlink:href="158EF58.jpg"  transform="matrix(0.1174 0 0 0.1351 239.3745 12.0503)">
			</image>
		</g>
	</g>
</g>
<g>
	<g>
		<defs>
			<path id="SVGID_19_" d="M292.475,4.259h-53.95c-0.154-0.199-0.519-0.562-0.519-0.562h54.457L292.475,4.259"/>
		</defs>
		<clipPath id="SVGID_20_">
			<use xlink:href="#SVGID_19_"  overflow="visible"/>
		</clipPath>
		<g transform="matrix(1 0 0 1 0 9.536743e-07)" clip-path="url(#SVGID_20_)">
			
				<image overflow="visible" enable-background="new    " width="464" height="17" xlink:href="31DA9938.jpg"  transform="matrix(0.1181 0 0 0.1358 237.8091 2.8882)">
			</image>
		</g>
	</g>
</g>
<g>
	<g>
		<defs>
			<path id="SVGID_21_" d="M295.729,6.093h-55.934c-0.098-0.226-0.146-0.258-0.322-0.564h56.242L295.729,6.093"/>
		</defs>
		<clipPath id="SVGID_22_">
			<use xlink:href="#SVGID_21_"  overflow="visible"/>
		</clipPath>
		<g transform="matrix(1 0 0 1 0 9.536743e-07)" clip-path="url(#SVGID_22_)">
			
				<image overflow="visible" enable-background="new    " width="481" height="17" xlink:href="31DA9939.jpg"  transform="matrix(0.1177 0 0 0.1354 239.2544 4.6978)">
			</image>
		</g>
	</g>
</g>
<g>
	<g>
		<defs>
			<path id="SVGID_23_" d="M296.721,7.925h-56.26c-0.062-0.285-0.103-0.459-0.133-0.562h56.393V7.925"/>
		</defs>
		<clipPath id="SVGID_24_">
			<use xlink:href="#SVGID_23_"  overflow="visible"/>
		</clipPath>
		<g clip-path="url(#SVGID_24_)">
			
				<image overflow="visible" enable-background="new    " width="473" height="17" xlink:href="31DA993A.jpg"  transform="matrix(0.1199 0 0 0.1379 240.0981 6.4839)">
			</image>
		</g>
	</g>
</g>
<g>
	<g>
		<defs>
			<path id="SVGID_25_" d="M297.528,9.757h-56.877c0.006-0.103,0.016-0.198,0.016-0.303l0,0l0,0c0-0.091-0.012-0.174-0.016-0.261
				h56.877V9.757"/>
		</defs>
		<clipPath id="SVGID_26_">
			<use xlink:href="#SVGID_25_"  overflow="visible"/>
		</clipPath>
		<g transform="matrix(1 0 0 1 0 0)" clip-path="url(#SVGID_26_)">
			
				<image overflow="visible" enable-background="new    " width="481" height="17" xlink:href="31DA993B.jpg"  transform="matrix(0.1189 0 0 0.1393 240.4595 8.3403)">
			</image>
		</g>
	</g>
</g>
<g>
	<g>
		<defs>
			<path id="SVGID_27_" d="M296.708,11.591h-56.37c0.086-0.275,0.116-0.379,0.155-0.563h56.229L296.708,11.591"/>
		</defs>
		<clipPath id="SVGID_28_">
			<use xlink:href="#SVGID_27_"  overflow="visible"/>
		</clipPath>
		<g clip-path="url(#SVGID_28_)">
			
				<image overflow="visible" enable-background="new    " width="473" height="17" xlink:href="31DA993C.jpg"  transform="matrix(0.1197 0 0 0.1377 240.2192 10.2212)">
			</image>
		</g>
	</g>
</g>
<path fill="#0065A4" d="M116.42,5.984c0-0.365-0.102-0.445-0.386-0.445c-0.183,0-0.264-0.082-0.264-0.184s0.041-0.162,0.224-0.244
	l0.873-0.386c0.184-0.082,0.326-0.162,0.447-0.162c0.142,0,0.244,0.081,0.244,0.345v7.432c0,0.326,0.122,0.386,0.305,0.406
	l0.183,0.02c0.142,0.021,0.203,0.103,0.203,0.225s-0.081,0.225-0.284,0.225h-1.949c-0.204,0-0.284-0.103-0.284-0.225
	s0.061-0.203,0.203-0.225l0.182-0.02c0.183-0.021,0.305-0.082,0.305-0.406V5.984H116.42z M112.684,12.765
	c0.975,0,1.523-0.831,1.523-2.131c0-1.319-0.548-2.172-1.523-2.172c-0.934,0-1.502,0.853-1.502,2.172
	C111.182,11.933,111.75,12.765,112.684,12.765L112.684,12.765z M112.684,7.852c1.646,0,2.781,1.075,2.781,2.78
	c0,1.687-1.136,2.742-2.781,2.742c-1.644,0-2.761-1.057-2.761-2.742C109.922,8.927,111.04,7.852,112.684,7.852L112.684,7.852z
	 M108.846,12.116c0,0.427,0.142,0.569,0.365,0.569c0.304,0,0.467-0.204,0.67-0.204c0.142,0,0.224,0.122,0.224,0.265
	c0,0.264-0.59,0.629-1.299,0.629c-0.895,0-1.098-0.467-1.098-1.238V8.929c0-0.284-0.061-0.365-0.324-0.365h-0.203
	c-0.203,0-0.284-0.102-0.284-0.264c0-0.203,0.101-0.285,0.304-0.285h0.508V6.371c0-0.162,0.042-0.223,0.163-0.285l0.527-0.264
	c0.102-0.041,0.183-0.102,0.265-0.102c0.122,0,0.182,0.08,0.182,0.223v2.07h0.792c0.203,0,0.304,0.082,0.304,0.285
	c0,0.162-0.081,0.264-0.284,0.264h-0.487c-0.264,0-0.324,0.081-0.324,0.365L108.846,12.116L108.846,12.116z M103.059,9.212
	c0-0.711,0.507-1.359,1.665-1.359c0.264,0,0.508,0.041,0.69,0.102c0.122,0.041,0.203,0.082,0.324,0.082
	c0.102,0,0.143-0.062,0.184-0.103c0.061-0.062,0.122-0.103,0.203-0.103c0.163,0,0.203,0.103,0.284,0.387
	c0.122,0.568,0.163,0.791,0.163,0.894c0,0.162-0.081,0.244-0.223,0.244c-0.203,0-0.284-0.203-0.447-0.406
	c-0.285-0.364-0.65-0.528-1.036-0.528c-0.427,0-0.67,0.244-0.67,0.549c0,0.914,2.559,1.156,2.559,2.843
	c0,1.075-0.996,1.563-1.807,1.563c-0.671,0-0.914-0.203-1.137-0.203c-0.224,0-0.244,0.203-0.447,0.203
	c-0.162,0-0.243-0.103-0.284-0.387c-0.081-0.568-0.162-0.873-0.162-0.994c0-0.162,0.082-0.305,0.244-0.305
	c0.183,0,0.244,0.082,0.487,0.467c0.245,0.387,0.67,0.607,1.198,0.607c0.508,0,0.771-0.303,0.771-0.709
	C105.617,11,103.059,10.695,103.059,9.212L103.059,9.212z M101.374,5.111c0.385,0,0.711,0.325,0.711,0.711
	c0,0.387-0.326,0.711-0.711,0.711c-0.387,0-0.711-0.324-0.711-0.711C100.663,5.436,100.987,5.111,101.374,5.111L101.374,5.111z
	 M100.845,9.273c0-0.365-0.101-0.446-0.385-0.446c-0.184,0-0.264-0.081-0.264-0.183s0.04-0.162,0.223-0.244l0.874-0.387
	c0.183-0.08,0.324-0.161,0.446-0.161c0.142,0,0.244,0.081,0.244,0.345v4.143c0,0.326,0.122,0.386,0.305,0.406l0.183,0.02
	c0.142,0.021,0.203,0.103,0.203,0.225s-0.081,0.225-0.284,0.225h-1.949c-0.204,0-0.285-0.103-0.285-0.225s0.061-0.203,0.204-0.225
	l0.183-0.02c0.182-0.021,0.304-0.082,0.304-0.406V9.273H100.845z M96.723,9.273c0-0.365-0.101-0.446-0.385-0.446
	c-0.183,0-0.265-0.081-0.265-0.183s0.041-0.162,0.224-0.244l0.874-0.387c0.182-0.08,0.325-0.161,0.447-0.161
	c0.142,0,0.244,0.081,0.244,0.345v0.508h0.04c0.224-0.486,0.569-0.812,1.158-0.812c0.446,0,0.791,0.284,0.791,0.467
	c0,0.081-0.061,0.203-0.243,0.427c-0.122,0.141-0.224,0.264-0.345,0.264c-0.102,0-0.184-0.062-0.305-0.143
	c-0.102-0.061-0.204-0.102-0.346-0.102c-0.446,0-0.751,0.365-0.751,1.32v2.213c0,0.324,0.122,0.385,0.305,0.406l0.183,0.02
	c0.142,0.021,0.203,0.102,0.203,0.224s-0.082,0.224-0.284,0.224h-1.95c-0.203,0-0.284-0.102-0.284-0.224s0.061-0.202,0.203-0.224
	l0.182-0.02c0.184-0.021,0.305-0.082,0.305-0.406L96.723,9.273L96.723,9.273z M91.363,11.548c0,0.812,0.142,1.177,1.157,1.177
	c1.219,0,1.767-0.974,1.767-1.908c0-1.076-0.548-1.929-1.767-1.929h-0.284c-0.243,0-0.386-0.123-0.386-0.325
	c0-0.224,0.143-0.306,0.366-0.325l0.283-0.021c0.792-0.061,1.482-0.467,1.482-1.502c0-0.894-0.446-1.584-1.482-1.584
	c-0.812,0-1.136,0.285-1.136,1.117V11.548L91.363,11.548z M90.022,6.085c0-0.326-0.061-0.387-0.305-0.427
	c-0.203-0.041-0.264-0.103-0.264-0.223c0-0.386,1.441-0.955,3.045-0.955c1.747,0,2.864,0.711,2.864,2.132
	c0,0.895-0.65,1.625-1.726,1.828v0.041c1.442,0.162,2.112,1.016,2.112,2.193c0,1.522-1.036,2.699-3.29,2.699
	c-1.523,0-3.026-0.426-3.026-0.934c0-0.143,0.082-0.225,0.284-0.264c0.264-0.041,0.305-0.103,0.305-0.609L90.022,6.085L90.022,6.085
	z"/>
<path fill="#0065A4" d="M145.295,9.212c0-0.711,0.506-1.359,1.664-1.359c0.265,0,0.509,0.041,0.69,0.102
	c0.121,0.041,0.203,0.082,0.324,0.082c0.103,0,0.143-0.062,0.184-0.103c0.061-0.062,0.122-0.103,0.203-0.103
	c0.162,0,0.203,0.103,0.285,0.387c0.121,0.568,0.16,0.791,0.16,0.894c0,0.162-0.08,0.244-0.223,0.244
	c-0.203,0-0.283-0.203-0.447-0.406c-0.283-0.364-0.648-0.528-1.035-0.528c-0.426,0-0.67,0.244-0.67,0.549
	c0,0.914,2.56,1.156,2.56,2.843c0,1.075-0.995,1.563-1.808,1.563c-0.67,0-0.914-0.203-1.137-0.203c-0.224,0-0.245,0.203-0.447,0.203
	c-0.162,0-0.243-0.103-0.284-0.387c-0.081-0.568-0.162-0.873-0.162-0.994c0-0.162,0.081-0.305,0.243-0.305
	c0.184,0,0.244,0.082,0.487,0.467c0.244,0.387,0.671,0.607,1.198,0.607c0.509,0,0.771-0.303,0.771-0.709
	C147.852,11,145.295,10.695,145.295,9.212L145.295,9.212z M142.026,9.273c0-0.365-0.102-0.446-0.386-0.446
	c-0.183,0-0.264-0.081-0.264-0.183s0.04-0.162,0.223-0.244l0.873-0.387c0.183-0.08,0.324-0.161,0.447-0.161
	c0.143,0,0.243,0.081,0.243,0.345v0.508h0.04c0.224-0.486,0.569-0.812,1.158-0.812c0.447,0,0.792,0.284,0.792,0.467
	c0,0.081-0.062,0.203-0.244,0.427c-0.122,0.141-0.224,0.264-0.345,0.264c-0.103,0-0.183-0.062-0.306-0.143
	c-0.101-0.061-0.202-0.102-0.345-0.102c-0.446,0-0.751,0.365-0.751,1.32v2.213c0,0.324,0.121,0.385,0.305,0.406l0.183,0.02
	c0.143,0.021,0.203,0.102,0.203,0.224s-0.081,0.224-0.285,0.224h-1.948c-0.203,0-0.284-0.102-0.284-0.224s0.061-0.202,0.202-0.224
	l0.184-0.02c0.183-0.021,0.305-0.082,0.305-0.406V9.273L142.026,9.273z M138.777,11.121c-0.223,0.143-0.326,0.204-0.487,0.204
	c-0.163,0-0.284-0.163-0.284-0.284c0-0.162,0.082-0.285,0.304-0.427l1.037-0.649c0.385-0.224,0.426-0.326,0.426-0.629
	c0-0.447-0.365-0.873-0.894-0.873c-0.833,0-1.299,0.853-1.299,2.192c0,1.279,0.548,2.093,1.624,2.093
	c0.467,0,0.873-0.164,1.218-0.468c0.224-0.203,0.386-0.345,0.528-0.345c0.122,0,0.224,0.082,0.224,0.224
	c0,0.304-0.853,1.218-2.214,1.218c-1.502,0-2.64-0.994-2.64-2.64s0.955-2.883,2.64-2.883c1.442,0,2.071,0.995,2.071,1.481
	c0,0.285-0.183,0.467-0.731,0.812L138.777,11.121L138.777,11.121z M134.107,11.751l0.995-2.498c0.102-0.244,0.123-0.367,0.123-0.508
	c0-0.184-0.163-0.265-0.387-0.285c-0.182-0.021-0.264-0.102-0.264-0.203c0-0.162,0.082-0.203,0.284-0.203h1.522
	c0.143,0,0.224,0.041,0.224,0.184c0,0.122-0.102,0.184-0.305,0.244c-0.264,0.081-0.324,0.184-0.487,0.568l-1.665,4.142
	c-0.548,1.341-0.812,1.989-0.914,2.274c-0.082,0.203-0.203,0.224-0.366,0.224h-0.67c-0.102,0-0.183,0-0.183-0.103
	c0-0.102,0.102-0.203,0.183-0.324c0.345-0.508,0.934-1.441,1.36-2.213l-1.766-3.92c-0.224-0.486-0.407-0.648-0.691-0.689
	c-0.142-0.02-0.182-0.102-0.182-0.184c0-0.162,0.102-0.203,0.305-0.203h1.828c0.203,0,0.324,0.062,0.324,0.184
	c0,0.102-0.061,0.184-0.263,0.203c-0.164,0.021-0.285,0.102-0.285,0.264c0,0.143,0.101,0.366,0.204,0.59L134.107,11.751
	L134.107,11.751z M122.958,5.822c0-0.386-0.082-0.548-0.447-0.568c-0.264-0.021-0.366-0.102-0.366-0.285
	c0-0.162,0.102-0.264,0.366-0.264h1.198c0.385,0,0.427,0.041,0.588,0.346l2.417,4.486l2.234-4.527
	c0.121-0.244,0.162-0.305,0.609-0.305h1.279c0.264,0,0.366,0.102,0.366,0.264c0,0.184-0.102,0.265-0.366,0.285
	c-0.366,0.021-0.446,0.183-0.446,0.568v6.273c0,0.387,0.08,0.55,0.446,0.57c0.264,0.021,0.366,0.1,0.366,0.284
	c0,0.162-0.102,0.265-0.366,0.265h-2.273c-0.244,0-0.366-0.103-0.366-0.265c0-0.185,0.122-0.264,0.366-0.284
	c0.365-0.021,0.446-0.184,0.446-0.57V6.451h-0.041l-2.051,4.244c-0.204,0.426-0.366,0.548-0.487,0.548
	c-0.143,0-0.284-0.103-0.508-0.548l-2.05-4.041h-0.062v5.441c0,0.386,0.081,0.549,0.447,0.568c0.263,0.021,0.365,0.102,0.365,0.285
	c0,0.162-0.102,0.264-0.365,0.264h-1.747c-0.264,0-0.366-0.102-0.366-0.264c0-0.184,0.102-0.264,0.366-0.285
	c0.366-0.02,0.447-0.183,0.447-0.568L122.958,5.822L122.958,5.822z M119.019,11c-0.223,0-0.284-0.062-0.284-0.244V10.41
	c0-0.183,0.061-0.244,0.284-0.244h2.498c0.224,0,0.284,0.062,0.284,0.244v0.346c0,0.183-0.061,0.244-0.284,0.244H119.019L119.019,11
	z"/>
<path fill="#0065A4" d="M179.813,11.71c0,0.791,0.306,1.015,0.935,1.015c0.874,0,1.361-0.69,1.361-2.313
	c0-1.281-0.427-1.99-1.099-1.99c-0.426,0-0.547,0.183-0.75,0.183c-0.121,0-0.203-0.103-0.203-0.203c0-0.265,0.59-0.548,1.22-0.548
	c1.623,0,2.091,1.359,2.091,2.599c0,1.786-0.955,2.923-2.74,2.923c-1.076,0-2.539-0.324-2.539-0.75c0-0.144,0.082-0.224,0.264-0.244
	c0.244-0.021,0.326-0.082,0.326-0.365V5.984c0-0.365-0.103-0.445-0.388-0.445c-0.182,0-0.264-0.082-0.264-0.184
	s0.04-0.162,0.224-0.244l0.873-0.386c0.184-0.082,0.325-0.162,0.447-0.162c0.143,0,0.242,0.081,0.242,0.345V11.71L179.813,11.71z
	 M174.148,11.71c0,0.791,0.306,1.015,0.936,1.015c0.873,0,1.36-0.69,1.36-2.313c0-1.281-0.428-1.99-1.098-1.99
	c-0.428,0-0.549,0.183-0.752,0.183c-0.121,0-0.201-0.103-0.201-0.203c0-0.265,0.589-0.548,1.218-0.548
	c1.624,0,2.092,1.359,2.092,2.599c0,1.786-0.955,2.923-2.741,2.923c-1.076,0-2.539-0.324-2.539-0.75
	c0-0.144,0.082-0.224,0.266-0.244c0.244-0.021,0.324-0.082,0.324-0.365V5.984c0-0.365-0.103-0.445-0.387-0.445
	c-0.183,0-0.264-0.082-0.264-0.184s0.04-0.162,0.225-0.244l0.871-0.386c0.186-0.082,0.326-0.162,0.447-0.162
	c0.143,0,0.242,0.081,0.242,0.345L174.148,11.71L174.148,11.71z M170.756,5.111c0.387,0,0.711,0.325,0.711,0.711
	c0,0.387-0.324,0.711-0.711,0.711c-0.386,0-0.711-0.324-0.711-0.711C170.045,5.436,170.372,5.111,170.756,5.111L170.756,5.111z
	 M170.229,9.273c0-0.365-0.102-0.446-0.385-0.446c-0.184,0-0.265-0.081-0.265-0.183s0.04-0.162,0.224-0.244l0.873-0.387
	c0.183-0.08,0.324-0.161,0.446-0.161c0.144,0,0.243,0.081,0.243,0.345v4.143c0,0.326,0.121,0.386,0.307,0.406l0.182,0.02
	c0.143,0.021,0.203,0.103,0.203,0.225s-0.082,0.225-0.284,0.225h-1.949c-0.203,0-0.284-0.103-0.284-0.225s0.061-0.203,0.202-0.225
	l0.185-0.02c0.183-0.021,0.305-0.082,0.305-0.406V9.273H170.229z M167.752,13.212c-0.162,0-0.224-0.062-0.224-0.162v-0.305
	l-0.04-0.021c-0.225,0.325-0.833,0.589-1.544,0.589c-1.056,0-1.646-0.447-1.646-1.625V9.272c0-0.365-0.102-0.446-0.386-0.446
	c-0.185,0-0.264-0.082-0.264-0.183s0.038-0.162,0.222-0.244l0.874-0.386c0.183-0.082,0.324-0.162,0.447-0.162
	c0.144,0,0.243,0.08,0.243,0.345v3.208c0,1.016,0.324,1.219,0.914,1.219c0.648,0,1.076-0.365,1.076-1.361V9.272
	c0-0.365-0.104-0.446-0.388-0.446c-0.182,0-0.263-0.082-0.263-0.183s0.04-0.162,0.223-0.244l0.873-0.386
	c0.184-0.082,0.325-0.162,0.447-0.162c0.143,0,0.242,0.08,0.242,0.345v4.144c0,0.324,0.123,0.385,0.306,0.406l0.183,0.02
	c0.143,0.021,0.202,0.102,0.202,0.224s-0.081,0.224-0.284,0.224H167.752L167.752,13.212z M161.924,9.679
	c0-0.832-0.305-1.178-1.035-1.178c-0.955,0-1.359,0.955-1.359,2.254c0,1.381,0.385,1.97,1.197,1.97c0.447,0,0.508-0.162,0.689-0.162
	c0.122,0,0.243,0.082,0.243,0.224c0,0.364-0.649,0.588-1.177,0.588c-1.238,0-2.215-0.914-2.215-2.619
	c0-1.685,0.793-2.902,2.58-2.902c0.67,0,1.117,0.162,1.44,0.345c0.203-0.366,0.366-0.629,0.63-0.629
	c0.162,0,0.243,0.103,0.243,0.244c0,0.163-0.103,0.284-0.103,0.731v6.274c0,0.324,0.121,0.386,0.307,0.405l0.182,0.021
	c0.143,0.02,0.203,0.1,0.203,0.223c0,0.121-0.08,0.224-0.283,0.224h-1.949c-0.203,0-0.284-0.103-0.284-0.224
	c0-0.123,0.062-0.203,0.202-0.223l0.184-0.021c0.184-0.02,0.305-0.081,0.305-0.405V9.679L161.924,9.679z M154.413,8.888
	c-1.279-0.893-1.788-1.381-1.788-2.457c0-1.198,0.894-1.909,2.437-1.909c0.672,0,1.058,0.183,1.302,0.183
	c0.284,0,0.364-0.244,0.608-0.244c0.203,0,0.264,0.123,0.324,0.426c0.162,0.834,0.284,1.219,0.284,1.402
	c0,0.182-0.103,0.264-0.284,0.264c-0.283,0-0.365-0.346-0.67-0.67c-0.365-0.387-0.914-0.631-1.462-0.631
	c-0.731,0-1.198,0.387-1.198,0.976s0.162,0.792,1.666,1.827c1.562,1.076,2.192,1.828,2.192,2.965c0,1.279-0.853,2.355-2.66,2.355
	c-1.016,0-1.259-0.265-1.584-0.265c-0.305,0-0.265,0.325-0.589,0.325c-0.203,0-0.264-0.122-0.366-0.508
	c-0.241-0.936-0.305-1.239-0.305-1.381c0-0.162,0.103-0.326,0.305-0.326c0.325,0,0.306,0.184,0.65,0.59
	c0.386,0.467,0.995,0.833,1.726,0.833c0.975,0,1.482-0.63,1.482-1.423C156.483,10.228,155.61,9.72,154.413,8.888L154.413,8.888z"/>
<path fill="#0065A4" d="M80.674,12.143v3.391c0,0.183-0.02,0.386-0.02,0.527l0.04,0.021c0.061-0.162,0.142-0.365,0.224-0.527
	l2.884-4.954c0.162-0.265,0.284-0.366,0.324-0.447l-0.021-0.041c-0.04,0.021-0.162,0.122-0.406,0.265L80.674,12.143L80.674,12.143z
	 M80.674,6.701L83.7,8.468c0.244,0.142,0.366,0.244,0.406,0.264l0.021-0.041c-0.04-0.081-0.162-0.182-0.324-0.445l-2.884-4.955
	c-0.082-0.164-0.163-0.367-0.224-0.529l-0.04,0.021c0,0.142,0.02,0.345,0.02,0.528L80.674,6.701L80.674,6.701z M80.532,6.964
	l-3.045,1.748c-0.143,0.08-0.285,0.162-0.406,0.223l0.02-0.02l0.041,0.041c0.102-0.021,0.304-0.041,0.609-0.041h5.564
	c0.304,0,0.507,0.02,0.649,0.041l0.02-0.021V8.894c-0.122-0.02-0.264-0.102-0.406-0.182L80.532,6.964L80.532,6.964z M80.532,11.878
	l3.045-1.746c0.143-0.082,0.265-0.143,0.427-0.225l-0.021,0.021l-0.04-0.041c-0.122,0.02-0.326,0.041-0.629,0.041H77.75
	c-0.305,0-0.507-0.021-0.669-0.041l-0.021,0.02v0.041c0.163,0.041,0.284,0.102,0.427,0.184L80.532,11.878L80.532,11.878z
	 M80.39,12.143l-3.025-1.767c-0.244-0.143-0.366-0.244-0.406-0.265l-0.02,0.041c0.04,0.081,0.162,0.183,0.324,0.447l2.883,4.954
	c0.082,0.162,0.164,0.365,0.224,0.527l0.04-0.021c0-0.142-0.02-0.347-0.02-0.527V12.143L80.39,12.143z M80.39,6.701V3.31
	c0-0.184,0.02-0.387,0.02-0.528l-0.04-0.021c-0.061,0.162-0.122,0.365-0.224,0.529l-2.883,4.955
	c-0.162,0.264-0.284,0.365-0.324,0.445l0.02,0.041C77,8.712,77.121,8.61,77.365,8.468L80.39,6.701L80.39,6.701z M76.41,9.645h8.245
	l-4.123,7.147L76.41,9.645L76.41,9.645z M80.532,2.05l4.123,7.148H76.41L80.532,2.05L80.532,2.05z M76.167,14.417l3.025,1.767
	c0.243,0.142,0.365,0.243,0.406,0.264l0.02-0.04c-0.041-0.082-0.163-0.183-0.325-0.447l-2.884-4.955
	c-0.081-0.162-0.162-0.365-0.223-0.527L76.145,10.5c0,0.141,0.021,0.344,0.021,0.527L76.167,14.417L76.167,14.417z M76.167,4.427
	v3.391c0,0.184-0.021,0.387-0.021,0.527l0.041,0.021c0.061-0.162,0.142-0.365,0.223-0.527l2.884-4.955
	c0.163-0.264,0.285-0.365,0.325-0.447l-0.02-0.041c-0.042,0.021-0.164,0.122-0.406,0.264L76.167,4.427L76.167,4.427z M76.024,14.681
	l-3.046,1.746c-0.142,0.082-0.263,0.143-0.426,0.224l0.02-0.021l0.042,0.041c0.122-0.021,0.324-0.041,0.629-0.041h5.563
	c0.305,0,0.508,0.021,0.67,0.041l0.02-0.021v-0.04c-0.162-0.041-0.284-0.103-0.426-0.185L76.024,14.681L76.024,14.681z
	 M76.024,4.164l3.045-1.748c0.142-0.08,0.265-0.142,0.426-0.224l-0.02,0.021l-0.041-0.041c-0.121,0.021-0.324,0.041-0.629,0.041
	h-5.563c-0.305,0-0.507-0.021-0.671-0.041l-0.02,0.021v0.041c0.163,0.041,0.284,0.103,0.426,0.183L76.024,4.164L76.024,4.164z
	 M75.882,14.417v-3.392c0-0.183,0.021-0.386,0.021-0.528l-0.042-0.021c-0.061,0.161-0.142,0.366-0.223,0.528l-2.883,4.955
	c-0.162,0.265-0.284,0.364-0.325,0.446l0.021,0.04c0.041-0.021,0.164-0.122,0.406-0.264L75.882,14.417L75.882,14.417z M75.882,4.406
	l-3.025-1.768c-0.243-0.141-0.366-0.243-0.406-0.264L72.43,2.416c0.042,0.082,0.164,0.184,0.325,0.447l2.883,4.954
	c0.082,0.163,0.163,0.366,0.223,0.528l0.042-0.021c0-0.143-0.021-0.345-0.021-0.527V4.406L75.882,4.406z M76.024,9.767l4.122,7.146
	h-8.243L76.024,9.767L76.024,9.767z M71.903,1.929h8.243l-4.122,7.147L71.903,1.929L71.903,1.929z M71.658,12.143v3.391
	c0,0.183-0.02,0.386-0.02,0.527l0.041,0.021c0.061-0.162,0.142-0.365,0.224-0.527l2.883-4.954c0.162-0.265,0.284-0.366,0.325-0.447
	l-0.021-0.041c-0.041,0.021-0.163,0.122-0.406,0.265L71.658,12.143L71.658,12.143z M71.658,6.701l3.026,1.768
	c0.243,0.142,0.365,0.244,0.406,0.264l0.021-0.041c-0.041-0.081-0.163-0.182-0.325-0.445l-2.883-4.955
	c-0.082-0.164-0.163-0.367-0.224-0.529l-0.041,0.021c0,0.142,0.02,0.345,0.02,0.528V6.701L71.658,6.701z M71.516,11.878l3.046-1.746
	c0.143-0.082,0.264-0.143,0.427-0.225l-0.021,0.021l-0.041-0.041c-0.122,0.02-0.325,0.041-0.629,0.041h-5.563
	c-0.305,0-0.508-0.021-0.67-0.041l-0.02,0.02v0.041c0.162,0.041,0.284,0.102,0.427,0.184L71.516,11.878L71.516,11.878z
	 M71.516,6.964l-3.045,1.748c-0.143,0.08-0.265,0.142-0.427,0.223l0.02-0.02l0.041,0.041c0.122-0.021,0.325-0.041,0.63-0.041h5.563
	c0.304,0,0.508,0.02,0.67,0.041l0.021-0.021V8.894c-0.163-0.04-0.284-0.102-0.427-0.182L71.516,6.964L71.516,6.964z M71.374,6.701
	V3.31c0-0.184,0.021-0.387,0.021-0.528l-0.04-0.021c-0.062,0.162-0.142,0.365-0.224,0.529l-2.884,4.955
	c-0.163,0.264-0.284,0.365-0.324,0.445l0.02,0.041c0.041-0.02,0.163-0.122,0.406-0.264L71.374,6.701L71.374,6.701z M71.354,12.143
	l-3.026-1.767c-0.244-0.143-0.366-0.244-0.406-0.265l-0.021,0.041c0.04,0.081,0.162,0.183,0.324,0.447l2.883,4.954
	c0.082,0.162,0.164,0.365,0.224,0.527l0.04-0.021c0-0.142-0.02-0.347-0.02-0.527v-3.391H71.354z M67.395,9.645h8.244l-4.122,7.147
	L67.395,9.645L67.395,9.645z M71.516,2.05l4.122,7.148h-8.244L71.516,2.05L71.516,2.05z"/>
<g>
	<g>
		<defs>
			<path id="SVGID_29_" d="M232.76,7.265c-0.006,4.779-6.551,9.839-15.104,11.621c-2.05,0.429-4.055,0.634-5.945,0.638
				c-0.98,0.002-1.932-0.05-2.843-0.153l2.812-10.818h1.762l-1.232,4.593h1.797c0.219-0.819,1.008-3.81,1.471-5.495h-3.555
				l0.539-2.096c0.106-0.398,0.189-0.631,0.26-0.807c0.293-0.75,0.744-1.181,1.287-1.265c0.439-0.069,0.599,0.205,0.601,0.38
				c0.004,0.344-0.271,0.414-0.267,0.877c0.002,0.34,0.223,0.855,0.924,0.855c0.686,0,1.113-0.469,1.148-1.17
				c0.018-0.34-0.048-0.713-0.555-1.068c-0.537-0.376-1.496-0.458-2.143-0.4c-1.187,0.107-2.031,0.844-2.561,1.736
				c-0.406,0.689-0.635,1.303-1.043,2.887c0,0-2.089,8.018-2.996,11.521c-4.296-0.854-7.389-2.956-8.005-5.916
				c-0.076-0.36-0.11-0.724-0.11-1.087c0.002-4.764,6.293-9.776,14.825-11.555c2.083-0.435,4.136-0.641,6.076-0.641
				c6.614,0,11.93,2.396,12.747,6.312C232.725,6.56,232.76,6.912,232.76,7.265L232.76,7.265z M224.87,11.431
				c-0.093,0.095-0.888,0.867-1.729,0.867c-0.629,0-1.08-0.453-1.08-0.983c0-0.113-0.01-0.194,0.016-0.401
				c0.992,0,1.582-0.117,2.167-0.312c0.938-0.305,1.562-1.107,1.562-1.889c0-0.752-0.821-1.194-1.772-1.194
				c-1.914,0-3.704,1.696-3.704,3.685c0,1.268,0.926,2.123,2.294,2.123c0.632,0,1.206-0.142,1.71-0.402
				c0.318-0.166,0.6-0.393,0.852-0.653L224.87,11.431L224.87,11.431z M223.907,9.702c-0.424,0.333-0.885,0.455-1.703,0.484
				c0.135-0.606,0.479-1.149,0.93-1.494c0.268-0.206,0.592-0.312,0.793-0.312c0.438,0,0.535,0.244,0.535,0.4
				C224.461,9.066,224.289,9.403,223.907,9.702L223.907,9.702z M220.791,7.649h-4.495l-0.244,0.901h2.508
				c-0.551,0.851-3.457,2.856-3.457,4.593c0.611,0,4.602,0,4.602,0L220,12.039c0,0-2.441,0-2.832,0
				C217.838,10.746,220.272,9.357,220.791,7.649L220.791,7.649z M230.348,7.552c-0.711,0-1.481,0.699-1.894,1.197l0.313-1.102
				h-1.754l-1.482,5.495h1.809l0.697-2.563c0.053-0.184,0.145-0.439,0.27-0.709c0.18-0.393,0.429-0.801,0.719-1.059
				c0.215-0.189,0.422-0.292,0.673-0.251c0.176,0.028,0.228,0.176,0.248,0.327c0.017,0.131,0.042,0.287,0.192,0.438
				c0.061,0.06,0.207,0.192,0.537,0.192c0.438,0,0.818-0.371,0.818-0.911C231.496,8.147,231.346,7.552,230.348,7.552L230.348,7.552z
				 M207.5,7.664c-0.441,1.42-1.343,1.668-2.775,1.672c0.353-1.299,0.718-2.651,0.977-3.609h0.316
				C207.721,5.726,207.862,6.503,207.5,7.664L207.5,7.664z M206.215,4.907h-2.1c0,0-1.898,7.015-2.229,8.236h1.807
				c0.113-0.418,0.429-1.584,0.793-2.933c3.699-0.006,4.568-1.041,4.904-2.488C209.667,6.55,209.438,4.907,206.215,4.907
				L206.215,4.907z"/>
		</defs>
		<clipPath id="SVGID_30_">
			<use xlink:href="#SVGID_29_"  overflow="visible"/>
		</clipPath>
		<g clip-path="url(#SVGID_30_)">
			<g>
				<defs>
					<rect id="SVGID_31_" x="198.225" y="-0.115" width="35.604" height="19.639"/>
				</defs>
				<clipPath id="SVGID_32_">
					<use xlink:href="#SVGID_31_"  overflow="visible"/>
				</clipPath>
				<g transform="matrix(1 0 0 1 0 1.907349e-06)" clip-path="url(#SVGID_32_)">
					
						<image overflow="visible" enable-background="new    " width="154" height="87" xlink:href="31DA993D.jpg"  transform="matrix(0.2446 0 0 -0.2325 197.4409 19.8335)">
					</image>
				</g>
			</g>
		</g>
	</g>
</g>
</svg>
